<svg width="207" height="308" viewBox="0 0 207 308" fill="none" xmlns="http://www.w3.org/2000/svg">
<rect x="10" y="10" width="187" height="288" rx="33" stroke="#F47676" stroke-width="20"/>
<path d="M69.8948 58.2798C69.8948 65.8238 63.3921 72.6513 54.4738 72.6513C45.5554 72.6513 39.0527 65.8238 39.0527 58.2798C39.0527 50.7357 45.5554 43.9082 54.4738 43.9082C63.3921 43.9082 69.8948 50.7357 69.8948 58.2798Z" stroke="#F47676" stroke-width="20"/>
<path d="M130.905 58.2798C130.905 65.8238 124.402 72.6513 115.484 72.6513C106.566 72.6513 100.063 65.8238 100.063 58.2798C100.063 50.7357 106.566 43.9082 115.484 43.9082C124.402 43.9082 130.905 50.7357 130.905 58.2798Z" stroke="#F47676" stroke-width="20"/>
<path d="M69.8948 117.619C69.8948 125.163 63.3921 131.991 54.4738 131.991C45.5554 131.991 39.0527 125.163 39.0527 117.619C39.0527 110.075 45.5554 103.248 54.4738 103.248C63.3921 103.248 69.8948 110.075 69.8948 117.619Z" stroke="#F47676" stroke-width="20"/>
<path d="M130.905 117.619C130.905 125.163 124.402 131.991 115.484 131.991C106.566 131.991 100.063 125.163 100.063 117.619C100.063 110.075 106.566 103.248 115.484 103.248C124.402 103.248 130.905 110.075 130.905 117.619Z" stroke="#F47676" stroke-width="20"/>
</svg>
