<svg width="132" height="131" viewBox="0 0 132 131" fill="none" xmlns="http://www.w3.org/2000/svg">
<path d="M41.3984 107.917C18.5347 95.1685 11.0145 65.8432 24.6017 42.417C38.1888 18.9907 67.738 10.3347 90.6017 23.0831C113.465 35.8315 120.986 65.1569 107.398 88.5831C93.8113 112.009 64.2621 120.665 41.3984 107.917ZM84.0266 34.4195C67.2735 25.0783 45.6217 31.4209 35.6659 48.5862C25.7101 65.7515 31.2204 87.2393 47.9735 96.5805C64.7266 105.922 86.3784 99.5792 96.3342 82.4139C106.29 65.2486 100.78 43.7608 84.0266 34.4195Z" fill="#F47676"/>
<path d="M39.0001 93L94.0001 37" stroke="#F47676" stroke-width="14" stroke-linecap="square"/>
<path d="M38.8983 37.3102L91.0001 93" stroke="#F47676" stroke-width="14" stroke-linecap="square"/>
</svg>
