<svg width="1346" height="524" viewBox="0 0 1346 524" fill="none" xmlns="http://www.w3.org/2000/svg">
<rect x="711" y="136" width="66" height="274" fill="#F6F7DF"/>
<rect y="136" width="76" height="274" fill="#F6F7DF"/>
<rect x="209" y="136" width="71" height="274" fill="#F6F7DF"/>
<rect x="13" y="337.68" width="39.1845" height="240.445" transform="rotate(-89.726 13 337.68)" fill="#F6F7DF"/>
<path d="M482.3 234.609C501.608 234.609 516.319 239.895 526.432 250.469C536.546 261.042 541.603 276.328 541.603 296.325V331.838H452.993V352.18C452.993 363.902 455.752 372.407 461.268 377.694C467.015 382.75 475.979 385.279 488.161 385.279C500.114 385.279 515.054 383.44 532.983 379.762L533.673 405.276C512.296 409.184 497.011 411.138 487.817 411.138C465.061 411.138 448.626 406.196 438.513 396.312C428.629 386.428 423.687 371.143 423.687 350.456V296.325C423.687 276.328 428.514 261.042 438.168 250.469C448.052 239.895 462.762 234.609 482.3 234.609ZM482.3 259.088C473.336 259.088 466.21 261.962 460.923 267.708C455.637 273.224 452.993 281.269 452.993 291.843V308.392H512.296V292.877C512.296 281.844 509.538 273.454 504.021 267.708C498.735 261.962 491.494 259.088 482.3 259.088Z" fill="#F6F7DF"/>
<path d="M974.404 237.609C984.058 237.609 995.666 238.988 1009.23 241.746L1008.54 266.57C996.585 263.812 985.667 262.433 975.783 262.433C955.097 262.433 944.753 269.099 944.753 282.43V285.533C944.753 289.671 945.787 293.004 947.856 295.532C950.155 298.061 954.177 300.704 959.923 303.462L992.333 318.633C1011.87 327.827 1021.64 341.273 1021.64 358.972V366.557C1021.41 382.417 1016.58 394.37 1007.16 402.415C997.965 410.23 983.369 414.137 963.371 414.137C953.028 414.137 938.202 411.724 918.894 406.897L920.273 380.693C937.513 385.75 951.649 388.279 962.682 388.279C973.945 388.279 981.76 386.785 986.127 383.797C990.494 380.579 992.678 375.407 992.678 368.281V364.833C992.678 359.317 991.529 354.95 989.23 351.732C987.161 348.514 983.599 345.756 978.542 343.457L945.098 328.631C934.984 324.034 927.514 318.518 922.687 312.082C918.09 305.646 915.791 298.176 915.791 289.671V284.844C916.251 269.214 921.078 257.491 930.272 249.676C939.696 241.631 954.407 237.609 974.404 237.609Z" fill="#F6F7DF"/>
<path d="M1235.4 237.609C1245.06 237.609 1256.67 238.988 1270.23 241.746L1269.54 266.57C1257.59 263.812 1246.67 262.433 1236.78 262.433C1216.1 262.433 1205.75 269.099 1205.75 282.43V285.533C1205.75 289.671 1206.79 293.004 1208.86 295.532C1211.15 298.061 1215.18 300.704 1220.92 303.462L1253.33 318.633C1272.87 327.827 1282.64 341.273 1282.64 358.972V366.557C1282.41 382.417 1277.58 394.37 1268.16 402.415C1258.96 410.23 1244.37 414.137 1224.37 414.137C1214.03 414.137 1199.2 411.724 1179.89 406.897L1181.27 380.693C1198.51 385.75 1212.65 388.279 1223.68 388.279C1234.94 388.279 1242.76 386.785 1247.13 383.797C1251.49 380.579 1253.68 375.407 1253.68 368.281V364.833C1253.68 359.317 1252.53 354.95 1250.23 351.732C1248.16 348.514 1244.6 345.756 1239.54 343.457L1206.1 328.631C1195.98 324.034 1188.51 318.518 1183.69 312.082C1179.09 305.646 1176.79 298.176 1176.79 289.671V284.844C1177.25 269.214 1182.08 257.491 1191.27 249.676C1200.7 241.631 1215.41 237.609 1235.4 237.609Z" fill="#F6F7DF"/>
<path d="M723.863 90.0761C732.173 94.8016 742.009 96.1674 751.5 93.9135C760.991 91.6596 769.474 85.9434 775.334 77.8528C781.195 69.7623 784.023 59.8622 783.282 50.0369C782.541 40.2116 778.281 31.147 771.314 24.5683C764.347 17.9896 755.158 14.3562 745.498 14.3595C735.837 14.3629 726.378 18.0027 718.922 24.5864C711.466 31.1701 706.532 40.2379 705.061 50.0639C703.589 59.89 705.683 69.7884 710.942 77.8751L739.693 57.6903C739.008 56.6368 738.735 55.3472 738.927 54.0671C739.119 52.787 739.761 51.6056 740.733 50.7479C741.704 49.8902 742.937 49.416 744.195 49.4155C745.454 49.4151 746.651 49.8884 747.558 50.7455C748.466 51.6026 749.021 52.7835 749.118 54.0636C749.214 55.3436 748.846 56.6334 748.082 57.6874C747.319 58.7415 746.214 59.4862 744.977 59.7798C743.741 60.0735 742.459 59.8955 741.377 59.2799L723.863 90.0761Z" fill="#F47676"/>
</svg>
