<svg width="205" height="219" viewBox="0 0 205 219" fill="none" xmlns="http://www.w3.org/2000/svg">
<path d="M165.956 5.34058e-05C156.397 5.34058e-05 147.171 3.67527 140.035 10.3262C132.899 16.9772 128.351 26.1395 127.256 36.0694C126.162 45.9992 128.597 56.0034 134.098 64.1778C139.599 72.3522 147.783 78.1261 157.092 80.4006C166.4 82.6751 176.183 81.2914 184.58 76.5129C192.976 71.7344 199.398 63.8946 202.625 54.4857C205.852 45.0768 205.658 34.7557 202.08 25.4867C198.502 16.2178 191.789 8.64812 183.22 4.21844L168.205 35.9773C169.322 36.5544 170.196 37.5406 170.662 38.7481C171.129 39.9557 171.154 41.3003 170.733 42.5261C170.313 43.7519 169.476 44.7733 168.382 45.3958C167.289 46.0184 166.014 46.1987 164.801 45.9023C163.589 45.606 162.522 44.8538 161.806 43.7888C161.089 42.7239 160.772 41.4205 160.914 40.1269C161.057 38.8332 161.649 37.6395 162.579 36.773C163.509 35.9065 164.711 35.4277 165.956 35.4277V5.34058e-05Z" fill="#F47676"/>
<ellipse cx="165.956" cy="177.876" rx="40.7346" ry="38.9561" transform="rotate(-90 165.956 177.876)" fill="#555555"/>
<ellipse cx="38.9561" cy="40.8755" rx="40.7346" ry="38.9561" transform="rotate(-90 38.9561 40.8755)" fill="#FFFFE7"/>
<ellipse cx="38.9561" cy="177.735" rx="40.7346" ry="38.9561" transform="rotate(-90 38.9561 177.735)" fill="#C6C6C6"/>
</svg>
