<svg width="150" height="130" viewBox="0 0 150 130" fill="none" xmlns="http://www.w3.org/2000/svg">
<path d="M100 50C100 22.3858 77.6142 0 50 0C22.3858 0 0 22.3858 0 50H100ZM75 74L53.1827 118.989L75 129.569L96.8173 118.989L75 74ZM150 50C150 22.3858 127.614 0 100 0C72.3858 0 50 22.3858 50 50H150ZM0 50C0 70.1536 10.1496 84.3681 15.5277 90.8085C21.6177 98.1014 28.4304 103.523 33.2188 106.983C38.3177 110.667 43.1401 113.558 46.527 115.469C48.273 116.454 49.7683 117.251 50.8973 117.837C51.4644 118.131 51.9468 118.376 52.3305 118.568C52.5226 118.664 52.6907 118.748 52.8331 118.818C52.9044 118.853 52.9692 118.885 53.0275 118.913C53.0567 118.928 53.0842 118.941 53.1101 118.954C53.123 118.96 53.1355 118.966 53.1476 118.972C53.1537 118.975 53.1625 118.979 53.1655 118.981C53.1741 118.985 53.1827 118.989 75 74C96.8173 29.0111 96.8257 29.0151 96.834 29.0191C96.8366 29.0204 96.8448 29.0244 96.8501 29.027C96.8607 29.0321 96.8709 29.0371 96.8808 29.0419C96.9006 29.0516 96.9191 29.0606 96.9362 29.0689C96.9705 29.0857 96.9995 29.0999 97.0234 29.1117C97.0712 29.1353 97.0989 29.1491 97.1079 29.1536C97.1255 29.1624 97.0707 29.1351 96.9543 29.0747C96.716 28.9511 96.2583 28.7088 95.6605 28.3716C94.3599 27.6379 92.9323 26.7561 91.7812 25.9245C90.3196 24.8685 90.8823 25.0326 92.2848 26.7121C92.9754 27.5391 100 35.7845 100 50H0ZM75 74C96.8173 118.989 96.8259 118.985 96.8345 118.981C96.8375 118.979 96.8463 118.975 96.8524 118.972C96.8645 118.966 96.877 118.96 96.8899 118.954C96.9158 118.941 96.9433 118.928 96.9725 118.913C97.0308 118.885 97.0956 118.853 97.1669 118.818C97.3093 118.748 97.4773 118.664 97.6695 118.568C98.0532 118.376 98.5356 118.131 99.1027 117.837C100.232 117.251 101.727 116.454 103.473 115.469C106.86 113.558 111.682 110.667 116.781 106.983C121.57 103.523 128.382 98.1014 134.472 90.8085C139.85 84.3681 150 70.1536 150 50H50C50 35.7845 57.0246 27.5391 57.7152 26.7121C59.1177 25.0326 59.6804 24.8685 58.2188 25.9245C57.0677 26.7561 55.6401 27.6379 54.3395 28.3716C53.7417 28.7088 53.284 28.9511 53.0457 29.0747C52.9293 29.1351 52.8745 29.1624 52.8921 29.1536C52.9011 29.1491 52.9288 29.1353 52.9766 29.1117C53.0005 29.0999 53.0295 29.0857 53.0638 29.0689C53.0809 29.0606 53.0994 29.0516 53.1192 29.0419C53.1291 29.0371 53.1393 29.0321 53.1499 29.027C53.1552 29.0244 53.1634 29.0204 53.166 29.0191C53.1743 29.0151 53.1827 29.0111 75 74Z" fill="#C6C6C6"/>
</svg>
