<svg width="120" height="116" viewBox="0 0 120 116" fill="none" xmlns="http://www.w3.org/2000/svg">
<path d="M118.896 58.8952C118.711 71.1108 114.379 82.932 106.555 92.5758C98.7307 102.22 87.8385 109.163 75.521 112.359C63.2035 115.555 50.1287 114.83 38.2687 110.293C26.4086 105.756 16.4066 97.6537 9.77119 87.208C3.13575 76.7622 0.226754 64.5394 1.48295 52.3832C2.73915 40.227 8.09243 28.7967 16.7353 19.8161C25.3783 10.8356 36.8421 4.792 49.3978 2.59681C61.9534 0.401626 74.92 2.17394 86.3418 7.64643L60.05 58L118.896 58.8952Z" fill="#F47676"/>
<circle cx="28.5001" cy="40.5" r="6.5" fill="white"/>
<circle cx="21.5001" cy="64.5" r="6.5" fill="white"/>
<circle cx="34.5001" cy="85.5" r="6.5" fill="white"/>
<circle cx="55.5001" cy="96.5" r="6.5" fill="white"/>
<circle cx="87.5001" cy="85.5" r="8.5" fill="white"/>
</svg>
