<?xml version='1.0' encoding='utf-8'?>
<svg xmlns="http://www.w3.org/2000/svg" version="1.1" id="Capa_1" x="0px" y="0px" viewBox="0 0 576 720" style="enable-background:new 0 0 576 720;"> <style type="text/css"> .st0{fill:#1D1D1B;} .st1{fill:#FDFDFD;} .st2{fill:#FEFEFE;} .st3{fill:#1D1D1C;} .st4{fill:#EA8C8C;} .st5{fill:#C65454;} .st6{fill:#E56363;} </style> <g> <path class="st0" d="M443.9,410.5c-0.6,1.4-0.6,3-0.9,4.5c-4.5,21.8-13.9,41.2-29.3,57.5c-4.1,4.4-8.6,8.4-12.9,12.7 c-5.1,5.2-9.6,10.8-12,17.8c-4.4,13-4.4,26,1.1,38.7c2.6,5.9,6.5,10.9,11,15.5c3.6,3.8,7.4,7.3,12,9.8c4.1,2.2,8.4,3.2,13,1.5 c1.3-0.5,2.3,0.1,2.8,1.4c0.5,1.5,0,2.9-1.4,3.5c-3.2,1.3-6.4,2.4-9.7,3.5c-10.7,3.5-21.6,5.6-32.8,6.6c-1.7,0.2-3.5,0.2-5.3,0.3 c-0.5,0.2-1,0-1.5,0.1c-0.7,0-1.3,0-2,0c-2.3,0-4.7,0-7,0c-0.7,0-1.3,0-2,0c-0.5,0-1,0.1-1.5-0.1c-15.2-0.7-30-4-44.4-8.6 c-14.2-4.5-27.8-10.5-41-17.4c-5.4-2.9-10.7-6-15.7-9.4c-3.3-2.3-6.5-4.8-9.7-7.4c-3.6-3-7-6.1-10.2-9.5c-3.4-3.6-6.5-7.5-9.4-11.7 c-2.9-4.2-5.5-8.6-8-13c-2.6-4.6-5-9.3-7-14.2c-1.4-3.2-2.6-6.4-3.7-9.7c-1.4-4.2-2.5-8.5-3.3-12.9c-0.4-2.5-0.8-5-1-7.5 c-0.2-0.4,0.1-0.9-0.2-1.2c0-0.5,0-0.9-0.1-1.4c-0.2-0.5,0.1-1.1-0.2-1.7c0-0.6,0-1.3-0.1-1.9c-0.2-1,0.1-1.9-0.2-2.9 c0-0.1,0-0.2,0-0.2c0.7-3.2-1-5.4-2.8-7.7c-3.2-4.3-5.6-9.1-7.5-14.1c-1.7-4.4-2.9-9-3.8-13.7c-0.5-2.6-1-5.3-1.1-8 c-0.2-0.4,0.1-0.8-0.2-1.2c0-0.4,0-0.8-0.1-1.2c-0.2-0.5,0.1-1-0.2-1.5c0-0.5,0-1.1-0.1-1.6c-0.2-0.5,0-1.1-0.2-1.6 c0-1.6-0.1-3.1-0.1-4.7c-0.1-2-0.1-4,0-6c0-1.4,0-2.7,0.1-4.1c0.3-0.9,0-1.8,0.2-2.7c0-0.6,0-1.1,0.1-1.7c0.3-0.5,0-1,0.2-1.4 c0.2-3.1,0.8-6.1,2-8.9c0.9-2.1,2.1-4.1,3.6-5.8c0.4-0.4,0.9-0.5,1.4-0.7c0.4-0.1,0.8-0.1,1.2,0c0.2,0,0.3,0.1,0.5,0.1 c0.7-0.1,0.9,0.4,1.2,0.8c5.6,7.3,10.7,14.9,15.2,22.8c0.5,0.9,1,1.8,1.6,2.8c0.7-0.8,1-1.8,1.4-2.7c4.5-9.7,10.1-18.6,16.9-26.8 c5.1-6.1,11-11.3,17.6-15.8c0.3-0.2,0.6-0.5,1.1-0.4c0.3,0,0.4-0.3,0.5-0.4c0.5-0.7,1.2-1,1.9-1.4c11.5-7,23.9-11.5,37.2-13.7 c0.5-0.1,0.9-0.2,1.4,0c0.2,0,0.5,0,0.7,0c0.3-0.4,0.6-0.5,1-0.5c1.5-0.2,3.1-0.4,4.6-0.5c0.5,0,0.9,0,1.4-0.1 c0.4-0.1,0.8-0.1,1.2-0.1c0.6,0,1.2,0,1.8-0.2c0.7-0.1,1.4-0.1,2-0.1c0.7,0,1.5,0.1,2.2-0.1c2.8-0.2,5.7-0.1,8.5,0 c0.6,0.1,1.2,0.1,1.8,0.1c0.6,0,1.2,0,1.8,0.1c0.6,0.2,1.2,0.2,1.8,0.1c0.5,0,0.9,0,1.4,0.1c0.4,0.2,0.9,0.2,1.4,0.1 c1.5,0.2,3,0.1,4.4,0.8c0.2,0.1,0.5,0.1,0.7,0.2c0.4-0.3,0.8-0.3,1.3-0.2c8.6,1.4,17.1,3.6,25.2,6.9c0.4,0.2,0.9,0.3,1.2,0.8 c0.2,0.1,0.5,0.2,0.7,0.3c0.5-0.1,0.8,0.1,1.2,0.3c7.1,3.1,13.5,7.2,19.5,12.1c0.9,0.8,1.8,1.6,2.7,2.4c0.3,0.3,0.6,0.6,0.9,0.9 c4.2,4.2,7.9,8.8,10.7,14c0.9,1.6,1.7,3.3,2.4,5c0.2,0.4,0.5,0.8,0.2,1.2c0.1,0.2,0.2,0.5,0.2,0.7c0.6,0.3,0.7,0.8,0.9,1.4 c1.4,4.1,2.3,8.4,2.8,12.7c-0.1,0.5,0,0.9,0.2,1.3c0.1,0.5,0.1,0.9-0.1,1.4c0,0.7-0.1,1.3,0.1,2c0,2.7,0,5.4,0,8.1 c-0.2,0.7-0.2,1.3,0.1,2c0.1,0.5,0,1.1,0,1.6c-0.1,0.5-0.2,1-0.4,1.5c0,0.3,0.2,0.6,0.1,0.9c-0.1,0.4-0.2,0.8-0.1,1.2 c-0.3,2.2-0.6,4.3-1,6.6c5.3-4.5,10.5-9,16-13.1c3.8-2.7,7.7-5.1,12.3-6.4c1.1-0.3,2.2-0.8,3.4-0.3c0.1,0,0.2,0,0.2,0 c1.4-0.5,2.8,0,3.6,1.3c0.2,0.2,0.3,0.3,0.5,0.5c1.1,0.5,1.3,1.7,1.6,2.7c0.2,0.6,0.1,1.2,0.3,1.8 C443.9,405.8,443.9,408.2,443.9,410.5z"/> <path class="st0" d="M106.2,253.8c0-1.6,0-3.2,0-4.8c0.1-8.6,0.6-17.2,1.2-25.7c0.7-8.9,1.7-17.7,3-26.5c0.9-6.3,1.7-12.7,3.2-18.9 c1.5-6,3.7-11.7,7.3-16.8c1.1-1.5,2.2-2.7,4.1-3.4c4.6-1.7,9.2-3.6,13.9-5.3c16.8-6,33.9-10.4,51.5-13.1 c11.9-1.8,23.9-2.9,35.9-3.1c0.1,0,0.2,0,0.4,0c2.6,0,5.1,0,7.7,0c6.2,0.1,12.4,0.4,18.5,1c2.3,0.2,4.6,0.5,6.9,0.7 c0.1,0.1,0.1,0.1,0.2,0c2.1-0.2,4,0.4,6,0.7c5.6,1.1,11.1,2.4,16.4,4.5c0.7,0.3,1.4,0.4,1.9,1l0,0c1.3,0.1,2.4,0.8,3.5,1.3 c5.9,2.9,11.3,6.5,15.9,11.3c1.9,2,3.5,4.1,5.1,6.4c0.2,0.4,0.4,0.8,0.5,1.2c0,0.4,0.2,0.6,0.5,0.7c0.8,0.5,1,1.3,1.4,2 c3.9,7.3,5.8,15.1,7.1,23.1c0.2,1.4,0.4,2.8,0.6,4.1c0.1,0.6,0.2,1.3-0.2,1.9c0,0.1,0,0.2,0,0.2c0.5,0.3,0.5,0.9,0.4,1.4 c-0.1,0.4-0.2,0.8,0,1.3l0,0c0.4,0.4,0.4,0.9,0.4,1.3c0,0.5,0,1.1,0.1,1.6c0.1,0.5,0.1,0.9,0.1,1.4c0,0.6-0.1,1.2,0.1,1.8 c0.1,0.6,0.1,1.2,0.1,1.8c0,0.7-0.1,1.3,0.1,2c0.1,0.6,0.1,1.2,0.1,1.8c0,0.7-0.1,1.5,0.1,2.2c0.1,0.6,0.1,1.2,0.1,1.9 c0,0.7-0.1,1.5,0.1,2.2c0.1,0.6,0.1,1.2,0.1,1.8c0,0.6-0.1,1.2,0.1,1.8c0.1,0.5,0.1,1.1,0.1,1.6c0,0.5-0.4,1-0.1,1.6l0,0.1l0.1,0.1 c0.2,0.3,0.3,0.7,0.3,1.1c-0.1,0.5,0,1,0.1,1.5c0.1,0.4,0.1,0.8,0.1,1.1c0,0.4,0,0.9,0.1,1.3c0.1,0.4,0.1,0.8,0.1,1.1 c0,0.5,0,1,0.1,1.5c0.1,0.4,0.1,0.8,0.1,1.1c0,0.5,0,1,0.1,1.5c0.1,0.4,0.1,0.8,0.1,1.2c0,0.5,0,1,0.1,1.5c0.1,0.6,0.1,1.2,0.1,1.8 c0,0.5,0,0.9,0.1,1.4c0.2,1.6,0.1,3.1,0.1,4.7c0,0.7,0,1.4,0,2.1c0,0.9,0.1,1.8-0.1,2.7c-0.1,0.4-0.2,0.9-0.2,1.3 c-0.2,1.6-0.6,3.2-1.2,4.8c-0.9,2.3-2.3,4.2-4.6,5.4c-2.2,1.1-4.3,0.9-6.5-0.1c-0.7-0.3-1.3-0.8-2-1.1c-1.7-0.9-2.6-0.5-3.1,1.3 c-0.3,1-0.3,2-0.4,3c-0.6,3.5-1.3,7-2.3,10.4c-1.2,3.9-2.8,7.5-5.2,10.8c-2.2,3-5,5.3-8.4,6.9c-0.4,0.2-0.8,0.4-1.2,0.4 c-0.2,0-0.3,0-0.5,0.1c-0.9,1-2.2,1-3.4,1.2c-3.5,0.7-7,0.2-10.4-0.9c-3.3-1-6.5-2.1-9.9-2.7c-0.5-0.2-1-0.2-1.5-0.2 c-0.2,0-0.5,0-0.7,0c-0.5,0-0.9,0-1.4,0.1c-3.6,0.5-6.1,2.6-8.2,5.3c-1.8,2.3-3.2,4.8-4.7,7.2c-2.4,4-5.4,7.2-9.7,9.2 c-0.5,0.2-0.9,0.5-1.5,0.4c-0.1,0-0.2,0-0.2,0.1c-3.3,1.5-6.5,0.8-9.5-0.8c-1.4-0.8-2.6-1.9-3.8-2.9c-0.9-0.7-1.7-1.4-2.8-1.9 c-3.3-1.7-6.3-0.8-8.2,2.4c-1.1,1.7-1.6,3.6-1.9,5.6c-0.2,0.9-0.2,1.9,0,2.8c0.1,0.4,0.1,0.9,0.1,1.4c0,0.5,0,0.9,0.1,1.3 c0.7,5.6,2.4,11.1,3.9,16.5c0.6,2.2,1.3,4.4,1.8,6.6c0.3,1.6-0.5,2.9-1.9,3.2c-0.1,0-0.2,0.1-0.2,0.1c-0.4,0.1-0.8,0.1-1.2,0 c-1.7-0.5-2.9-1.6-4.3-2.6c-2-1.5-3.9-3-5.6-4.8c-3.7-3.8-6.8-8.1-9.1-12.8c-1.9-3.9-3.3-8-4.1-12.3c-0.1-0.6-0.1-1.6-1.2-0.9 c-0.4,0.1-0.8,0.1-1.2,0c-0.7-0.1-1.4-0.4-1.7-1.2c-0.3-0.6-0.8-1.2-1.2-1.7c-0.5-0.6-0.8-1.1-1.5,0c-2.6,4.2-5.6,8.1-9.8,10.9 c-2.2,1.5-4.7,2.6-7.4,2.8c-0.5,0.1-0.9,0.1-1.4,0c-3.4-0.2-6.2-1.7-8.8-3.9c-3.1-2.7-5-6.2-6.6-9.9c-2.5-6-3.9-12.3-5.7-18.5 c-0.9-3.1-1.7-6.2-2.4-9.3c-0.2-0.9-0.5-0.7-0.9-0.4c-1.5,1.3-3.2,2.4-5.1,3c-1,0.4-2.1,0.6-3.2,0.8c-0.4,0.2-0.8-0.1-1.2,0.2 c-0.8,0-1.7,0-2.5,0c-0.4-0.2-0.9,0-1.3-0.2c-4.2-0.6-7.7-2.6-10.7-5.6c-4-3.9-6-8.8-7.3-14.1c-0.4-1.7-0.6-3.4-0.8-5.1 c-0.2-0.4,0.1-0.8-0.2-1.2c0-0.4,0-0.8-0.1-1.2c-0.2-0.5,0-1.1-0.2-1.6C106.2,256.2,106.2,255,106.2,253.8z"/> <path class="st1" d="M163.1,324.4c0.5,0,0.9,0,1.4,0C164,324.7,163.6,324.7,163.1,324.4z"/> <path class="st1" d="M413.1,572.9c-2.8,0.9-5.4,1.6-8.1,2.2c-12.2,2.9-24.6,4.3-37.2,3.8c-12.4-0.4-24.5-2.5-36.3-6 c-21.1-6.1-41.2-14.4-59.9-26.1c-10.2-6.4-19.4-13.9-27-23.3c-6.5-8.1-11.7-17-16.6-26.1c-5.1-9.5-8.5-19.5-10.1-30.1 c-1.3-8.4-1.6-16.9-1.1-25.5c1.1-17.2,5.4-33.7,12.8-49.3c5.4-11.6,12.4-22.2,21.5-31.2c10.2-10.1,22.3-16.8,36-20.9 c9.5-2.9,19.1-4.3,29-4.6c13.7-0.4,27,1.3,40,5.6c11.6,3.8,22.1,9.6,30.8,18.4c8.2,8.3,13,18.3,14.6,29.8c1.6,11,0.5,21.8-1.8,32.5 c-0.3,1.4-0.6,2.8-1,4.2c-0.3,1.4,0.1,2.5,1.2,3c1.2,0.6,2.4,0.3,3.3-0.8c7.7-9.5,17.2-16.8,27.3-23.3c1.7-1.1,3.6-1.9,5.5-2.5 c2-0.7,3.1,0.1,3.3,2.2c0.2,2.6-0.5,5.1-0.9,7.6c-1.9,9.9-4.8,19.6-9.2,28.8c-5.9,12.4-13.8,23.2-23.9,32.5 c-5.1,4.7-10.2,9.4-14.4,14.9c-5.7,7.5-8.7,16.1-9.9,25.4c-1.2,9.4-0.3,18.5,3.2,27.3c3.1,7.8,8,14.5,13.7,20.6 C402.2,566.4,407,570.3,413.1,572.9z"/> <path class="st2" d="M211.7,440.7c-2.6-4-4.6-8.1-6.1-12.4c-2.8-7.8-4.1-16-4.6-24.3c-0.4-6.6-0.3-13.3,0-19.9 c0.2-4.1,1.2-8.3,2.8-10.7c1.7,2.4,3.4,4.8,5,7.2c4.2,6.1,7.9,12.5,11.3,19c0.3,0.6,0.4,1.1,0.1,1.8c-4.3,11.6-6.9,23.6-8.1,36 c-0.1,1-0.1,1.9-0.2,2.9C211.9,440.4,211.8,440.4,211.7,440.7z"/> <path class="st1" d="M230.4,141.2c8.4-0.1,16.8,0.1,25.1,1c11.1,1.2,21.9,3.5,31.9,8.7c12.5,6.6,20,17,23.5,30.5 c1.9,7.3,2.8,14.7,3.3,22.1c0.7,10.7,1.4,21.4,2.3,32.1c0.4,5.1,0.9,10.2,0.4,15.3c-0.1,1.2-0.4,2.3-0.9,3.3 c-0.9,1.9-2.2,2.4-4.1,1.7c-1.1-0.4-2.2-1-3.3-1.5c-3.3-1.5-6.1-0.5-7.8,2.8c-1.2,2.4-1.5,4.9-1.9,7.5c-0.9,5.2-2.1,10.4-4.8,15.1 c-1.6,2.8-3.7,5.2-6.4,7c-4,2.6-8.3,2.5-12.7,1.4c-3.5-0.9-6.9-2.2-10.5-2.8c-7.1-1.2-12.8,1.1-17.1,6.8c-1.9,2.6-3.6,5.4-5.3,8.1 c-1.2,1.8-2.5,3.5-4.1,5c-3.2,3-6.7,3.4-10.5,1.3c-1.9-1-3.6-2.5-5.5-3.7c-5.5-3.7-11.6-2.5-15.4,3c-2.4,3.4-3.2,7.3-3,11.4 c0.3,6.6,2.1,12.8,3.8,19.1c0.1,0.4,0.5,0.8,0,1.1c-0.3,0.2-0.6-0.3-0.8-0.5c-7.6-7.2-12.1-15.9-13.4-26.3 c-0.4-2.8-2.3-3.7-4.7-2.1c-0.5,0.3-0.5-0.1-0.7-0.3c-1.1-1.4-2.1-2.9-3.2-4.4c-1.6-2.2-3.7-2-4.9,0.4c-2,4-4.1,8-7.5,11.2 c-2.1,2-4.4,3.5-7.3,3.7c-2.8,0.2-5.1-0.9-7.1-2.6c-3.1-2.7-4.9-6.3-6.1-10.1c-2.5-7.4-4.2-15-6.3-22.5c-0.8-2.9-1.6-5.8-2.4-8.8 c-0.3-1.1-0.9-1.9-2.1-2c-1.2-0.1-2.2,0.4-2.7,1.5c-3.7,7.3-12,8.9-18.4,3.5c-4.3-3.6-6.5-8.5-7.7-13.9c-1.3-5.7-1.4-11.4-1.1-17.2 c0.5-8.7,1.1-17.5,1.8-26.2c0.6-8.5,1.7-17,3-25.5c0.9-6,1.7-12,3.2-17.9c1.3-4.9,3.1-9.5,6.1-13.7c0.5-0.7,1.1-1.3,2-1.6 c18.2-7.4,36.9-13.1,56.2-16.7c12.2-2.3,24.5-3.7,36.9-4.2C223.5,141.2,227,141.2,230.4,141.2z"/> <path class="st0" d="M279.3,468.7c-5.2,0-9.9-0.4-14.5-1.9c-7.8-2.4-13.2-7.5-17-14.6c-4.9-9.3-6.4-19.2-5.3-29.6 c1.2-11.1,5.4-20.9,12.9-29.3c5.3-5.9,11.9-9.9,19.8-11.2c8.7-1.4,16.7,0.5,24,5.2c7.9,5.1,13.5,12.4,16.5,21.3 c5.7,16.8,3.4,32.6-7,47c-5.2,7.2-12.5,11-21.2,12.4C284.7,468.5,281.8,468.6,279.3,468.7z"/> <path class="st0" d="M282,361.1c-0.6,0-1.1-0.3-1.7-0.7c-7.5-6-19.1-3.2-23.6,4.8c-0.8,1.5-2.2,1.9-3.5,1.1 c-1.4-0.8-1.7-2.2-0.9-3.7c3.5-5.9,8.7-9.2,15.4-10.2c5.8-0.8,11.2,0.6,15.9,4.1c0.9,0.7,1.5,1.4,1.1,2.6 C284.4,360.3,283.3,361.1,282,361.1z"/> <path class="st0" d="M336,365.8c9.4,0,17.8,6.1,20.3,14.9c0.3,0.9,0.5,1.8-0.1,2.6c-0.6,0.9-1.5,1.3-2.6,1.2 c-1.1-0.1-1.7-0.8-2-1.9c-2.3-7.4-8.9-12.3-16.4-11.9c-1.8,0.1-3.5,0.5-5.2,1.2c-1.2,0.5-2.3,0.4-3.2-0.6c-1.3-1.4-1-3.1,0.7-3.9 C330.1,366.3,332.8,365.8,336,365.8z"/> <path class="st0" d="M168.6,215c2.5,0,5.1,0,7.6,0.3c6.1,0.9,11.5,3.2,15.8,7.8c6,6.5,6.8,15.4,1.9,22.9 c-4.6,7-11.2,10.9-19.3,12.8c-6.8,1.5-13.6,1.4-20.5,1.3c-2.6,0-5.3-0.1-7.9,0c-0.4,0-0.7,0.1-1,0.4c-0.9,0.8-1.9,0.9-2.9,0.4 c-1-0.4-1.5-1.2-1.6-2.3c-0.7-8.9-1.3-17.8-1.7-26.8c-0.6-11.1-1-22.2-1.2-33.3c0-1-0.4-2,0-2.9c0.2-0.6,0.5-1.2,1.2-1.4 c3.6-1.1,6.8-3.3,10.4-4.5c5-1.7,10-3.1,15.3-2.9c4.9,0.2,9.2,1.6,12.3,5.6c2.8,3.6,3.1,7.5,1.2,11.6c-1.9,4.1-5.2,7.2-8.7,9.9 c-0.3,0.3-0.7,0.6-1,0.8C168.6,214.8,168.6,214.9,168.6,215z"/> <path class="st0" d="M246.7,226c-8.9-0.1-16.3-7.4-16.2-15.9c0.2-8.7,8.3-16.3,17.1-16.2c7,0.1,14.8,6.1,14.7,16 C262.3,219.2,255.5,226.2,246.7,226z"/> <path class="st0" d="M213,227.6c-8.9,0-16.4-7.3-16.3-15.8c0.1-8.6,8.1-16.4,16.8-16.4c7.3,0,15.1,6.2,15,16 C228.5,220.7,221.8,227.6,213,227.6z"/> <path class="st0" d="M273.6,189.1c0-1.8,0-3.6,0-5.4c0-1.7,0.9-2.6,2.5-2.6c1.6,0,2.5,1,2.6,2.6c0.1,9.8,1,19.6,2.7,29.3 c0.1,0.8,0.2,1.5-0.3,2.2c-0.6,1-1.9,1.5-3,1.3c-1.1-0.2-1.5-1.1-1.6-2.1c-1-5.8-1.8-11.7-2.2-17.6 C274,194.3,273.8,191.7,273.6,189.1C273.6,189.1,273.6,189.1,273.6,189.1z"/> <path class="st3" d="M280,232c-1.5,0-2.5-0.9-2.5-2.5c0-1.5,1-2.6,2.4-2.6c1.4,0,2.4,1,2.4,2.5C282.4,231,281.5,232,280,232z"/> <path class="st4" d="M287,446.2c3.1-1.8,5.9-3.9,8.2-6.5c2.6-3,4.6-6.2,4.8-10.3c0.2-6.2-4.6-12-11-13.2c-2.7-0.5-5.4-0.3-7.9,1 c-2.8,1.4-3.7,3.9-2.7,6.8c0.3,0.8,0.5,1.6,0.7,2.4c0.4,1.8,0.4,1.8-1.4,2c-0.5,0.1-1,0.1-1.6,0.1c-1.6-0.1-2.4-0.9-2.5-2.5 c0-1.6-0.2-3.1-0.4-4.6c-0.8-4.6-4.3-7.7-9-7.7c-5.8-0.1-10.3,3.9-11.2,9.9c-0.8,5.7,1.4,10.3,5,14.4c0.2,0.3,0.5,0.5,0.7,0.8 c0,0.1,0.1,0.1,0.1,0.3c-3.3,0.7-6.4,2-9.4,3.6c-1-3.1-1.7-6.2-1.9-9.4c-1-12.3,2-23.6,9.4-33.6c3.9-5.3,8.8-9.5,15.1-11.7 c7.1-2.5,14-1.5,20.7,1.6c10.7,5.1,17,13.8,19.8,25.1c3.2,12.9,1,25-6.2,36.2c-1.9,3-4.4,5.5-7.3,7.6c-0.5,0.3-0.7,0.6-1.2-0.1 c-1.4-2.3-3-4.4-4.8-6.4C291.2,449.8,289.2,448,287,446.2z"/> <path class="st5" d="M278.9,463.8c-5.6-0.1-11.2-0.7-16.3-3.3c-5.3-2.7-8.7-7.2-11.3-12.5c-0.4-0.8,0.3-0.8,0.6-1 c6.5-3.7,13.4-4.6,20.6-2.5c9.1,2.6,15.7,8.4,20.7,16.2c0.4,0.7,0,0.8-0.4,0.9c-3.9,1.5-8,2-12.1,2.2 C280.1,463.8,279.5,463.8,278.9,463.8z"/> <path class="st6" d="M257.6,425.9c0.1-2.3,0.9-4.4,2.7-6c2.8-2.5,6.7-1.3,7.6,2.3c0.5,1.8,0.4,3.7,0.9,5.5c0.4,1.2,0.8,2.4,1.5,3.5 c1.5,2.5,3.6,4.2,6.6,3.9c3.3-0.3,5.7-2,6.9-5.1c0.6-1.5,0.8-3.1,0.1-4.7c-0.2-0.5-0.3-1-0.4-1.5c-0.2-1.7,0.8-2.9,2.4-2.8 c3.5,0.1,6.3,1.7,8.1,4.7c1.1,1.9,0.9,3.9,0,5.9c-1.8,4.2-5.1,7-8.7,9.6c-2,1.4-3.7,1.8-6,0.5c-4-2.2-8.6-3.2-13.2-3.4 c-0.5,0-0.8-0.2-1.2-0.6c-1.4-1.5-3-2.7-4.3-4.3C259,431.2,257.7,428.8,257.6,425.9z"/> <path class="st2" d="M143.6,223.3c-0.2-5.3-0.4-11.6-0.6-17.9c-0.1-2-0.1-4.1-0.2-6.1c0-0.6,0.1-1,0.7-1.3 c6.1-3.4,12.6-5.3,19.6-5.8c2-0.1,4,0.1,5.9,0.7c4.8,1.6,6.5,6.1,3.9,10.4c-1.5,2.5-3.5,4.4-5.8,6.2c-3.6,2.8-7.5,5.2-11.6,7.1 c-1.6,0.7-2.1,1.5-1.8,2.7c0.4,1.4,1.7,2.3,3.2,2.2c2-0.2,4-0.6,5.9-0.8c5.5-0.7,11.1-1,16.5,0.6c3.1,0.9,6,2.5,8.3,4.8 c4.7,4.7,5.6,10.8,2.3,16.7c-3.4,6-8.8,9.3-15.3,10.9c-4.2,1-8.4,1.3-12.7,1.5c-5.2,0.2-10.5-0.2-15.7,0c-0.8,0-0.7-0.4-0.7-0.9 c-0.3-5.1-0.7-10.2-1-15.3C144.2,234,144,229.2,143.6,223.3z"/> <path class="st2" d="M246.8,220.9c-6,0-11.2-4.9-11.2-10.7c0-5.8,5.8-11.3,11.8-11.3c5.3,0,10,5,10,10.8 C257.5,216,252.7,220.9,246.8,220.9z"/> <path class="st2" d="M223.6,211.3c0,6.3-4.7,11.3-10.6,11.3c-6,0-11.3-5-11.2-10.7c0.1-5.8,5.8-11.4,11.8-11.4 C218.9,200.5,223.6,205.6,223.6,211.3z"/> </g> </svg>