<svg height="64" viewBox="0 0 64 64" width="64" xmlns="http://www.w3.org/2000/svg"><path d="m31.38 45.81a31.42 31.42 0 0 1 -11.09-10.37c-4.53-7.1-5.25-10-4.94-13.75s1.25-7.88 4.34-11.38 10.1-4.59 13.63-4.75 9.4 1.75 12.44 5.44 3.75 9.37 2.09 15.34-4 11.47-6.56 14.82-3.72 3.56-4.38 3.84-3 .78-3 .78l.09 2.22a8.29 8.29 0 0 1 2.1 1.25c.59.63 2.25 2.47 2 3.1a1.32 1.32 0 0 1 -1.69.71 2.18 2.18 0 0 1 -1-1.46 5.94 5.94 0 0 0 -.41-1.76.76.76 0 0 0 -.59-.25 20.14 20.14 0 0 1 -.16 4c-.28.88-.5.82-.5.82v1.65s2.38-.15 2.53.56.29 1.57-.28 1.66-3.18.44-3.22-.09.13-3.44 0-3.47-.85-.22-.85-.06a26.85 26.85 0 0 1 0 3.59c-.16.12-3.84.31-4 0s0-2.13.88-2.28a5.31 5.31 0 0 1 2.25.37l-.16-1.84a7.16 7.16 0 0 1 -.34-2.53 15.81 15.81 0 0 1 .25-2.32 4.32 4.32 0 0 0 -1.54.79c-.43.46-.46.71-.34 1s.25.59 0 .75a1 1 0 0 1 -1.25.21c-.75-.31-.94-.93-.37-1.9a5.37 5.37 0 0 1 2.4-2.06 3.88 3.88 0 0 1 1.56-.47z" fill="#1d1d1b"/><path d="m32.57 46.28c.22 0 .69 0 .72 1.47s.15 5.72-.25 5.84-1.25.25-1.44-.09.25-7.22.97-7.22z" fill="#e6e4da"/><path d="m33.16 43.94a3.74 3.74 0 0 1 -2.65-.5c-1.19-.75-5.44-5-8.88-9.28a19.89 19.89 0 0 1 -4.19-12.91c.13-3.56 2.38-9.28 5.94-11.34a21.45 21.45 0 0 1 13.44-2.19 12.45 12.45 0 0 1 9.59 8.53c1.31 4.16-.94 11.94-2 14.75a49.77 49.77 0 0 1 -3.41 6.5s-.63-1-.79-1-.65.22-.53.35 1 1.15.88 1.37-.94 1.4-.94 1.4-.71-1.11-.8-1.07-.61.14-.45.42.94 1.15.81 1.37a3.24 3.24 0 0 1 -.68.78c-.19.13-1.22-1.26-1.32-1.26s-.4 0-.47.22 1.1 1.64 1 1.83a5.75 5.75 0 0 1 -1.15 1l-.25.1a25 25 0 0 0 -1.55-2.23c-.13 0-.69.19-.6.41s1.49 2 1.34 2.13a6.7 6.7 0 0 1 -1.25.5s-.99-1.82-1.18-1.82-.66.19-.63.34.72 1.6.72 1.6z" fill="#e6e4da"/><g fill="#1d1d1b"><path d="m21.72 15.41a5.47 5.47 0 0 1 1.19-2.41c1.1-1.44 2.13-1.75 2.31-1.69s.41.81.35.91-1.66.84-2 1.69-.47 1.65-.75 1.81a1 1 0 0 1 -1.1-.31z"/><path d="m36 36.59a5.4 5.4 0 0 1 -2.61.75c-1.8.15-2.72-.4-2.8-.58s.33-.85.44-.86 1.74.66 2.6.35 1.54-.77 1.84-.66a1 1 0 0 1 .53 1z"/><path d="m24.13 20.13c1.42-.17 5 1.18 6.91 5.09s-.13 6-2.19 5.94-4.09-.6-6.44-3.47-2.22-5.28-1.53-6a4.87 4.87 0 0 1 3.25-1.56z"/><path d="m39.76 20.13c1.56-.79 5-.25 4.62 3.37a7.35 7.35 0 0 1 -5.38 6.38c-2.44.65-4.63.5-4.85-1.91s.73-5.41 5.61-7.84z"/></g><path d="m0 0h64v64h-64z" fill="none"/></svg>