<svg height="64" viewBox="0 0 64 64" width="64" xmlns="http://www.w3.org/2000/svg"><path d="m10.53 37.52a3.27 3.27 0 0 1 -3.82-.22c-1.9-1.53-1.09-3.53 0-4.62s4.28-1.1 5 .62a2.85 2.85 0 0 1 0 2.69l11.32 8.75a2 2 0 0 1 1.25-.53 3.44 3.44 0 0 1 1.34.12l6.56-12.59a3.06 3.06 0 0 1 .57-3.25 2.78 2.78 0 0 1 4.25.31 2.41 2.41 0 0 1 .15 2l8.72 6.87 7.91-18.9a3.68 3.68 0 0 1 -.78-2.59 2.62 2.62 0 0 1 3.21-2.44 2.85 2.85 0 0 1 1.91 4.09 3.79 3.79 0 0 1 -2.78 1.81l-7.5 17.82a2 2 0 0 1 .94 2.62 2.71 2.71 0 0 1 -4.1 1.25c-1-.81-.28-2.75-.28-2.75l-8-6.5a3.06 3.06 0 0 1 -1.28.56 4.47 4.47 0 0 1 -1.81-.06l-6.25 12.42s1.68 2.4-.07 4.31a2.84 2.84 0 0 1 -4.65-.5 4.09 4.09 0 0 1 -.6-2.41z" fill="#1d1d1b"/><path d="m8.15 33.27a2 2 0 0 1 2.78 1.41 2 2 0 0 1 -2.72 2.15 1.86 1.86 0 0 1 -.06-3.56z" fill="#cbe7f5"/><g fill="#ffe19b"><path d="m24.18 45.71a1.65 1.65 0 0 1 2.32 1.18 1.7 1.7 0 0 1 -2.27 1.8 1.55 1.55 0 0 1 -.05-2.98z"/><path d="m34.13 29a1.37 1.37 0 0 1 1.94 1 1.43 1.43 0 0 1 -1.9 1.51 1.3 1.3 0 0 1 -.04-2.51z"/><path d="m55.16 15.16a1.53 1.53 0 0 1 2.16 1.1 1.59 1.59 0 0 1 -2.11 1.67 1.44 1.44 0 0 1 -.05-2.77z"/></g><path d="m46.11 38.49a1.17 1.17 0 0 1 1.65.83 1.21 1.21 0 0 1 -1.61 1.28 1.1 1.1 0 0 1 -.04-2.11z" fill="#cbe7f5"/></svg>