<svg height="64" viewBox="0 0 64 64" width="64" xmlns="http://www.w3.org/2000/svg"><g fill="#1d1d1b"><path d="m31 7.16c.42-.27 1.31.87 1.18 1.22s-13.4 12.78-17.31 16.34a28.69 28.69 0 0 0 -7.12 11.06c-.75 2.35-1.53 7.85 1.47 12.56s7.09 7.13 10.43 7.72 6.47.5 11.63-3.9a261.43 261.43 0 0 0 18.56-18.44c3.28-3.78 7.81-8.06 8.19-8s1 1.09.81 1.25-19.19 19.44-23.09 23.22-9.16 7.9-13.07 7.87-8.81-.87-12.18-4.59-5.6-7.53-5.35-12.75a24.43 24.43 0 0 1 4.44-12.63c2-2.75 18.59-19.15 21.41-20.93z"/><path d="m27.9 23c-.12-.54 17.82-17 18.28-17s1 1 .94 1.22-18 16.68-18.34 16.75-.78-.72-.88-.97z"/><path d="m36.06 24.66c0-.31 18.19-17 18.56-17.1s1 .94.94 1.16-18.25 17.06-18.56 16.97-1-.81-.94-1.03z"/><path d="m36.22 34.94c0-.42 15.71-15.35 15.93-15.28s1.13 1 .91 1.34-15.69 15.13-15.88 15.13-1-.88-.96-1.19z"/><path d="m11.09 34.75c.17-.12 1.63-.12 1.53.22a9.19 9.19 0 0 0 2.44 10.44c5 4.43 9.5 4.84 10.53 4.93s1.72.25 1.84.44.19 1.41-.21 1.5-8.57-.28-12.57-4.09-4.65-8.25-4.4-10.06.56-3.19.84-3.38z"/><path d="m14.37 36.09c.27-.42 5.75-4.75 5.91-5.09s1.34-6.91 2.06-7.37 5.41 4.46 5.81 4.5 7.75.25 8.41.93-3.06 6.32-3 6.53 3.34 7.94 3 8.47-8.1-1.93-8.41-1.68-4.84 4-5.09 4.12-1.25.34-1.38-1.28-.68-7.22-.96-7.38-4.22-.28-5-.4-2-.31-1.35-1.35z"/></g><path d="m17.15 35.63c-.12-.27 4.88-3.85 4.91-4s.81-5.71 1.28-5.75 3.94 4.03 4.56 4.12 6.82 0 6.69.38-2.75 4.87-2.84 5.28 2.37 6.37 2.18 6.5-5.71-1.69-6.28-1.53-3.84 3.53-4.09 3.37-.75-6.63-1-7a1.63 1.63 0 0 0 -1.37-.69c-.63-.12-3.88-.31-4.04-.68z" fill="#fab900"/><path d="m23.68 28.31c.21-.27.82-.15.82.16s-.28 3.94-.57 4-.81.16-.87-.13a23 23 0 0 1 .62-4.03z" fill="#1d1d1b"/><path d="m28.37 34c.21-.1 1.75.41 1.78.69s0 .78-.12.78a7.41 7.41 0 0 1 -1.72-.53c-.09-.16-.06-.88.06-.94z" fill="#1d1d1b"/><path d="m28.25 36.22a6.22 6.22 0 0 1 2 .59c.25.28.53.85.28.94a8.6 8.6 0 0 1 -2.41-.59c-.12-.16-.12-.91.13-.94z" fill="#1d1d1b"/><path d="m28.09 38.13a12.18 12.18 0 0 1 2.91 1.12c.12.19.43.84.15.84a27.14 27.14 0 0 1 -3-.87c-.15-.09-.25-1.06-.06-1.09z" fill="#1d1d1b"/></svg>