<svg height="64" viewBox="0 0 64 64" width="64" xmlns="http://www.w3.org/2000/svg"><path d="m36.25 6.48c.75-.15 1.93.94 2.75 1.52s4 2.63 4.18 4.13-.84 3.62 1 4.75 4.25 2.81 4.25 4.25-1 4.34.38 5.34 2.34 1.1 2.94 3-1 5.6-1.1 6.19a2.41 2.41 0 0 0 .78 1.69 3.18 3.18 0 0 1 .35 4c-1.28 2-2.72 3.28-2.44 3.91a5.18 5.18 0 0 1 0 3.5c-.53 1-4.22 4.43-6.19 6.06s-2.16 2-2.87 2.19a20.33 20.33 0 0 1 -13.6-1.82c-6.37-3.47-11.12-8-13.4-14.84s-1.88-11.06-.32-15.78 5.66-9.38 9.25-12.41 11.19-5.16 14.04-5.68z" fill="#1d1d1b"/><path d="m36.37 7.86c.19 0 3.41 3.28 4.19 3.75s1 .78 1 1.37a11.82 11.82 0 0 0 -.19 3 7.12 7.12 0 0 0 .25 1.13 3.31 3.31 0 0 0 -.94 2.31c0 1.5.35 2.31 1.38 2.44a2.62 2.62 0 0 0 2.12-.94 3.29 3.29 0 0 0 .69-1.19s1.56 1.13 1.69 1.88-.82 4.43 0 5.12 3.44 2.75 3.5 3.53a9.73 9.73 0 0 1 -.38 2.35 2.9 2.9 0 0 0 -2.31 1.28 6.66 6.66 0 0 0 -1.28 3.65c0 .91-.28 1.82.53 3s1.19 1.29 1.53 1.47.85.41.85.41a14.89 14.89 0 0 0 -1.66 2.41c0 .37.47 2.18.28 2.78a2.8 2.8 0 0 1 -.81 1.09s-.13-.78-1.25-.62a2.85 2.85 0 0 0 -2.13 1.4c-.15.44.66 2.16.35 2.56a8 8 0 0 1 -4.07 2.79 26 26 0 0 1 -5.87.18c-.84-.09-1.59-.12-1.59-.12a19 19 0 0 0 -2.66-4.13c-1.09-.93-2.81-.76-3.59-.76a21.44 21.44 0 0 1 -3.06.19 27.8 27.8 0 0 1 -7-9.25 21.49 21.49 0 0 1 -1.5-15.25c1.41-5.15 6.09-10 9.5-12.56a39.59 39.59 0 0 1 12.43-5.27z" fill="#e6e4da"/><path d="m42.25 18.2a8.3 8.3 0 0 1 1.46 1 2.92 2.92 0 0 1 -.71 1.25c-.44.31-1 .66-1.32.22s-.06-2.38.57-2.47z" fill="#fff"/><path d="m30.59 20.29c2.5-.36 4.59 1.72 5.44 4.94a5.3 5.3 0 0 1 -4.44 6.6 6.1 6.1 0 0 1 -6.63-4c-1.03-2.72.5-6.83 5.63-7.54z" fill="#1d1d1b"/><path d="m30.56 22c1.44-.09 3.25.72 3.72 3.44s-1 4.28-2.63 4.53-3.94 0-4.72-2.41.07-5.39 3.63-5.56z" fill="#fff"/><path d="m21.31 19.11c.23-.07.72.75.72.75a9.54 9.54 0 0 0 -2.75 3.56c-1 2.28-1 3.41-1.22 3.53s-.88.06-.88-.09a9.51 9.51 0 0 1 1.28-4c1.16-1.97 1.88-3.47 2.85-3.75z" fill="#1d1d1b"/><path d="m19.25 33.54c1.52-.46 2.12 1.07 2.06 2.1a1.89 1.89 0 0 1 -2.56 1.59c-1.29-.56-2.35-2.81.5-3.69z" fill="#1d1d1b"/><g fill="#fff"><path d="m19.28 34.45c.53-.31 1.22.34 1.06 1.06a.91.91 0 0 1 -1.34.72c-.63-.23-1-1.03.28-1.78z"/><path d="m49.06 33.51c.21-.13.44.28.31.66s-.94 1.28-.59 2.34 1.34 1.91 1.43 2.75.16 1-.06 1.44-.31.81-.56.81a2.93 2.93 0 0 1 -2.34-1.93c-.47-1.58-.57-4.58 1.81-6.07z"/><path d="m44.46 49.48a1.74 1.74 0 0 1 1.5-.62c.16.09.29 0 .22.25a6.75 6.75 0 0 1 -1.06 1.47c-.31.28-.47.65-.59.43a2.31 2.31 0 0 1 -.07-1.53z"/><path d="m24.71 51.33a4.35 4.35 0 0 1 3.94.21c1.31 1 2.72 3.22 2.35 3.29a7.68 7.68 0 0 1 -3.88-1.54c-1.81-1.29-2.5-1.81-2.41-1.96z"/></g><path d="m25.25 40.79c.25.19 1.75 3 1.56 3.19s-.19.31-.35.22a16.12 16.12 0 0 1 -1.84-3c.09-.2.63-.41.63-.41z" fill="#1d1d1b"/><path d="m23.37 41.79a18 18 0 0 1 1.91 3.72c-.16.16-.35.41-.44.32a27.79 27.79 0 0 1 -2.19-3.83 1.08 1.08 0 0 1 .72-.21z" fill="#1d1d1b"/><path d="m20.53 42.61c0-.21 1-.32 1.15-.19a25.06 25.06 0 0 1 1.75 3.72c-.06.15-.09.4-.34.28a24.18 24.18 0 0 1 -2.56-3.81z" fill="#1d1d1b"/></svg>