<svg height="64" viewBox="0 0 64 64" width="64" xmlns="http://www.w3.org/2000/svg"><path d="m41.48 6.07c.66 0 1.31.63.88 1.13s-1.94.65-1.75 2.09.65 3.56-.69 5-2.53 1.37-2.84 2.59 1 3.06.31 4.44-2.13 1.75-2.85 3.68 1.07 2.68 1 4-1.09 3.54-1.21 4.5a3.08 3.08 0 0 0 1 3.22c1.25.94 3 1.44 3.06 3.13s-.78 2.94 0 4.65a5.43 5.43 0 0 0 2.31 2.72c.69.44 1.56.38 1.66 2.13s-.19 2.65.5 3.84a12.57 12.57 0 0 0 1.62 2.41c.13 0 .81-.44 1.19.06s-.31 2.28-.72 2.34-10.78.19-16.84-5.18-8.32-12.34-9.57-17.62 1.32-12.2 3.46-15.97 6.79-8.63 11-10.66 6.89-2.5 8.48-2.5z" fill="#1d1d1b"/><path d="m38.77 8.22c.19 0-.2.83 0 1.81a3.41 3.41 0 0 1 -.77 3.58c-1.29 1.52-3.16 2-3.06 3.88s1.06 2.56.06 3.79-3 2.72-3.08 4.72 1.37 2.23 1.44 3.39-1.36 3.61-1.15 5.31a4.89 4.89 0 0 0 1.79 3.54c1.09 1 2.42 1.14 2.44 2.25s-1.25 2.93.25 5.25 3.58 3 3.77 3.68-.12 2.61.4 3.61a8.33 8.33 0 0 1 .91 2.39 19.7 19.7 0 0 1 -3.39-.42c-.11-.21 0-2.82-1.77-3.57s-3.07-.89-3.82-1.45-1.16-1.09-2.27-1.07-2.18.36-2.68.32-2-1.63-4.5-6.82a27.73 27.73 0 0 1 -3-12.06c.08-2.25 1.85-7.15 3.43-9.85a27.87 27.87 0 0 1 6.23-7.5 29.32 29.32 0 0 1 8.77-4.78z" fill="#e6e4da"/><g fill="#1d1d1b"><path d="m34 12.66c.32 0 .85.66.29 1s-.91.18-1.1-.13.01-.9.81-.87z"/><path d="m27.51 18.45c.21-.06.66.09.57.34a21.2 21.2 0 0 0 -2.54 4c-.81 2-.9 3.28-1.21 3.34s-1.1-.12-1.07-.25a37.68 37.68 0 0 1 1.41-3.62c.78-1.75 2.33-3.66 2.84-3.81z"/><path d="m25.29 31.2a2.29 2.29 0 0 1 2.71 2.62 2.46 2.46 0 0 1 -3.83 2.18c-1.56-.87-2.17-3.9 1.12-4.8z"/></g><path d="m25.2 32.2a1.21 1.21 0 0 1 1.8 1.21c.06 1.32-.5 2-2.16 1.38s-1.05-2.09.36-2.59z" fill="#fff"/><path d="m29.51 40c.1 0 2.13 3.12 2 3.43s-.25.66-.4.41-2.47-3.16-2.35-3.41a1.06 1.06 0 0 1 .75-.43z" fill="#1d1d1b"/><path d="m27.54 40.85c.13 0 2.66 3.35 2.47 3.63s-.37.5-.47.43a35.14 35.14 0 0 1 -2.71-3.62 3 3 0 0 1 .71-.44z" fill="#1d1d1b"/><path d="m25.86 42a23.7 23.7 0 0 1 2.72 3.78c0 .19-.32.37-.41.34a38.71 38.71 0 0 1 -3-3.72 1.29 1.29 0 0 1 .69-.4z" fill="#1d1d1b"/><path d="m28.83 50.2c.05-.12 1.75-.72 2.25-.35s.81 1.19 2.18 1.53 2.6.63 3.13 1.32.94 1.9.72 2a16.73 16.73 0 0 1 -4.82-1.78 11 11 0 0 1 -3.46-2.72z" fill="#fff"/></svg>