<svg height="64" viewBox="0 0 64 64" width="64" xmlns="http://www.w3.org/2000/svg"><path d="m32.3 56.84c-.75 0-1.52 0-2.27-.11-9-.89-13.39-3.06-18.22-9-4.35-5.31-5.06-13-5.17-16.84a21 21 0 0 1 4.92-14.61c4.37-5.05 7.91-8.63 21.33-9.14 4.7-.18 10.6.52 16.72 6.49 7.21 7 7.57 12.29 7.75 18.31a22.93 22.93 0 0 1 -6.46 16.67c-3.15 3.07-9.75 8.23-18.6 8.23z" fill="#1d1d1b"/><g fill="#e6e4da"><path d="m19.47 12.31a9.85 9.85 0 0 1 2.92-1.8 8.59 8.59 0 0 1 3.43-.85 2.77 2.77 0 0 1 .18 1.21c-.09.15-2.08.6-3.49 1.29s-2 1.26-2.28 1.2-1-.87-.76-1.05z"/><path d="m28.94 9.33a22.87 22.87 0 0 1 3.16-.15c1 0 2 .12 2 .39s0 .75-.24.81-2.1-.09-2.76 0a14 14 0 0 1 -2.29.16c-.08-.06-.11-1.12.13-1.21z"/><path d="m38.14 10.38a12.56 12.56 0 0 1 2.08.55c.57.18 2.37 1.05 2.37 1.32s-.33.87-.48.81a7 7 0 0 0 -2.31-1.29 11.06 11.06 0 0 1 -2-.27c-.05-.09.07-1.05.34-1.12z"/><path d="m45.51 14.05a29.23 29.23 0 0 1 2.88 1.45 3.37 3.37 0 0 1 1.54 1.5c0 .18-.18.66-.33.66s-2.11-1.68-2.86-2a16.5 16.5 0 0 1 -1.74-.66 8.17 8.17 0 0 1 .51-.95z"/><path d="m52 19.55a8.09 8.09 0 0 1 1.35 2.35c.24.63.49 1.29.18 1.38s-.87 0-.93-.12a5.41 5.41 0 0 0 -.78-2c-.48-.45-1-.84-.87-1.09a1.24 1.24 0 0 1 1.05-.52z"/><path d="m51.85 24.81c.2-.22 1.38-.15 1.41.09s0 1.93.33 2.23.94.6.91 1 .06.66-.15.75-1-.3-1.33-.36-.51-.45-.66-.72-.81-2.65-.51-2.99z"/><path d="m53.38 32.27c0-.45 1.84-.27 1.93.12s-.15 4.54-.51 4.6-1.72.18-1.72-.06.3-4.48.3-4.66z"/><path d="m52.12 39.54c.15-.21 1-.6 1.38-.3s.24 1.21-.18 2-1.08 1.76-1.47 1.82-1.23-.27-1-.57.63-1 .9-1.47.19-1.2.37-1.48z"/><path d="m48.45 45.83a.93.93 0 0 1 1 .33c.15.33-.15.78-.36 1a15.62 15.62 0 0 1 -2.38 2.1c-.9.58-1.11.82-1.32.76s-.81-.24-.51-.67 1.62-1.23 2.16-1.8 1.26-1.55 1.41-1.72z"/><path d="m41.12 51.84c.31-.18 1.05 1 .66 1.35a12.88 12.88 0 0 1 -4.12 1.54c-1.68.27-2.28.27-2.37.09s-.12-1.15.18-1.24 2-.48 3-.78 2.44-.8 2.65-.96z"/><path d="m23.77 51.78a6.62 6.62 0 0 0 2.44 1.08c1.23.18 2.46.36 2.49.63s-.06 1.21-.27 1.27a9.26 9.26 0 0 1 -3.36-.67c-1.87-.63-2.17-.9-2.14-1.14s.69-1.23.84-1.17z"/><path d="m15.66 46.13c.56 0 1 1.44 2 2.19s1.9.72 1.83 1.11-.57 1.36-1 1.39-1.49-1.02-2.65-1.82-1.72-1.62-1.54-1.86a8.82 8.82 0 0 1 1.36-1.01z"/><path d="m9.34 37.44c0-.19 1.6-.84 1.78-.51s-.27 1.44.27 2.7 1.2 1.54 1 2a1.57 1.57 0 0 1 -1.53.69 7.77 7.77 0 0 1 -1.33-2.4 7.09 7.09 0 0 1 -.19-2.48z"/><path d="m8.5 29.92a9.67 9.67 0 0 1 .5-3.24c.48-1.5.69-1.9.91-2s1.32 0 1.41.58-.66 1.77-.78 3 0 1.69-.21 1.81-1.74.07-1.83-.15z"/><path d="m11 20.82a13.62 13.62 0 0 1 2-3.58 3.43 3.43 0 0 1 2.45-1.24c.27.15.75.69.45.9a6.73 6.73 0 0 0 -2.29 2c-.78 1.23-.9 2.08-1.14 2.2a3.63 3.63 0 0 1 -1.47-.28z"/><path d="m14.94 24.24a10.34 10.34 0 0 1 1.06-2.91 7.45 7.45 0 0 1 1.71-2.26c.27 0 .78.24.66.42a8.81 8.81 0 0 0 -1.87 2.71c-.48 1.38-.48 1.95-.66 2.16s-.78-.18-.9-.12z"/><path d="m13.76 32.63c.25-.17.69.15.6.33a1.86 1.86 0 0 0 -.45 1.17c.06.57.3.69.15.76s-.81 0-.9-.16a1.88 1.88 0 0 1 .6-2.1z"/><path d="m15.66 32.51a1.4 1.4 0 0 1 .9.27c.15.18.15.57-.09.63a1.75 1.75 0 0 1 -.9-.09c-.15-.09-.18-.81.09-.81z"/><path d="m17.4 34.13c.07-.09.54-.06.54 0a3.75 3.75 0 0 1 -.27 1.24c-.24.57-.45.84-.63.9s-.6-.12-.51-.24.45-.72.6-1 .12-.69.27-.9z"/><path d="m14.15 35.91c.08-.11.48-.15.48-.15s0 .81.37.81 1.11 0 1.2.09.3.15.06.33a1.94 1.94 0 0 1 -1.72.15 1 1 0 0 1 -.39-1.23z"/><path d="m18.9 42.82a5.86 5.86 0 0 0 1.63 2.65c1.56 1.53 1.95 1.53 1.92 1.77s-.12.39-.36.42a6.93 6.93 0 0 1 -2.74-2.16c-1.08-1.33-1.26-2.23-1.11-2.41a1.49 1.49 0 0 1 .66-.27z"/><path d="m20.32 42.58c0-.1.42-.33.63-.15a7.07 7.07 0 0 0 1.26 1.77c1 1 1.32.91 1.35 1.21s.06.57-.21.57a7.61 7.61 0 0 1 -2.22-1.78 3.07 3.07 0 0 1 -.81-1.62z"/><path d="m22.39 42c-.07-.11.39-.45.51-.33a3.89 3.89 0 0 0 .75 1.14c.48.39.69.48.69.6a2.16 2.16 0 0 1 -.3.54s-.72-.63-1.05-1a4 4 0 0 1 -.6-.95z"/><path d="m27.68 38.67c.25 0 .84.27.66.54s-.78.09-.78.73.21.72.06.93-.54.33-.66.21-.6-.84-.39-1.32a1.66 1.66 0 0 1 1.11-1.09z"/><path d="m30.3 38.76c.42 0 .81.51.45.69s-.75.28-.9.06a.51.51 0 0 1 .45-.75z"/><path d="m28.16 42.58c.17.09-.24.54.24 1s.94.12 1 .42.15.63 0 .67a1.41 1.41 0 0 1 -1.45-.4 1.9 1.9 0 0 1 -.57-1.71c.12-.19.62-.07.78.02z"/><path d="m30.24 42.58c0-.15.51-.12.6-.36s.06-1.44.15-1.47.66-.15.75.09a2.94 2.94 0 0 1 -.36 1.71c-.33.57-.45.66-.66.66s-.45-.48-.48-.63z"/><path d="m37.27 45.44c-2.34 1.29-1.08 3.18.18 3.15a2.3 2.3 0 0 0 2-2.37c.05-1.08-1.62-1.09-2.18-.78zm1.38 1.41c-.27.87-.93 1.23-1.56.81s-.3-1.47.72-1.68c.63-.13 1.11.02.84.87z"/><path d="m49.93 31.73c.29.07 2 .84 2 1s.09.69-.3.69a5.08 5.08 0 0 1 -1.89-1c-.08-.12.07-.72.19-.69z"/><path d="m49.45 33.59c.12 0 2.43 1 2.4 1.36s-.06.81-.18.78a14.5 14.5 0 0 1 -2.52-1.36c0-.18.06-.75.3-.78z"/><path d="m49 36.78a10.1 10.1 0 0 1 2.13 1.47c0 .21 0 .6-.3.51a10.87 10.87 0 0 1 -2.08-1.23c0-.12.13-.78.25-.75z"/><path d="m41.84 33.92c-.11-.1.24-.48 1.2-.72s1.6-.33 1.66-.12.09.66-.06.72a2.5 2.5 0 0 0 -1.39.24c-.57.39-.66.54-.87.57s-.48-.61-.54-.69z"/><path d="m40.1 36.21c.12-.09.81 0 .78.18s-.6.36-.42 1.29.48 1.23.42 1.41-.57.3-.69.24a2.75 2.75 0 0 1 -.54-1.44 3.54 3.54 0 0 1 .45-1.68z"/><path d="m46.86 36.09c.09-.16.6-.15.69 0s.66 2.43.36 2.46-.81.06-.78-.09-.36-2.22-.27-2.37z"/><path d="m44.76 40.9c.27 0 .75.18 1.23 0s.51-.57.78-.57.45.09.39.21a2.67 2.67 0 0 1 -1.16 1.08c-.75.36-1.05.42-1.26.21s-.16-.9.02-.93z"/><path d="m41.6 40.42c.17.08 0 .66.54.87s.84 0 .9.15.3.69.06.78a2.77 2.77 0 0 1 -1.8-.22c-.39-.33-.57-1-.39-1.23s.57-.41.69-.35z"/><path d="m19.93 23.37c-.08-.17.27-1 1.2-1.62s1.32-.87 1.65-.72.6.54.48.6-1.2.42-1.53 1-.12.9-.6 1.05a1.2 1.2 0 0 1 -1.2-.31z"/><path d="m19.47 25.51c.15-.11 1.51-.09 1.54.12s-.42 1.26-.09 1.62.75.24.72.6-.6 1-.84.9a2.67 2.67 0 0 1 -1.3-.9c-.24-.45-.39-2.07-.03-2.34z"/><path d="m25.61 20.64c.42 0 1.59.72 1.59 1.17s-.09.66-.27.66-1-.42-1.38-.48-.66 0-.63-.3.18-1.08.69-1.05z"/><path d="m28.76 23.67c.14-.24 1.21-.21 1.3 0a3.48 3.48 0 0 1 0 1.84.53.53 0 0 1 -.79.15c-.15-.15-.72-1.66-.51-1.99z"/><path d="m29.61 27.37c.18.06.84.33.51.6a13.59 13.59 0 0 1 -1.78 1.23c-.66.36-.75.48-.9.45s-.54-.39-.39-.48 1-.78 1.47-1.08z"/><path d="m22.93 29.14c.24 0 .72.72 1.38.78s1.15-.12 1.15.07-.06.69-.39.84a3 3 0 0 1 -2 0c-1-.27-1.2-.48-1.14-.72s.7-.97 1-.97z"/><path d="m35.92 19.4a1.67 1.67 0 0 1 .51-1.56c.72-.57 1.2-.69 1.5-.54s.42.72.21.78-.72-.21-1.08.3-.06.78-.3 1a.84.84 0 0 1 -.84.02z"/><path d="m36.55 21.39c.08-.26.81-.27.9-.15s0 .63.42.87.66 0 .66.3.06.45-.18.54a1.69 1.69 0 0 1 -1.41-.33 1.61 1.61 0 0 1 -.39-1.23z"/><path d="m40.22 17.54c.2-.23.75-.09.93.42s-.45.69-.81.54-.34-.72-.12-.96z"/><path d="m40 21.36a1.89 1.89 0 0 0 .69-.27c.21-.18.12-.51.45-.36s.51.36.45.66-.51.51-.87.69-.51.33-.63.12-.17-.81-.09-.84z"/><path d="m46.11 18.8c.14.14 2.55 1.57 2.52 1.84s0 .48-.45.42a9.78 9.78 0 0 1 -2.43-1.63c-.03-.15.25-.75.36-.63z"/><path d="m45.42 20.64c.2-.21 2.49 1.56 2.37 1.86a.63.63 0 0 1 -.51.33 28.11 28.11 0 0 1 -2.4-1.62c0-.12.36-.39.54-.57z"/></g></svg>