<svg height="64" viewBox="0 0 64 64" width="64" xmlns="http://www.w3.org/2000/svg"><path d="m32.05 6.08c4-.25 8 2.41 14.41 7.06s7.9 7.5 7.9 8.66-.87 2.53-.22 3.66 3.16 3.15 3.25 6.72-1.81 8-4 12.59-3.09 6.69-6.28 9.16-7.06 3.4-11.53 3.84-10.25.09-14.25-2a36.18 36.18 0 0 1 -11-10.31c-2.28-3.46-3.53-9.46-3.72-15s3-10.35 5.94-13.75a38 38 0 0 1 10.34-8.38 23.79 23.79 0 0 1 9.16-2.25z" fill="#1d1d1b"/><path d="m31.58 7.61c3.64-.67 6.91 2.1 11.25 5s9.41 8.47 9.34 9.13-1.09 2.26-.17 3.78 2.68 3.56 2.93 5.12a14.38 14.38 0 0 1 .19 2.72s-2.69-2.12-2.78-2.09-.53.47-.31.62 3 2.07 3 2.41a8.1 8.1 0 0 1 -.28 1.75c-.1.09-3.41-2.16-3.53-2.16s-.63.35-.44.66 3.72 2.19 3.72 2.47a4.83 4.83 0 0 1 -.6 1.62 30.22 30.22 0 0 0 -3.21-2.34c-.19.13-.5.59-.38.75s3.41 2.19 3.34 2.41-.56 1.34-.56 1.34a30.74 30.74 0 0 0 -2.65-2.12c-.16 0-.5.65-.38.81a23.23 23.23 0 0 1 2.63 2c0 .25-2.13 4.53-3.13 6.56a13.22 13.22 0 0 1 -5.12 5.28c-2.19 1.25-4.25 2-8.57 2.32a37.87 37.87 0 0 1 -8.15-.25 9.77 9.77 0 0 1 -1.5-.25s-1.38-3.47-3.32-3.75a22.79 22.79 0 0 0 -4.34-.1 33.41 33.41 0 0 1 -5.5-5.4c-2-2.72-4.12-9.1-4.31-12.25a20.53 20.53 0 0 1 2.75-12.19 29.26 29.26 0 0 1 20.08-13.85z" fill="#e6e4da"/><path d="m48.3 19a9.57 9.57 0 0 1 2.22 2.53c0 .22-.06.59-.31.44s-2.35-2.35-2.35-2.35.14-.62.44-.62z" fill="#1d1d1b"/><path d="m47.24 21.05a13.81 13.81 0 0 1 3 3c0 .31-.13.47-.25.44s-3.19-2.72-3.29-2.84.41-.47.54-.6z" fill="#1d1d1b"/><path d="m46 35.14c2-.42 3.34 1.72 3.43 4.16s-2.4 4-4.87 4.34-3.28-2-3.06-3.84 1.17-3.97 4.5-4.66z" fill="#1d1d1b"/><path d="m46 36.08c1.2-.26 2.59.66 2.71 2.6s-.56 2.68-2.09 3.5-3.06.93-3.78-.16a4.31 4.31 0 0 1 3.16-5.94z" fill="#fff"/><path d="m39 49.18a1.73 1.73 0 0 1 1.9 2.15 2.85 2.85 0 0 1 -3.43 2.35c-1.67-.25-2.39-3.68 1.53-4.5z" fill="#1d1d1b"/><path d="m38.89 50c1.1-.28 1.72.9 1.1 2s-2.16 1.43-2.69.68-.38-2.22 1.59-2.68z" fill="#fff"/><path d="m19.86 52.14a5.8 5.8 0 0 1 3.47.5c1.28.85 2 2.38 1.66 2.38a18.37 18.37 0 0 1 -3.13-1.34c-1.22-.6-2.22-1.54-2-1.54z" fill="#fff"/><g fill="#1d1d1b"><path d="m20.33 41.36c0 .28 2.53 3.91 2.41 4s-.19.35-.38.22a28.17 28.17 0 0 1 -2.81-3.78 4.08 4.08 0 0 1 .78-.44z"/><path d="m18.27 42.27a22.6 22.6 0 0 1 2.84 4c-.09.22 0 .31-.28.28a25 25 0 0 1 -3.25-3.87c.06-.13.47-.47.69-.41z"/><path d="m16.86 43.64c.27 0 2.66 3.16 2.47 3.38a.61.61 0 0 1 -.53.25 20 20 0 0 1 -2.69-3.09c0-.18.47-.54.75-.54z"/><path d="m29.89 40.11a2 2 0 0 1 2.28 2.6c-.53 1.68-2.28 1.65-3.34.75a1.91 1.91 0 0 1 1.06-3.35z"/></g><path d="m30 40.84a1.26 1.26 0 1 1 -.67 2.1 1.2 1.2 0 0 1 .67-2.1z" fill="#fff"/><path d="m15.39 34c.75-.27 2.53-.34 3.22.94s-1.37 3.5-2.59 3.75a1.77 1.77 0 0 1 -2.31-1.53c.03-1.02.75-2.8 1.68-3.16z" fill="#1d1d1b"/><path d="m15.67 34.77a1.82 1.82 0 0 1 2.16.63c.47.86-.92 2.35-1.74 2.52a1.2 1.2 0 0 1 -1.56-1c.02-.72.47-1.92 1.14-2.15z" fill="#fff"/><path d="m26.46 21.08c2.68-.34 5.68.16 6.4 4s-1.69 7.41-6.25 7-6.09-3.34-5.75-6.65 3.88-4.13 5.6-4.35z" fill="#1d1d1b"/><path d="m26.6 22.88c1.8-.22 3.82.11 4.3 2.71s-1.13 5-4.19 4.7-4.09-2.24-3.86-4.47 2.6-2.82 3.75-2.94z" fill="#fff"/><path d="m17 20.71c.12-.05.9.43.78.62a6.78 6.78 0 0 0 -2.92 3.67c-.75 2.56-.72 3.12-.94 3.16s-.75-.07-.75-.16a23.31 23.31 0 0 1 1-3.44c.5-1.32 1.94-3.56 2.83-3.85z" fill="#1d1d1b"/><path d="m39.08 17.11c1.34-.33 2.88 1 2.47 3.35s-3.5 2-4.53.78-.35-3.53 2.06-4.13z" fill="#1d1d1b"/><path d="m39.08 18c.86-.22 1.84.66 1.58 2.14s-2.24 1.3-2.9.5-.22-2.24 1.32-2.64z" fill="#fff"/></svg>