<svg height="64" viewBox="0 0 64 64" width="64" xmlns="http://www.w3.org/2000/svg"><path d="m39.49 5.77c.61-.14 3.56 2.81 4 4.47s-.75 5.25.06 7.31 2.47 2.28 1.72 6-1.81 5.63-.94 7.66 2.19 3 1.78 5.28-2.09 6-1.22 8 2.94 3.66 2.5 7.25-1 5.16-3.43 5.94a16.61 16.61 0 0 1 -12.5-1.68c-4.32-2.75-8.35-5.63-11.19-11.78s-3.91-7.88-3.66-14.31 4.91-12.79 8-15.94a32.71 32.71 0 0 1 14.88-8.2z" fill="#1d1d1b"/><path d="m38.83 7.52c.44 0 3.28 2 3.19 4.22s-1.72 5.5-.5 7.31 2.16 2.69 1.78 4.95-2.09 5.22-.91 8.12 2.19 3.32 1.72 5.35-2.87 5.5-1.34 7.87 2.62 3.44 2.5 5.85-.22 4.09-1.44 4.43a21.27 21.27 0 0 1 -4.56.5 2.77 2.77 0 0 1 -1.5-.31s0-1.62-1.09-2.19a15.3 15.3 0 0 1 -2.68-2.26c-1.1-.87-2.1-1.81-3.53-1.65s-2.57 1-2.91.9-3.66-3.75-6.13-8.78a23.75 23.75 0 0 1 -2.62-14.12c.44-5.66 5.44-11.16 8.19-13.6s9.68-6.37 11.83-6.59z" fill="#e6e4da"/><path d="m34.58 20.36c1.44-.29 4.53-.78 6.19 3.22a5.45 5.45 0 0 1 -3.31 7.66c-2.46.66-6.16.76-7.46-3.81s1.86-6.5 4.58-7.07z" fill="#1d1d1b"/><path d="m35.46 22.08a3.44 3.44 0 0 1 3.93 3.07 3.86 3.86 0 0 1 -2.56 4.5c-2.09.65-3.94 0-4.65-2.6s.15-4.53 3.28-4.97z" fill="#fff"/><path d="m25.33 19.83c.22 0 .88.44.75.63a15.88 15.88 0 0 0 -2.53 3.75c-1 2.12-.91 3.19-1.19 3.31s-1.18.19-1.15-.06a18.93 18.93 0 0 1 1.47-4c.81-1.56 2.12-3.46 2.65-3.63z" fill="#1d1d1b"/><path d="m25.58 31.86c1.54.05 3.47.75 3.35 3.35s-1.85 4-4.13 3.4a3.28 3.28 0 0 1 -2.5-4 3.23 3.23 0 0 1 3.28-2.75z" fill="#1d1d1b"/><path d="m25.77 33.55a1.89 1.89 0 0 1 1.47 2.75c-.6 1.31-2.44 2-3.44.81s-.69-3.56 1.97-3.56z" fill="#fff"/><g fill="#1d1d1b"><path d="m30.68 40.93c.31 0 1.87 4 1.78 4.22s-.19.37-.32.28a33.39 33.39 0 0 1 -2.28-4.16 3 3 0 0 1 .82-.34z"/><path d="m28.33 41.86c.11.23 2.41 4.44 2.28 4.54a.44.44 0 0 1 -.31.12c-.12 0-2.78-4.28-2.56-4.47s.56-.25.59-.19z"/><path d="m25.8 42.8a24.79 24.79 0 0 1 2.84 4.94c-.12.22-.68.37-.68.37a52.1 52.1 0 0 1 -2.85-4.81 2 2 0 0 1 .69-.5z"/></g><path d="m28.61 51.52a2.86 2.86 0 0 1 2.88-.59 7.69 7.69 0 0 1 2.78 2.15 4.73 4.73 0 0 0 1.84 1.53c.41.25.88.85.69 1.07s-1.84-.32-4.16-1.6a27.92 27.92 0 0 1 -4.03-2.56z" fill="#fff"/></svg>