<svg height="64" viewBox="0 0 64 64" width="64" xmlns="http://www.w3.org/2000/svg"><path d="m24.45 6.54c3.91-1.31 8.63-2.06 15.47.38s10.87 5.5 14.44 10.37 4.15 11 3.75 17.6a25.73 25.73 0 0 1 -6.38 15.9c-3.81 4.6-8.25 8.6-17.47 7.78s-15.56-4.57-21.06-9.93-6.59-8.85-7.34-15.47 3.78-14.63 7-18.81a24.46 24.46 0 0 1 11.59-7.82z" fill="#1d1d1b"/><path d="m26.7 7.79a20.41 20.41 0 0 1 8.69-.22 32.1 32.1 0 0 1 6.61 2.6s-10.24 1.75-10.3 2.06-.28 1 .13 1 10.81-2.56 11.4-2.41a28.17 28.17 0 0 1 5.06 2.66c2.07 1.34 2.1 1.75 2.1 1.75s-5.91-.91-17.63 1.66-18 4.15-19.65 4.53a22 22 0 0 0 -3 .87 39 39 0 0 1 4.59-7.37 24.15 24.15 0 0 1 12-7.13z" fill="#696a9b"/><path d="m23 11.45c.23-.12.91 0 .53.28s-4.84 4.66-5.09 4.53-1-.59-.72-.78 4.76-3.75 5.28-4.03z" fill="#1d1d1b"/><path d="m9.79 24c.1-.08 9.35-2.65 15.91-4.22a110.86 110.86 0 0 1 17.75-2.78c6.28-.53 7.72-.5 8.28-.25a12.22 12.22 0 0 1 2.35 3.66c-.16.09-13.75 2-13.94 2.37s-.28.78 0 .81 13.86-2.3 14.15-1.95 2.35 3.12 2.25 8.75-.68 8.84-1.93 11.68a37.14 37.14 0 0 1 -3.22 5.63s-3.53-3.7-3.72-3.7-.69.1-.47.44 3.81 3.63 3.66 3.84a9.43 9.43 0 0 1 -.78 1.19 1.77 1.77 0 0 1 -.79.06 44.63 44.63 0 0 0 -3.56-3.81c-.25 0-.69.41-.65.56s3 3 2.71 3.1-9.09-.47-13.46.44-6.88 1.38-8.79 2.18-2 1-2.15 1-2.72-1.28-4.31-2.09-2.08-1.49-1.88-1.71 1.63-1.31 6.31-2.22 5.69-.66 5.75-.87.13-.75-.22-.85a35.46 35.46 0 0 0 -8.53 1.38 17.72 17.72 0 0 0 -4.31 2.12 31 31 0 0 1 -6.37-7.44c-2.29-4-2.32-10.4-1.91-12.46a14.23 14.23 0 0 1 1.87-4.86z" fill="#92a0d1"/><path d="m10.73 27.86c.26-.23 1.19-.22 1 .34s-1.22 2.5-1 4 .72 2.25.63 2.38a3 3 0 0 1 -.66.34 5.76 5.76 0 0 1 -.94-3.44 8.61 8.61 0 0 1 .97-3.62z" fill="#1d1d1b"/><path d="m14.61 28.26a36.66 36.66 0 0 1 5-2c2.47-.81 3.81-1.22 4-1s.47 1.1.15 1.22a18.06 18.06 0 0 0 -5.9 1.44c-2.72 1.34-2.85 1.56-3.07 1.44s-.37-.97-.18-1.1z" fill="#1d1d1b"/><path d="m15.48 33.86c.1-.25 2.31-1 2.53-.63s.5.5.19.72a7.27 7.27 0 0 1 -2.53.87c-.22-.15-.25-.82-.19-.96z" fill="#1d1d1b"/><path d="m14 42.17c.14-.23 5.63-2.5 5.81-2.22s.29.53.16.78a44.29 44.29 0 0 1 -5.44 2.47c-.24 0-.64-.88-.53-1.03z" fill="#1d1d1b"/><path d="m30.61 28.64c3.71-1.3 13.25-.57 18.25 1s5.28 3.87 4.68 5.93-2.81 4.66-10.71 4.82-14 .09-17.19-2.72-4.16-5.85 4.97-9.03z" fill="#1d1d1b"/><path d="m33.11 29.45c3.81-1 4.72 1 9.81 1.31s7.94 1.24 8.75 2.24 1.33 3.7-2.34 4.76-8.57 1-14 .85-8.13-1.35-9.41-3.07.08-4.22 7.19-6.09z" fill="#696a9b"/><g fill="#1d1d1b"><path d="m34.08 33.42c.53-.32 2.5 3 2.31 3.28a.89.89 0 0 1 -1 .34c-.25-.15-2.35-2.81-2.1-3.12a2.09 2.09 0 0 1 .79-.5z"/><path d="m36.64 32.57c.12-.11.65-.4.9-.15s2.69 3.5 2.54 3.72-.38.4-.6.34-3.03-3.72-2.84-3.91z"/><path d="m41 32.29c0-.15.69-.28.84-.18s2.5 2.75 2.35 3.06-.56.47-.72.37a29.6 29.6 0 0 1 -2.47-3.25z"/><path d="m50 42.36s2.57 1.93 2.5 2.21-.21.75-.43.66-2.81-2.09-2.68-2.23a1.67 1.67 0 0 1 .61-.64z"/><path d="m51.23 41.14c0-.13.31-.63.56-.63s2 1.19 1.94 1.44-.09.59-.34.59a7.11 7.11 0 0 1 -2.16-1.4z"/><path d="m53.83 38.73c.05-.11.84.06.84.31s0 .72-.13.72a3 3 0 0 1 -1-.34c-.12-.13.25-.63.29-.69z"/></g><path d="m25.33 54c-.19-.13 4.71-2.06 10-2.72s13.22 0 13.19.28a7.25 7.25 0 0 1 -2.52 2.08 8.58 8.58 0 0 1 -2 .87 9.76 9.76 0 0 0 -1.33-1.51c-.22 0-.59 0-.63.22s1.5 1.59 1.29 1.78a14.31 14.31 0 0 1 -1.72.78s-1.78-2.69-2.22-2.65-.75.21-.69.37 2.3 2.5 2.09 2.64a3.35 3.35 0 0 1 -1.59.34 13.86 13.86 0 0 0 -1.72-2.31c-.22 0-1.09.22-1 .37s1.88 2.07 1.53 2.22a17.88 17.88 0 0 1 -7.01-.37 14.87 14.87 0 0 1 -5.67-2.39z" fill="#696a9b"/></svg>