<svg height="64" viewBox="0 0 64 64" width="64" xmlns="http://www.w3.org/2000/svg"><path d="m29.05 6c6.52-1.18 10.29.21 15.08 2.67s7.71 4.83 11.63 11.54 2.87 15.79 1.12 22.11-4.21 9.83-9.54 12.45-11.34 5.3-21.42 2.34-14.66-8.17-17.92-13.38-2.78-13.73-1.24-19.96 7.37-15.04 22.29-17.77z" fill="#1d1d1b"/><path d="m12.34 17.27c-.12-.36 4-5.91 12-8.25s11.38-1.37 13.88-.7 3.5 1.41 3.41 1.62-.21.42-.5.38-3.5-1.46-5.33-.75-1.75 1.25-3.13 1.33-3.62.08-4.12.37-.71.84-.5 1.09 3.17 0 3.21.37.5 3.29 1.91 3.34 4.34-.92 5.42-.8 3.92 4.3 6 4.21 6.92-1.46 7.62-1.16 2.88 2.83 3.59 10.33-.8 12.25-.88 12.12-5-4.66-5.25-4.62-.75.67-.58.92 5.63 4.41 5.58 4.79-1.5 3.91-1.7 3.83-2.84-2.69-3.21-2.46-.71.67-.63.79 3.46 2.25 3.38 2.5a9 9 0 0 1 -.79 1.13 32.9 32.9 0 0 0 -3.46-2.83c-.21.08-.75.54-.59.75s3.34 3 3.34 3-3.75-.84-4.71-.38-3.25 4.81-3.83 5.42-1.92 2-2.92 2.21-8.42 1.29-14.67-1.34-10.5-4.79-14.37-10.91-2.84-13-2.63-13.13 5.17-1.25 5.5-2 1-3 1.46-4.21 1.5-4.41 1.08-5.08-3.5-1.63-3.58-1.88z" fill="#85bfe9"/><path d="m16.88 17.15c-.13-.18 1.42-1.83 3-3s3.17-2.38 3.58-2 .71.71.38 1a10.18 10.18 0 0 0 -4.13 2.75c-1.54 2-1.62 2.37-1.87 2.33s-.84-.91-.96-1.08z" fill="#1d1d1b"/><path d="m32.92 12.23c.18-.35 1.46.42 2 .17s1.25-1.29 2.2-1 3.25.79 3.88.5a1.86 1.86 0 0 0 .83-.67s.54-.79.79-.75a23.62 23.62 0 0 1 5.38 3.29c2.58 2 3.21 2.71 2.87 2.84a31 31 0 0 1 -4.79.87 5 5 0 0 1 -2.29-.25c-.5-.21-3.33-3.62-4.92-3.67a8.83 8.83 0 0 0 -3.2.42c-1.09.29-1.21.75-1.71.42s-1.2-1.83-1.04-2.17z" fill="#cbe7f5"/><path d="m11.38 19c.16-.14 2.79 1.05 2.75 1.38a71.33 71.33 0 0 1 -2.12 7c-.25.16-4.59 1.37-4.5 1.12s1.41-7.23 3.87-9.5z" fill="#cbe7f5"/><path d="m13.34 34.27a10 10 0 0 1 6.75-2c3.13.46 3.83 1.3 5 .75s2.79-2.7 4-2.79 3.42.29 5.88.38 5.83 0 6.2.37a3.39 3.39 0 0 1 .34 2.59c-.29.66-2 1.66-2.17 2.2s-.12 1.38.25 1.38 2.54-1 3.38-.79 2.12 1.54 3.33 1.75 2.08-.21 2.37.25-.08 2.25-.29 2.87a3.81 3.81 0 0 1 -1.87 2.34c-1.09.41-4 .79-4.29 1.12a4 4 0 0 0 -.75 1.31c-.21.46-1 2-2.21 2.29a9.13 9.13 0 0 1 -2.88.25 22 22 0 0 1 -3-.79s-2.38-2.93-3.04-3.14-3.46-.09-4.42-1.13-1.62-5.58-2.58-5.79a11.38 11.38 0 0 0 -4 .25 7.94 7.94 0 0 1 -4.29-.54c-1.29-.5-1.54-.54-1.63-.92s-.42-1.75-.08-2.21z" fill="#1d1d1b"/><path d="m15.59 34.73c.18-.61 2.13-1.37 4.5-.87s3.33 1.75 5.33 1.16 2.84-2.62 4.25-2.75 5.67.55 6.92.59 2.71-.34 2.79 0-1.08 1.14-1.38 1.87-.67 2.59-.3 3.17a2.24 2.24 0 0 0 1.5 1c.38 0 2.63-.84 3.34-.5a17.72 17.72 0 0 0 2.62 1.29c1.25.42 2 .08 2 .54a3.69 3.69 0 0 1 -1.25 1.92c-.54.33-4.71.41-5 .87s-1 3.38-2.08 3.5-3 .25-3.5-.12-2.71-3.42-3.13-3.42-4.66-.17-4.75-.87a29.67 29.67 0 0 0 -1.75-5.59 8.63 8.63 0 0 0 -4.16-.79 18.24 18.24 0 0 1 -3.8.29c-1.86-.12-2.27-.87-2.15-1.29z" fill="#cbe7f5"/><path d="m15 41.57c.23-.18 2.87-.21 2.91.16s.25.75 0 .88a7.51 7.51 0 0 1 -2.71.08c-.28-.21-.36-1-.2-1.12z" fill="#1d1d1b"/><path d="m18.51 49c-.17-.16.79-.75 1.62-.58a5.19 5.19 0 0 0 2 .25c1-.08 2.13-.38 2.25-.13s.38.84.09.92a10.1 10.1 0 0 1 -2.67.13 4.68 4.68 0 0 0 -2-.09c-.42.17-.5.59-.83.34s-.3-.69-.46-.84z" fill="#1d1d1b"/><path d="m32.13 52.11a4.48 4.48 0 0 1 2.21-.34c.13.17.38.71.08.92s-1.41.79-1.83.54a1.11 1.11 0 0 1 -.46-1.12z" fill="#1d1d1b"/><path d="m45.59 53.65c-.33.08-1.33-.42-1.08-.63s2.29-3.29 2.75-3.33 3.41.33 3.25.63a17.53 17.53 0 0 1 -2.75 1.83c-.92.54-2.17 1.5-2.17 1.5z" fill="#cbe7f5"/><g fill="#1d1d1b"><path d="m20.51 25.4c.14-.09 1.41.5 2.21.42s1.25-.42 1.29 0 .08.7-.09.79a7 7 0 0 1 -2.16.16 3 3 0 0 1 -1.42-.37c-.08-.13-.04-.88.17-1z"/><path d="m40.38 26.94c0 .17 1.88 0 1.92.33s.08.59-.33.67a3.85 3.85 0 0 1 -1.84-.08c-.25-.21.25-.96.25-.92z"/><path d="m51.05 22.9c.27-.2 3.12 2.17 3.17 2.46s.2.66-.17.66a16.09 16.09 0 0 1 -3.46-2 1.92 1.92 0 0 1 .46-1.12z"/><path d="m50.22 26.44s4.37 3.42 4.29 3.79-.09.63-.34.5-4.25-3.21-4.29-3.33a3 3 0 0 1 .34-.96z"/><path d="m50 30.11c.12 0 4.62 3.29 4.66 3.71s.13.91-.08.87a51.51 51.51 0 0 1 -4.67-3.33 1.46 1.46 0 0 1 .09-1.25z"/><path d="m50 33.48c.14-.22 4.5 3.5 4.5 3.79s.58 1-.13.67a30.42 30.42 0 0 1 -4.5-3.5 1.72 1.72 0 0 1 .13-.96z"/><path d="m27.34 19.9c.06-.11 3.46.25 3.5-.25a6.26 6.26 0 0 1 .58-2.29 23.57 23.57 0 0 1 5.3-.21c2.08.17 3.66.75 3.79 1.17s-.46 1.08.25 1.41 2.66.75 2.75 1.25-1 3.54-1.46 3.59a7.86 7.86 0 0 0 -3.38.12c-1.58.54-4.5 1-5.12.13s-2-3.34-2.33-3.3-2.84 1-3.17.67a4.65 4.65 0 0 1 -.71-2.29z"/></g><path d="m33.34 19.07c.27-.14 5.17-.05 5.29.25s.75 1.5 1.17 1.7 2 .42 2 .75.08.8-.21.84l-4.79.54c-1.17.12-1.54.58-2 .08s-1.21-2.71-1.63-2.91a.74.74 0 0 1 -.5-.63c-.04-.25.42-.5.67-.62z" fill="#cbe7f5"/></svg>