<svg height="64" viewBox="0 0 64 64" width="64" xmlns="http://www.w3.org/2000/svg"><path d="m16.2 19.62s-4.46-5.17-4.59-5.08a6.13 6.13 0 0 1 -2.41 1 2.74 2.74 0 0 1 -2.13-2.34c-.37-1.66-2.21-8.75-1.29-9.75s10.46 2.8 11.42 3.75 0 2.75 0 2.75l4.41 5s1.17-.79 1.67-.54a21.28 21.28 0 0 1 2.38 2.34s7.2-5.67 14.12-8.34 12.54-3.5 16.62 1.29 1.3 11.84-.91 16.3-7.49 9.16-7.49 9.16 8.37 4.75 8.87 6a3.24 3.24 0 0 1 -.41 3.42c-.8 1-1.67 1.88-1.67 1.88s3.37 3 3.33 3.91-3.29 3.84-6.83 6.84-5.46 3.83-6.13 3.33a26.13 26.13 0 0 1 -2.58-3.75s-2.54 1.46-4.5.25-4.75-9.71-4.75-9.71a24.75 24.75 0 0 1 -9.33 5.42c-6.09 2-12 2.12-15.92-2s-.8-12.46 1.57-16.38 8.09-10.21 8.09-10.21a24.69 24.69 0 0 1 -1.92-2.71 2.11 2.11 0 0 1 .38-1.83z" fill="#1d1d1b"/><path d="m9.07 13.45c-.17-.37-2.33-8.7-2-8.83s8.67 3.38 8.54 3.83-1.12 1.75-3.25 3.3a8.52 8.52 0 0 1 -3.29 1.7z" fill="#ffe19b"/><path d="m8.61 6.91c0-.21.54-.21.63 0a18.52 18.52 0 0 1 .76 3.09c-.13.17-.46.42-.67.17a20.12 20.12 0 0 1 -.72-3.26z" fill="#1d1d1b"/><path d="m12.82 13.45c-.07-.11.46-.41 1.46-1.25s1.33-1.29 1.46-1.25 4.41 5.17 4.41 5.34a3.85 3.85 0 0 1 -1 1.37c-.58.59-1.29 1.25-1.45 1.09s-4.7-5.09-4.88-5.3z" fill="#fab900"/><path d="m17.82 20.62c-.13-.16 1.88-1 2.75-2.17s1.43-2.16 1.83-2.12 11.13 11.08 11.09 11.46a14.29 14.29 0 0 1 -3 3.33c-1.38 1.21-1.92 1.58-2 1.5s-10.38-11.62-10.67-12z" fill="#f2910d"/><path d="m20.49 21.83c-.19 0 .5-.58.62-.5s6.13 6.87 6 7.17-.45.79-.7.66-5.71-7.29-5.92-7.33z" fill="#1d1d1b"/><path d="m12.15 40.87s.21-.79 1.67-1.83 5.71-3.34 7.67-5a10.36 10.36 0 0 0 2.51-3.04s-4.58-5.46-4.88-5.38-.83.67-.7.71 3.08 3.17 3 3.54-.13.54-.34.42-3.01-3.29-3.18-3.29a6.14 6.14 0 0 0 -.9 1.16c-.05.13 3.95 4.25 4 4.5s-.5.5-.5.5l-4.09-4.33-1.21 1.42 3.71 4.25s-.41.41-.54.41-3.76-3.91-3.76-3.91-1 1.25-1.12 1.5a2.71 2.71 0 0 1 -.34.41s2.71 2.8 2.71 2.92-.33.42-.33.42l-2.88-2.63s-.5 1-.62 1.21 2 2.29 1.92 2.42-.21.41-.34.46-2.12-1.88-2.21-1.71-.91 2.5-1.08 3-.62 1.87-.32 2a15.34 15.34 0 0 0 2.15-.13z" fill="#1f4863"/><path d="m13.53 40.75s0-.59.37-.8a46.86 46.86 0 0 0 7.21-4.62c3-2.42 3.54-3.38 3.67-3.33s1.62 1.62 1.62 1.62-1.5 2.21-1.62 2.25a52.14 52.14 0 0 1 -6.13 3.42 18.53 18.53 0 0 1 -5.12 1.46z" fill="#85bfe9"/><path d="m27 18.08 1-.88a41.25 41.25 0 0 0 3.42 3.13c.16-.08.33-.5.33-.5s-2.75-3.08-2.64-3.29 1.09-1.13 1.42-1 2.21 3 2.46 3 .58-.46.41-.67a20.06 20.06 0 0 1 -1.79-2.87 8.79 8.79 0 0 1 .84-.55l1.83 2.21s.67-.25.46-.41a9.91 9.91 0 0 1 -1.38-2.25c.13-.09 2-1.38 2.34-1.25s1.29 2 1.41 2 .63-.17.5-.38a14.32 14.32 0 0 1 -1.25-2 6.77 6.77 0 0 1 1.84-1c.25 0 2.12 3 2.37 3s.54-.37.46-.5l-1.92-3.08a9.54 9.54 0 0 1 1.5-.62c.13 0 1.71 2.95 1.88 2.87s.58-.29.46-.54a22.21 22.21 0 0 1 -1.5-2.75 13.44 13.44 0 0 1 3.08-1 1.42 1.42 0 0 1 .92 1.83c-.3.88-3.38 6.25-3.38 6.25s-.62-2-2.33-1.83a5.58 5.58 0 0 0 -4.63 2.54c-1 1.75-2 3.46-2.37 4.12s-.67 1.34-1 1.3a66.54 66.54 0 0 1 -4.74-4.88z" fill="#1f4863"/><path d="m32.61 23.7a45.2 45.2 0 0 1 2.84-4.91c1.29-1.67 2.91-2.5 3.91-2.42a4.56 4.56 0 0 1 2.13 1.13l-4.09 6.16a1.36 1.36 0 0 0 -1.33.09 8.45 8.45 0 0 0 -1.92 1.7z" fill="#85bfe9"/><path d="m8.57 42.54c.06-.21 1.63.33 2.54.33s2-.08 2-.08a10.37 10.37 0 0 0 2.25 5.83 31.17 31.17 0 0 0 4.54 3.75c-.16.08-6 1.08-8.83-1.5a7.9 7.9 0 0 1 -2.5-8.33z" fill="#85bfe9"/><path d="m14.45 42.5a11.83 11.83 0 0 0 3.7-1.21c1.88-.92 3.34-1.75 3.34-1.75s-.63 3 2.91 6 4.05 3.08 4.05 3.08a38.93 38.93 0 0 1 -4.09 2.17 16.83 16.83 0 0 1 -3.12 1s-3.88-1.5-5.54-4.5-1.25-4.79-1.25-4.79z" fill="#cbe7f5"/><path d="m22.53 39.16s1.67-.91 3.17-1.91a18.47 18.47 0 0 0 2.3-1.71 14.52 14.52 0 0 0 3.66 5.33 14.26 14.26 0 0 0 3.75 2.46s-2.25 1.92-3.37 3a14.83 14.83 0 0 1 -2.59 1.83s-4-2.62-5.25-4.37a12 12 0 0 1 -1.67-4.63z" fill="#cbe7f5"/><path d="m29 34.7a28.31 28.31 0 0 0 3.79-3.29c2-2.08 3.46-3.41 3.46-3.41a28.53 28.53 0 0 1 4.75 4 14 14 0 0 1 2.7 4.46s-2.13 2.16-3.8 3.54a36.15 36.15 0 0 1 -3.5 2.58 14.82 14.82 0 0 1 -4.79-3.54 11.44 11.44 0 0 1 -2.61-4.34z" fill="#fff"/><path d="m37 27.25a41.74 41.74 0 0 0 2.62-3.55l1.25-2a8.17 8.17 0 0 1 6.38 3.17c2.66 3.38 2.87 5.21 2.87 5.21l-2.42 2.83a34.06 34.06 0 0 0 -1.75-4.16c-.25-.09-.83.33-.7.45s1.66 4.25 1.66 4.25l-.71.67a41 41 0 0 0 -2-4.42c-.2 0-1 .38-.91.5s2.12 4.42 2 4.59-.79 1-.79 1a23.16 23.16 0 0 0 -3.89-5.79 12.19 12.19 0 0 0 -3.61-2.75z" fill="#cbe7f5"/><path d="m42.07 20.54s2-3 3-4.92 1.29-2.54 1.29-2.54 4.13.42 6.29 3.33a16.5 16.5 0 0 1 2.67 4.71s-.75 1.92-1 2.63a4.29 4.29 0 0 1 -.54 1.16s-1.42-3.62-1.78-3.62-.67.54-.54.62 2 3.42 1.83 3.59a11.1 11.1 0 0 0 -.75 1.2s-1.75-3.37-1.87-3.41-.88.16-.63.46 1.96 3.58 1.78 3.95-.82 1.38-.82 1.38a11.86 11.86 0 0 0 -4.17-6.29c-3.22-2.25-4.76-2.25-4.76-2.25z" fill="#cbe7f5"/><path d="m47 12.12a7.89 7.89 0 0 1 5.58 2.42 15.45 15.45 0 0 1 3.46 5s1.75-4.25.08-7.71-5.79-3.84-6.46-4a12.08 12.08 0 0 0 -2.66.25 3.29 3.29 0 0 1 .66 2 6.55 6.55 0 0 1 -.66 2.04z" fill="#85bfe9"/><path d="m34.86 46.12a65.48 65.48 0 0 0 5.84-4.46c2.66-2.33 6.08-5.25 6.08-5.25l6.62 4.59-5.87-.8s-.42.84-.17.88 7.21 1.21 7.29 1.42a2.31 2.31 0 0 1 -.08 1.25c-.12 0-7-1.46-7.17-1.34a.76.76 0 0 0 -.12.71c.08.17 6.67 1.38 6.58 1.58a5.42 5.42 0 0 1 -.58.8s-5.08-1-5.33-.88-.42.71-.21.83 4.75.88 4.66 1-.7.75-.7.75a40.09 40.09 0 0 0 -4.25-.7c-.17.12-.38.75-.25.83s3.87.58 3.66.79l-1 1a21.36 21.36 0 0 0 -2.86-.58c-.25.08-.42 1-.25 1.08s2.08.5 2.08.5-3.5 3-5.33 4.25-3.8 1.63-4.35 1.13-4.37-9.3-4.29-9.38z" fill="#fab900"/><path d="m37 46.83c-.14-.1.42-.5.58-.25a28 28 0 0 1 1.88 4.67c-.13.33-.34.62-.63.54s-1.63-4.79-1.83-4.96z" fill="#1d1d1b"/><path d="m44.4 55.58a64.19 64.19 0 0 0 5.17-4c3-2.75 4-3.67 4.13-3.63s2.37 2.3 2.25 2.55a13.36 13.36 0 0 1 -1.42 1.33s-1.25-1.75-1.42-1.71-.79.33-.62.46a8.47 8.47 0 0 1 1.25 1.87c-.09.13-.71.8-.71.8a17 17 0 0 0 -1.54-1.92c-.13 0-.63.46-.5.58s1.5 1.67 1.37 1.88-2.37 2.12-3.5 3-2.12 1.87-2.41 1.75a14.55 14.55 0 0 1 -2.05-2.96z" fill="#ffe19b"/></svg>