<svg height="64" viewBox="0 0 64 64" width="64" xmlns="http://www.w3.org/2000/svg"><path d="m17.79 22.85s1.34-3.47 6.22-6.13 9.59-2.59 13.44-2.15 6.12 2.37 8.09 5.69a13.33 13.33 0 0 1 2.09 5.34s6.41.81 10 2.91 2.28 4.65 1.57 6.06-2.35 3.59-6.72 4.69l-5.72 1.43a12.72 12.72 0 0 1 -5.76 6.57c-4.22 2.15-9.72 3.65-15.75.93s-8.41-9-8.41-9a20 20 0 0 1 -8.78-3.5c-3.8-2.97-5.18-5.43-3.06-8.62s8.85-4 12.79-4.22z" fill="#1d1d1b"/><path d="m21.6 21.6c-.25 0-.65-.31-.59-.5s4.59-4.47 9.56-5.1 6.88 1.53 8.53 2.4 3.5 1.25 3.53 1.53 0 .41-.4.53-4.07-.56-6.35-.46-3.28 1.12-4.72 1.56a15.58 15.58 0 0 1 -5.25.19c-1.56-.15-4.31-.15-4.31-.15z" fill="#ddc07c"/><path d="m19.51 23.22a7.88 7.88 0 0 1 3.44-.4c2.09.15 4.06.94 6.81.5s4.4-1.88 6.56-1.91 3.38.41 5.09.41 2-.31 2.35-.1a9.77 9.77 0 0 1 1.65 3.19c.47 1.38.47 2.19.32 2.28a2.81 2.81 0 0 1 -1.53.22c-.38-.15-.57-1.25-3.85-1a41.14 41.14 0 0 1 -4.25.25c-1.19 0-1.56-1.06-5-.62s-3.87 1.34-5.68.65-1.19-2-3.82-1.62-3.15.75-3.4.65 1.06-2.4 1.31-2.5z" fill="#ffe19b"/><path d="m18.41 27.07c.33-.1 3.16-1 4.19-.44s2.16 2.25 4.38 2.06 3.09-1.56 5.93-1.12 2.91.62 4.19.59 3-.65 4.47 0 1.53.88 2.22.84 1.78-.53 2-.34.72 2.19.5 2.38-.91 1.09-9.13 1.06a95.75 95.75 0 0 1 -15.53-1.1c-2.87-.43-4.25-.71-4.34-1.31s.31-2.37 1.12-2.62z" fill="#e6e4da"/><path d="m16.51 24.44c.13 0 0 .5-.1.88s-.56 1.28-.56 1.28-1.84.16-2.37 1.06-.25 2.34 2.65 3.34a46.31 46.31 0 0 0 15.94 2.68c8.28.13 11.38.35 14.59-.84s4.32-2.66 3.91-3.37-1-1-1-1.13.19-.31.69-.34a14.63 14.63 0 0 1 6.44 2.12c2.09 1.56 1.53 3.41.06 4.75s-3.76 3.2-10.41 3.79a156.31 156.31 0 0 1 -21.09 0 48.39 48.39 0 0 1 -14.63-3.37c-3.53-1.35-5.28-3.75-4.53-6.19s5.16-4.59 10.41-4.66z" fill="#ffe19b"/><path d="m18.91 39.57c.05-.26 4.1.81 11.44 1s14.53-.28 14.56-.06a4.54 4.54 0 0 1 -1 1.93 18.7 18.7 0 0 1 -5.59 1.1c-2.09 0-.94-.91-6-1a44.44 44.44 0 0 1 -6.32-.54 4.16 4.16 0 0 0 -2.91.56c-.94.5-1.22.81-1.53.69s-2.83-2.62-2.65-3.68z" fill="#ffe19b"/><path d="m23.07 44.44s-.19-.9 1.91-.93 3.59.28 6 .21a8.27 8.27 0 0 1 3.62.41c.63.22.5.78 3.09.75s4.91-.69 4.85-.41a11.56 11.56 0 0 1 -3.16 2 5.31 5.31 0 0 1 -1.94.46 19.32 19.32 0 0 0 -1.81-1.81c-.22-.06-1 .22-.9.35s1.9 1.56 1.68 1.71a2.41 2.41 0 0 1 -1.37.22c-.13-.12-2.13-2.56-2.35-2.62s-.69.13-.69.22 2.37 2.62 2.25 2.65a7.81 7.81 0 0 1 -1.09.19c-.1 0-2.29-2.47-2.38-2.44s-.78.28-.72.44 1.47 1.84 1.28 1.94a13.22 13.22 0 0 1 -5.34-1.37c-2.68-1.25-3-1.65-2.93-1.97z" fill="#ddc07c"/><path d="m28.41 19.19c-.06-.22-.9-.25-1.59-.12a3.67 3.67 0 0 0 -1.66.78c-.06.12.38.53.57.56s.28-.12.87-.44 1.56-.15 1.81-.28.07-.28 0-.5zm4.32-.78a14.15 14.15 0 0 1 1.75.1c.37-.07.22-.19.28-.47s-.16-.28-1.13-.41a3.91 3.91 0 0 0 -1.87 0c-.16.13 0 .75.15.85s.22.06.82-.07zm-.88 6.44a.57.57 0 0 0 .78-.34c.1-.38-.05-.71-.65-.44s-.38.65-.13.78zm2.41-1.16c-.56.16-.63.72-.38.91s.47.19.82-.13a.46.46 0 0 0 -.44-.78zm2.54.08a.46.46 0 0 0 -.44-.79c-.56.16-.62.72-.37.91s.47.19.81-.12zm0 1.54c.25.19.47.19.81-.13a.46.46 0 0 0 -.43-.78c-.55.16-.61.72-.36.91zm2.46-2.17a.46.46 0 0 0 -.44-.78c-.56.16-.62.72-.37.91s.48.18.83-.13zm1.46 1.46a.46.46 0 0 0 -.44-.78c-.56.15-.63.72-.38.9s.49.19.84-.12zm-1.69.26c-.56.16-.63.72-.38.91s.47.18.82-.13a.46.46 0 0 0 -.42-.78zm3.37-1.7a.46.46 0 0 0 -.43-.78c-.57.16-.63.72-.38.91s.49.18.83-.13zm1.34 1.5a.46.46 0 0 0 -.44-.78c-.56.16-.62.72-.37.91s.48.21.83-.13zm-1.67 1a.46.46 0 0 0 -.44-.78c-.56.16-.62.72-.37.91s.49.21.83-.11zm2.19-.3c-.56.16-.63.72-.38.91s.47.18.82-.13a.46.46 0 0 0 -.42-.76zm-23.85 2.8a.72.72 0 0 0 -.5.69c.07.19.38.16 1.13.25a32.51 32.51 0 0 0 3.41.34c.34-.06.21-.06.18-.28a20.09 20.09 0 0 0 -4.22-1zm7.91 2.5c.25.1.25.13 1.78.22a13.92 13.92 0 0 0 3 0c.22-.09 0-.34-.06-.53s-.53 0-1.53-.06a19.14 19.14 0 0 0 -3.06-.29c-.16.07-.38.57-.13.66zm13.47-.66a16.63 16.63 0 0 1 -2 0c-.13 0-.44.66-.31.79a8.11 8.11 0 0 0 2.37-.1 18.62 18.62 0 0 0 2.31-.22c.19-.09-.15-.43-.28-.56a9 9 0 0 0 -2.09.09zm-26.19-1 .25-.9c-.19 0-.9.15-.78.4a1.79 1.79 0 0 0 .53.44zm-1.6 3.13c.31-.16.15-.19 0-.41s-2-.4-2.71-1.43.68-2.19.78-2.35-.53-.26-.72-.15a2 2 0 0 0 -.88 2.87c.73 1.72 3.16 1.63 3.53 1.47zm-6-1.69c-.09-.81.56-1.4.62-1.62s-.08-.22-.62-.22a3.17 3.17 0 0 0 -.88 2c-.12 1.31 1.29 1.66 1.39 1.72s.5-.13.69-.31-.16-.16-.44-.32a1.41 1.41 0 0 1 -.76-1.25zm8.25 4.94a8.41 8.41 0 0 1 -3.72-1.66c-.22 0-.69.66-.69.94s.57.5 2.85 1.22a34.91 34.91 0 0 0 5.31 1.22c.31 0 .37-.81.34-.91a39.23 39.23 0 0 0 -4.05-.81zm19.62 1.09c-4.78-.06-8.47-.8-9-.75-.32 0-.29 1 0 1.07s1.19.28 7.6.59 7.4-.22 7.53-.28.09-.47 0-.69-1.3.13-6.09.06zm18.73-4.65c-.31 0-2.34 1.69-4.47 2.56s-4.15.6-4.37.88-.06.81.37.87a18.35 18.35 0 0 0 5.13-1.28 10.9 10.9 0 0 0 3.81-2.53c.06-.13-.16-.47-.47-.5zm-16.6 13.53a1.75 1.75 0 0 0 -.69.12c-.16.13.62.82.62.82a2.57 2.57 0 0 0 1-.28c.23-.22-.67-.63-.93-.66z" fill="#1d1d1b"/></svg>