<svg height="64" viewBox="0 0 64 64" width="64" xmlns="http://www.w3.org/2000/svg"><path d="m12.55 39s1.54-10.42 2-10.88a4.19 4.19 0 0 1 1.2-.75s1.25-10.22 2.67-13.68 6.46-7.46 13.42-8 11.21 3.25 13.5 8.12 3.46 14.13 3.46 14.13 1 .21 1.7 3.46 1.75 9 1.75 9 2.92.2 3.17 2.7.29 10.75-.08 11.34-10 3.66-24.59 4-20.91-3.25-21.75-4.92-.79-12.12-.16-13.08 3.71-1.44 3.71-1.44z" fill="#1d1d1b"/><path d="m14.13 39.77c-.5-.29 1.87-10.77 2.58-10.83s1 .75 1.13 2.08.08 9.88 0 9.88a15.91 15.91 0 0 1 -3.71-1.13z" fill="#cbe7f5"/><path d="m19.8 41.69c0-.17-.05-10.25-.17-12a2.64 2.64 0 0 0 -1.21-2.29 1.41 1.41 0 0 0 -.75-.34s1.58-11.2 2.92-13.33a15 15 0 0 1 12.16-6c6.42 0 9.63 3.58 11.55 8s2.41 12.54 2.41 12.54-1.91.54-2 1.37.67 12.17.54 12.21-1.33.29-1.33.29a48.15 48.15 0 0 0 -3.42-4c-.25 0-.79.41-.62.62a38.61 38.61 0 0 1 2.67 3.38 11 11 0 0 1 -1.13.16c-.17 0-2.08-2.46-2.25-2.46s-.75.17-.67.38 2.13 2.21 1.92 2.25-4.17.33-4.17.33-1.66-12.2-2.16-12.53-3.63-.46-3.84.21-1.37 12.25-1.58 12.37a37.94 37.94 0 0 1 -5.79-.54c-1.63-.31-3.08-.62-3.08-.62z" fill="#92a0d1"/><path d="m31.75 32c.13-.12.88-.17.92 0s1.38 10.71 1.13 10.87-2.92.3-3 0 .79-10.68.95-10.87z" fill="#cbe7f5"/><path d="m47 30.35c0-.21.88-.25 1.09-.08a97.09 97.09 0 0 1 2.12 10.58c-.21.17-2.79 1-2.79.59s-.42-10.92-.42-11.09z" fill="#cbe7f5"/><path d="m21.17 16.44a5.57 5.57 0 0 1 1.38-3.34c1.37-1.58 1.91-1.95 2.16-1.83a1.21 1.21 0 0 1 .38 1c-.09.12-1.75.92-2.25 2.21s-.46 2.29-.59 2.37-.91-.33-1.08-.41z" fill="#1d1d1b"/><path d="m29.21 14.77c3.22-1.77 11.46-.12 10.5 7.58s-11.33 7.5-13.37 3.25-2.13-8.08 2.87-10.83z" fill="#1d1d1b"/><path d="m30 16.32c2.45-1.35 8.75-.1 8 5.79s-8.66 5.73-10.22 2.48-1.63-6.17 2.22-8.27z" fill="#fab900"/><g fill="#1d1d1b"><path d="m28.5 21.48a3.08 3.08 0 0 1 .55-2.54 3.44 3.44 0 0 1 2.41-1.71.46.46 0 0 1 .17.75c-.25.21-1.58.58-1.92 1.42s-.33 1.66-.5 1.87-.71.21-.71.21z"/><path d="m29.67 23.06c-.17-.12.71-.66.88-.58s2.29 2.5 2 2.79-.29.38-.46.29-2.25-2.37-2.42-2.5z"/><path d="m31.34 21.52c-.17-.12.71-.67.87-.58s2.29 2.5 2 2.79-.29.37-.45.29-2.26-2.37-2.42-2.5z"/><path d="m33.09 19.85c-.17-.12.71-.66.87-.58s2.29 2.5 2 2.79-.29.38-.45.29-2.26-2.35-2.42-2.5z"/><path d="m29.05 11.6a.92.92 0 0 1 1.29 1.09c-.21.79-1.54 1-1.84.41a1.13 1.13 0 0 1 .55-1.5z"/><path d="m33.8 10.73a.92.92 0 0 1 1.29 1.08c-.21.79-1.54 1-1.84.42a1.12 1.12 0 0 1 .55-1.5z"/><path d="m38.3 12.56a.92.92 0 0 1 1.29 1.09c-.21.79-1.54 1-1.84.41a1.13 1.13 0 0 1 .55-1.5z"/><path d="m41.75 16.9a.92.92 0 0 1 1.3 1.1c-.21.79-1.55 1-1.84.42a1.12 1.12 0 0 1 .54-1.52z"/><path d="m42.13 23.1a.92.92 0 0 1 1.29 1.09c-.21.79-1.54 1-1.83.41a1.12 1.12 0 0 1 .54-1.5z"/><path d="m38.38 28a.92.92 0 0 1 1.29 1.08c-.21.79-1.54 1-1.83.42a1.12 1.12 0 0 1 .54-1.5z"/><path d="m26.5 29a.92.92 0 0 1 1.3 1.08c-.21.79-1.55 1-1.84.42a1.12 1.12 0 0 1 .54-1.5z"/><path d="m22.84 25.06a.92.92 0 0 1 1.29 1.09c-.21.79-1.54 1-1.83.41a1.12 1.12 0 0 1 .54-1.5z"/><path d="m22.3 19.85a.92.92 0 0 1 1.29 1.09c-.21.79-1.54 1-1.84.41a1.13 1.13 0 0 1 .55-1.5z"/><path d="m24.5 14.23a.92.92 0 0 1 1.3 1.08c-.21.79-1.55 1-1.84.42a1.12 1.12 0 0 1 .54-1.5z"/><path d="m21 33.9c0-.18 1-.42 1-.17a45.25 45.25 0 0 1 0 5c-.12.08-.83.16-.91 0s-.09-4.58-.09-4.83z"/><path d="m41.09 37s.41-.92.58-.83a29.75 29.75 0 0 1 3 3.83 2.46 2.46 0 0 1 -.42.88s-3.08-3.78-3.16-3.88z"/><path d="m42.3 35.23c.12-.13.45-.79.7-.71s1.46 1.42 1.42 1.75-.12.67-.29.58-1.83-1.62-1.83-1.62z"/></g><path d="m11.21 41.73c.34-.17 4.59.83 7.84 1.62a44.5 44.5 0 0 0 13 1.71 100.36 100.36 0 0 0 14.2-1.16c2.88-.42 6.67-1.38 6.8-1.21a21 21 0 0 1 .33 2.46s-.75-.88-1-.75-.75.54-.58.66a15.24 15.24 0 0 1 1.54 1.71v5a5.49 5.49 0 0 1 -.08 1.21s-2.71.87-3.63 1.21a12.77 12.77 0 0 1 -2.08.5s-1-1.5-1.21-1.5-.88 0-.79.2 1.12 1.3.79 1.38a9.59 9.59 0 0 1 -1.17.12 16.24 16.24 0 0 0 -1.75-2.54c-.21 0-.79.71-.79.71s1.75 2 1.46 2.17a3.81 3.81 0 0 1 -1 .12s-1.08-1.83-1.38-1.79a3.08 3.08 0 0 0 -.79.33s1 1.75.79 1.8-.87.08-.87.08-.58-.79-.71-.79-.54 0-.62.12.12.79.12.79-3.33.38-8.25.42-7.38-.21-7.38-.21a28 28 0 0 0 -2.12-2.5c-.21 0-.88-.12-.79.13a20 20 0 0 1 1.08 1.87 9.58 9.58 0 0 1 -1.42-.29 20.79 20.79 0 0 0 -2.12-3.12 1.78 1.78 0 0 0 -.83.08 18.2 18.2 0 0 1 1.41 2.88c-.21 0-1.37-.3-1.37-.3a9.9 9.9 0 0 0 -1.09-1.54 2 2 0 0 0 -.75 0s.5 1.13.34 1.13a36.53 36.53 0 0 1 -4-1c-.84-.34-1.13-.42-1.25-.67s-.54-10.71.12-11.04z" fill="#696a9b"/><path d="m14.5 45.44a2.76 2.76 0 0 1 4.09 2.12c.33 1.54-.5 3.77-3.54 3a2.75 2.75 0 0 1 -.55-5.12z" fill="#1d1d1b"/><path d="m15 46.4a1.68 1.68 0 0 1 2.49 1.3c.21.95-.3 2.31-2.16 1.87a1.69 1.69 0 0 1 -.33-3.17z" fill="#cbe7f5"/><path d="m23.75 47.6a2.77 2.77 0 0 1 4.09 2.13c.33 1.54-.5 3.76-3.54 3a2.76 2.76 0 0 1 -.55-5.13z" fill="#1d1d1b"/><path d="m24.26 48.57a1.68 1.68 0 0 1 2.49 1.3c.21.94-.3 2.3-2.16 1.86a1.68 1.68 0 0 1 -.33-3.16z" fill="#cbe7f5"/><path d="m35.63 47.73a2.76 2.76 0 0 1 4.08 2.12c.34 1.55-.5 3.77-3.54 3a2.76 2.76 0 0 1 -.54-5.12z" fill="#1d1d1b"/><path d="m36.13 48.7a1.69 1.69 0 0 1 2.5 1.3c.2.94-.31 2.3-2.17 1.86a1.69 1.69 0 0 1 -.33-3.16z" fill="#cbe7f5"/><path d="m46.05 46.65a2.75 2.75 0 0 1 4.08 2.12c.33 1.54-.5 3.77-3.54 3a2.75 2.75 0 0 1 -.54-5.12z" fill="#1d1d1b"/><path d="m46.55 47.61a1.69 1.69 0 0 1 2.5 1.3c.2 1-.31 2.31-2.17 1.86a1.68 1.68 0 0 1 -.33-3.16z" fill="#cbe7f5"/><path d="m50.21 45.56c-.12-.08.42-.58.67-.41a12.19 12.19 0 0 1 1.87 2.37c-.12.08-.37.54-.5.46s-1.91-2.33-2.04-2.42z" fill="#1d1d1b"/></svg>