<svg height="64" viewBox="0 0 64 64" width="64" xmlns="http://www.w3.org/2000/svg"><path d="m12.52 11.79c2.75-1 8.54.54 14.63 1a62.72 62.72 0 0 0 13.46 0c4.12-.38 8.39-2.3 12.39-.59s6.13 12 6.63 17.46.5 11.54-1 16.08-3.25 6.59-3.55 6.59-15.81-4.67-22.14-4.63-17.58 4-18.75 4.38-4 .91-4.83-.13a29 29 0 0 1 -5.25-15.5c-.21-8.08 2.58-17.58 3.66-19.58s3.42-4.58 4.75-5.08z" fill="#1d1d1b"/><path d="m11.94 14.16s10.25 18.71 10.06 19.17a47.19 47.19 0 0 1 -5 5.29c-.08-.21 2.79-5.54 2.79-5.79a64.36 64.36 0 0 0 -5.5-10.09c-2.79-4.08-4-5.37-4-5.75s1.32-2.91 1.65-2.83z" fill="#a42116"/><path d="m9.56 18.87c.15-.12 6.25 9.92 6.25 9.92a6.31 6.31 0 0 0 -.54 3.91 10.33 10.33 0 0 0 1.17 3.38l-5.88 8.92c-.79 1.21-1.54 2.38-1.7 2.21a27.44 27.44 0 0 1 -3-13c.41-6.55 2.66-14.51 3.7-15.34z" fill="#1f4863"/><path d="m16.48 29.87a11.92 11.92 0 0 1 1.46 2.42c-.08.29-1.08 2.37-1.08 2.37a4.59 4.59 0 0 1 -.75-2.21 7.28 7.28 0 0 1 .37-2.58z" fill="#e6e4da"/><path d="m13.27 13.41s.46-.92 3-.79 8.59 2 16.42 1.87a135.51 135.51 0 0 0 15-1 21.36 21.36 0 0 1 2.83-.13s-4.33 8.79-5.83 11.88a51 51 0 0 0 -2.88 6.41c-.08.67-.12 1.67-.12 1.67a27 27 0 0 0 -4.69-.41c-2.37 0-4.08 0-4.08 0s3.23-5.91-1.19-10.42-9.73-2.08-11.08-1.33a5.67 5.67 0 0 0 -2 2.13s-5.34-9.67-5.38-9.88z" fill="#1f4863"/><path d="m19.31 24.16a7.45 7.45 0 0 1 5.55-3.16c3.62-.16 6.62 1.5 7.62 4.92a12.55 12.55 0 0 1 -.37 7s-4.59.21-5.13.25l-1 .08a26.09 26.09 0 0 0 -1.87-3.25c-.25-.09-.8.08-.63.37s1.71 2.88 1.46 2.92a12.19 12.19 0 0 1 -1.33 0 7.33 7.33 0 0 0 -1.05-3.38c-1-1.54-3.25-5.75-3.25-5.75z" fill="#e6e4da"/><path d="m47 39.62c-.12-.21-3.54-5.17-3.71-6s3.92-10.5 5.46-13.29 3.25-6.42 3.56-6.33a7.12 7.12 0 0 1 1.75 2.13c0 .12-7.83 13.62-8.41 15.41a7.39 7.39 0 0 0 .25 4.84c.46 1.11 1.1 3.24 1.1 3.24z" fill="#a42116"/><path d="m47.27 32.29c.67-1.75 7.67-14.84 7.88-14.55a32.66 32.66 0 0 1 2.75 16.13 75.13 75.13 0 0 1 -2.13 13.83s-4.21-4.91-6.12-7.7-3.21-5.55-2.38-7.71z" fill="#1f4863"/><path d="m23.23 34.79c.17 0 4.46-.46 9.83-.46s8.55.66 8.84.83 10.83 14.29 10.54 14.54-10.92-3.58-18.38-3.62-18.12 3.62-19 3.92a13.72 13.72 0 0 1 -3.58.84c-.33-.17-1.17-1-1-1.29s4-5.59 6.63-8.59a78.25 78.25 0 0 1 6.12-6.17z" fill="#e7413e"/><g fill="#1d1d1b"><path d="m10.4 24.49c.86-.4 1.79.46 1.91 1.21s-1.31 2.04-2.12 1.3a1.58 1.58 0 0 1 .21-2.51z"/><path d="m11.4 30.24c.41-.51 1.79.05 2.08.84a1.33 1.33 0 0 1 -1.58 1.62c-1.13-.16-1.17-1.62-.5-2.46z"/><path d="m9.19 37c.6-.5 2.08.13 2.12 1.17a1.61 1.61 0 0 1 -2 1.42 1.5 1.5 0 0 1 -.12-2.59z"/><path d="m8.52 31.66c.44-.2 1.42.5 1.21 1.17a.89.89 0 0 1 -1.42.41c-.37-.37-.7-1.16.21-1.58z"/><path d="m20.19 16.24c.29-.12 1.25.3 1 1s-1.21.46-1.54.09.16-.92.54-1.09z"/><path d="m30.77 18.54c.29-.13 1.25.29 1 .95s-1.21.46-1.54.09.17-.88.54-1.04z"/><path d="m43.23 15.7c.29-.13 1.25.29 1 1s-1.21.46-1.54.08.17-.91.54-1.08z"/><path d="m44.81 19.08c.29-.13 1.25.29 1 1s-1.2.45-1.54.08.17-.92.54-1.08z"/><path d="m37.27 27.12c.29-.13 1.25.29 1 1s-1.21.46-1.54.08.17-.91.54-1.08z"/><path d="m40.86 26.74c.29-.12 1.25.3 1 1s-1.21.46-1.55.09.17-.92.55-1.09z"/><path d="m54.23 29.87c.29-.13 1.25.29 1 1s-1.21.46-1.54.08.17-.95.54-1.08z"/><path d="m51.27 28.37c.29-.13 1.25.29 1 1s-1.21.46-1.54.08.17-.91.54-1.08z"/><path d="m50.27 33c.29-.13 1.25.29 1 1s-1.21.46-1.54.08.17-.96.54-1.08z"/><path d="m38.4 30.29c.29-.13 1.25.29 1 .95s-1.21.46-1.54.09.14-.88.54-1.04z"/><path d="m24.9 16.33c.67-.11 1.5.21 1.41 1.12s-1.29 1-1.87.71a1 1 0 0 1 .46-1.83z"/><path d="m28.81 15.32c.79-.12 1.76.24 1.66 1.32s-1.52 1.23-2.2.84a1.21 1.21 0 0 1 .54-2.16z"/></g><path d="m29 16c.3 0 .67.09.64.51s-.58.46-.85.31a.46.46 0 0 1 .21-.82z" fill="#ffe19b"/><path d="m53.72 24.61c.79-.12 1.77.25 1.67 1.32s-1.52 1.23-2.21.84a1.21 1.21 0 0 1 .54-2.16z" fill="#1d1d1b"/><path d="m53.93 25.33c.3 0 .67.1.63.51s-.58.46-.84.31a.46.46 0 0 1 .21-.82z" fill="#cbe7f5"/><path d="m53.39 37.61c.79-.12 1.77.25 1.67 1.32s-1.52 1.23-2.21.84a1.21 1.21 0 0 1 .54-2.16z" fill="#1d1d1b"/><path d="m53.59 38.33c.3 0 .68.1.64.51s-.58.46-.84.31a.46.46 0 0 1 .2-.82z" fill="#ffe19b"/><path d="m24.77 29.41c-.06-.13.63-.42.75-.25a16 16 0 0 1 1.42 3.08c-.13.21-.54.46-.71.25s-1.42-3-1.46-3.08z" fill="#1d1d1b"/><path d="m26.86 29.79s.7-.34.75-.21 1 2.58.83 2.71-.67.25-.75.12-.83-2.62-.83-2.62z" fill="#1d1d1b"/><path d="m29.94 27.79a1.75 1.75 0 0 1 2 2.45c-.67 1.59-2.63 1.75-3.21.46s-.37-2.7 1.21-2.91z" fill="#1d1d1b"/><path d="m30 28.38a1.26 1.26 0 1 1 -.85 2c-.37-.89-.15-1.86.85-2z" fill="#fff"/><path d="m25.46 23.73a1.75 1.75 0 0 1 3-.95c1.24 1.19.69 3.08-.73 3.16s-2.64-.66-2.27-2.21z" fill="#1d1d1b"/><path d="m26.05 23.85a1.26 1.26 0 1 1 1.55 1.52c-.96.05-1.81-.46-1.55-1.52z" fill="#fff"/><path d="m40.36 21.91a3.17 3.17 0 0 0 -.21-2.25 2.05 2.05 0 0 0 -1.71-1.12s-2.25-2-3.42-.92-.21 3.17-.21 3.17a3.23 3.23 0 0 0 .63 2.75 2.09 2.09 0 0 0 2.12.75s2.34 1.71 3.55.71-.75-3.09-.75-3.09zm-4.13-2.91a2.22 2.22 0 0 0 -.79.91s-.58-1.41.33-1.79a1.16 1.16 0 0 1 1.42.38 6.05 6.05 0 0 0 -.96.5zm4.33 5.08c-.41.37-1.7-.38-1.7-.38a2.49 2.49 0 0 0 .83-.41c.46-.34.54-.54.54-.54s.77.99.33 1.37z" fill="#1d1d1b"/><path d="m35.9 20.7s1.71-2.29 3.29-1.16-.29 3.08-.58 3.25a3.82 3.82 0 0 1 -.61.21s-1.23.08-2.1-2.3z" fill="#cbe7f5"/><path d="m53.06 42.79a20.44 20.44 0 0 0 2.13 2l.29-.46s-1.83-2.13-2-2a3.11 3.11 0 0 0 -.42.46z" fill="#1d1d1b"/><path d="m53.9 41.91s.21-.67.41-.62 1.84 1.45 1.8 1.7-.21.59-.34.5-1.87-1.58-1.87-1.58z" fill="#1d1d1b"/><path d="m55.27 41s.25-.5.38-.5.79.5.83.75a1.72 1.72 0 0 1 -.25.75z" fill="#1d1d1b"/><path d="m31.15 35.2c3-1.15 7.54.5 7.54 5.75s-8.29 6.42-10.38 3.5-1.91-7.45 2.84-9.25z" fill="#1d1d1b"/><path d="m31.46 36.14c2.46-1 6.19.41 6.19 4.72s-6.81 5.27-8.52 2.87-1.58-6.09 2.33-7.59z" fill="#85bfe9"/><path d="m28.9 40.45a2.39 2.39 0 0 1 .54-1.75c.71-1 1.54-1.41 1.87-1.25a.64.64 0 0 1 .34.54 2.73 2.73 0 0 0 -1.71 1.13 3.32 3.32 0 0 0 -.54 1.5 1.92 1.92 0 0 1 -.5-.17z" fill="#1d1d1b"/><path d="m30.9 39c.18-.1.83.17.79.29a1.94 1.94 0 0 0 -1 1.42c-.21 1.17 0 1.63.42 1.92s.58.25.45.41-.41.46-.66.38a2.62 2.62 0 0 1 -1.17-2.08 4.43 4.43 0 0 1 1.17-2.34z" fill="#1d1d1b"/><path d="m35.19 39.7s0-.41.29-.37a2.11 2.11 0 0 1 1 2.71 2.86 2.86 0 0 1 -2.67 2 6.13 6.13 0 0 1 -1-.08s-.08-.54.08-.54 2.38 0 2.84-1.38a2.3 2.3 0 0 0 -.54-2.34z" fill="#1d1d1b"/><path d="m32.94 40s.58-2.83.92-2.87.75 0 .7.25-.83 2.83-.83 2.83a1 1 0 0 1 .13 1.42 1.12 1.12 0 0 1 -2-.25c-.13-.68.54-1.51 1.08-1.38z" fill="#1d1d1b"/><path d="m21.9 37.87c1-.4 2.21-.29 2.46 1a2 2 0 0 1 -2.8 2 1.68 1.68 0 0 1 .34-3z" fill="#1d1d1b"/><path d="m22.18 38.48c.59-.23 1.31-.17 1.45.59a1.16 1.16 0 0 1 -1.63 1.16 1 1 0 0 1 .18-1.75z" fill="#f2910d"/><path d="m41.93 38.19c.59-.24 1.31-.17 1.45.59a1.16 1.16 0 0 1 -1.64 1.15 1 1 0 0 1 .19-1.74z" fill="#1d1d1b"/><path d="m39.72 36.15c.59-.24 1.31-.18 1.45.59a1.16 1.16 0 0 1 -1.64 1.15 1 1 0 0 1 .19-1.74z" fill="#1d1d1b"/><path d="m17.54 42.56c.73-.29 1.62-.21 1.8.73a1.44 1.44 0 0 1 -2 1.43 1.23 1.23 0 0 1 .2-2.16z" fill="#1d1d1b"/><path d="m17.82 43.15c.33-.13.74-.09.82.34a.66.66 0 0 1 -.93.65.56.56 0 0 1 .11-.99z" fill="#ddc07c"/><path d="m21 42c.73-.29 1.62-.21 1.8.73a1.44 1.44 0 0 1 -2 1.43 1.23 1.23 0 0 1 .2-2.16z" fill="#1d1d1b"/><path d="m21.32 42.57c.33-.13.74-.1.82.33a.66.66 0 0 1 -.93.66.56.56 0 0 1 .11-.99z" fill="#ffe19b"/><path d="m15 46.15c.72-.29 1.61-.22 1.79.73a1.44 1.44 0 0 1 -2 1.43 1.22 1.22 0 0 1 .21-2.16z" fill="#1d1d1b"/><path d="m15.24 46.74c.33-.14.73-.1.82.33a.66.66 0 0 1 -.94.65.56.56 0 0 1 .12-.98z" fill="#ffe19b"/><path d="m19.13 45.19c.72-.29 1.61-.21 1.79.73a1.44 1.44 0 0 1 -2 1.43 1.23 1.23 0 0 1 .21-2.16z" fill="#1d1d1b"/><path d="m19.4 45.78c.33-.13.74-.1.82.33a.66.66 0 0 1 -.93.66.57.57 0 0 1 .11-.99z" fill="#f2910d"/><path d="m23.75 44c.73-.29 1.61-.21 1.8.73a1.44 1.44 0 0 1 -2 1.43 1.23 1.23 0 0 1 .2-2.16z" fill="#1d1d1b"/><path d="m24 44.57c.33-.13.73-.1.82.33a.66.66 0 0 1 -.93.66.56.56 0 0 1 .11-.99z" fill="#ddc07c"/><path d="m42.36 45.12c.12 0 0-1.13 0-1.13s-1.75.09-1.75-.25-.34-2.45 0-2.45 6 .5 6 .83-.17 2.25-.42 2.29-2.33-.25-2.33-.12-.13.83-.13.83 1 .21 1 .71-1 1-2.33.62-1.21-1.21-.04-1.33z" fill="#1d1d1b"/><path d="m41.44 43.16c-.2-.07-.21-.92 0-1s4.25.29 4.33.59-.25.91-.25.91-3.96-.46-4.08-.5z" fill="#f2910d"/></svg>