<svg height="64" viewBox="0 0 64 64" width="64" xmlns="http://www.w3.org/2000/svg"><path d="m21.34 6.14c2.52-.31 4.41 2 3.28 5.34s-4.71 8-5.37 12.78.28 7.56 1.25 9.22a18 18 0 0 0 2.34 3.06s2.25-7.56 9.63-7.65 8.37 7.18 8.37 7.18 2.69-1.28 2.94-6.62-.56-10.79-2.78-14.83-3.41-6.09-3.28-6.62 1-2 6.1-1.08 11.73 6.28 14.44 11.7 2.29 14.2 1.33 20-5 13-8.62 16.38-7.84 3.29-9.67 2.46a19.23 19.23 0 0 1 -4.3-3.59 14.29 14.29 0 0 1 -5.75.87 9.89 9.89 0 0 1 -4.84-1.25s-3 4.58-8.33 4-9.58-6-11.75-10.88a32.26 32.26 0 0 1 -2.45-16.61c.67-6 4.5-12.79 6.5-15.58s5.34-7.6 10.96-8.28z" fill="#1d1d1b"/><path d="m21.63 8.07c2 .17 1.63 2.71.3 5.17s-3.88 5.92-4.59 10.88a15.49 15.49 0 0 0 2 10.83 14.33 14.33 0 0 0 3.05 3.54 28.07 28.07 0 0 0 -.21 7.33 18.61 18.61 0 0 0 2.41 6.59s-2.59 3.29-6.41 3.16-8-4-10.55-10.91-2.75-13.09-1.41-18.17a40.29 40.29 0 0 1 8-14.5c2.78-2.92 5.41-4.08 7.41-3.92z" fill="#f2910d"/><path d="m16.93 10.91a2.87 2.87 0 0 1 1.83-.84c1.12-.2 2-.16 2 0s0 .84-.21.84a3.13 3.13 0 0 0 -2.08.16c-.79.5-1.33 1-1.46.88a1.52 1.52 0 0 1 -.08-1.04z" fill="#1d1d1b"/><path d="m14.76 15.57c1.74-.3 2.46.88 2.29 2.8s-3.29 2.79-4.5 1.29.29-3.75 2.21-4.09z" fill="#1d1d1b"/><path d="m14.71 16.32c1.2-.21 1.69.6 1.58 1.92a1.87 1.87 0 0 1 -3.1.89c-.83-1.03.2-2.58 1.52-2.81z" fill="#ffe19b"/><path d="m9.55 27.78c1.11-1.37 5.58-1.46 5.5 3.59s-5.67 4.12-6.58 1.91a5.11 5.11 0 0 1 1.08-5.5z" fill="#1d1d1b"/><path d="m10.15 28.75c.78-1 3.92-1 3.86 2.51s-4 2.89-4.62 1.35a3.6 3.6 0 0 1 .76-3.86z" fill="#f2910d"/><path d="m11.63 40.2c1.51-1.78 6.17-1.46 6.42 3.37s-5.5 5.46-6.92 2.5-.62-4.54.5-5.87z" fill="#1d1d1b"/><path d="m12.28 41c1.13-1.33 4.62-1.09 4.81 2.52s-4.09 4.13-5.18 1.92-.47-3.44.37-4.44z" fill="#e7413e"/><path d="m14.34 50.91a4.85 4.85 0 0 0 2.25 2c1.46.54 2.13-.34 2.42-.25s.5.75.29.91a2.7 2.7 0 0 1 -3.42.09c-1.79-1.25-2.41-1.84-2.33-2.13s.79-.62.79-.62z" fill="#1d1d1b"/><path d="m32 30.66c2.71-.16 5.87.79 6.83 4.5s.67 10.16-.58 13.46-3.29 4.16-7 4.08-5.46-1.46-6.5-4.38-.71-11 .54-13.62 3.76-3.88 6.71-4.04z" fill="#a42116"/><path d="m30.47 32c2.19-.31 5.5-.42 6.91 3.71s-.16 12.29-1.08 12.45-2.21-2.09-5.5-1.92-3.29 1.88-4.25 1.76-1.33-6.12-.87-9.54 2.12-6.09 4.79-6.46z" fill="#1d1d1b"/><path d="m32 33c2.71 0 3.66 1.54 4.16 3.54a13.08 13.08 0 0 1 .42 3.5s-.83-1.54-1.08-1.46-.5.29-.34.5 1.42 1.54 1.42 2a6.92 6.92 0 0 1 -.12 1 17.62 17.62 0 0 0 -2-2.41.74.74 0 0 0 -.42.79c.08.33 2.37 2.87 2.37 3.21s-.12 1.16-.12 1.16-2.42-3.21-2.71-3.08-.58.54-.42.79a35.91 35.91 0 0 1 2.63 3.75.66.66 0 0 1 -.21.42l-.5-.25s-2.25-3.5-2.54-3.5-.71.21-.63.5 1.34 2.12 1.34 2.12l-1.25-.34c-.21 0-.46-1-.67-1.08s-.87.12-.75.33a2 2 0 0 1 .17.67 3.78 3.78 0 0 0 -2.13.29c-1 .5-1.54 1-1.71.75a40.45 40.45 0 0 1 .05-8.46c.38-2.54 2.04-4.83 5.04-4.74z" fill="#e7413e"/><path d="m31.43 34a.67.67 0 0 1 .62.67c0 .25-1.87 0-2.21 1.45s-.12 3.5-.37 3.55-1 .2-1.17 0a12.41 12.41 0 0 1 .33-4.25 2.93 2.93 0 0 1 2.8-1.42z" fill="#1d1d1b"/><path d="m39.8 8.49c.2-.44 5.46-1 11 3.5a19.89 19.89 0 0 1 7.71 15.67c0 5.33-.29 12.37-3.29 17.71s-5.17 8-6.38 9-1.84 1.25-1.84 1.04-1-4.13-1.34-4.25-.83 0-.75.12 1.35 4.34 1.09 4.42-.83.46-1 .21-1.25-4.46-1.46-4.5-1 0-.83.33 1.5 4.08 1.25 4.13a4.35 4.35 0 0 1 -1.13-.3s-1.08-3.5-1.33-3.5-.79 0-.71.34a15.81 15.81 0 0 1 .63 2.66c-.17 0-1.5-1-2.13-1.45s-1.41-1-1.25-1.25a13.06 13.06 0 0 0 3-7.88c.38-5.12.38-6.29.38-6.29s3.2-1.38 3.66-6.38.84-9.87-.75-14.2-4.7-8.75-4.53-9.13z" fill="#f2910d"/><path d="m43.13 10c.68-.11 4 1.17 4.13 1.63s.17.7-.21.66-2-.91-2.79-1.12-1.38-1.17-1.13-1.17z" fill="#1d1d1b"/><path d="m48.68 17.62c1.14-.77 4-.13 4.08 2.95s-3.25 3.43-4.67 1.63a3.24 3.24 0 0 1 .59-4.58z" fill="#1d1d1b"/><path d="m49.13 18.5a2 2 0 0 1 2.75 2 1.71 1.71 0 0 1 -3.14 1.09 2.18 2.18 0 0 1 .39-3.09z" fill="#ffe19b"/><path d="m48.43 29c1.43-1.31 5.87-.5 5.62 3s-3.71 3.71-5.67 1.79a3.06 3.06 0 0 1 .05-4.79z" fill="#1d1d1b"/><path d="m49.15 29.89c1-.89 4-.34 3.81 2s-2.51 2.51-3.84 1.21a2.07 2.07 0 0 1 .03-3.21z" fill="#f2910d"/><path d="m45.68 41c2-.75 5.25.5 4.79 4.37a3.74 3.74 0 0 1 -6.54 2.09c-1.55-2.09-1.38-5.34 1.75-6.46z" fill="#1d1d1b"/><path d="m46 42c1.46-.54 3.8.36 3.47 3.16a2.71 2.71 0 0 1 -4.73 1.51 2.91 2.91 0 0 1 1.26-4.67z" fill="#e7413e"/><g fill="#1d1d1b"><path d="m51 37.78c.06-.3.71-.33.83-.08s1.35 3.3 1.17 3.62-.88.46-1 .3a24.65 24.65 0 0 1 -1-3.84z"/><path d="m53.26 37.24c.17-.17.83-.42 1-.29s1.16 3 .83 3.42-.71.5-.87.33a13.06 13.06 0 0 1 -.96-3.46z"/><path d="m55.22 36.41c.11-.22.54-.42.71-.25s.54 1.41.37 1.54-.71.5-.79.25a9.41 9.41 0 0 1 -.29-1.54z"/><path d="m46.59 50.66c.12-.24.88-.29.92-.17s1.12 3 .87 3.25-.58.5-.7.33a16.14 16.14 0 0 1 -1.09-3.41z"/><path d="m48.59 50.16c0-.13.63-.29.75-.13a7.42 7.42 0 0 1 .42 2c-.08.13-.54.59-.67.38a9.41 9.41 0 0 1 -.5-2.25z"/></g></svg>