<svg height="64" viewBox="0 0 64 64" width="64" xmlns="http://www.w3.org/2000/svg"><path d="m56.6 44.16a5.91 5.91 0 0 0 -4.34-3.81 3.78 3.78 0 0 0 -.13-1.41c-.22-.84-3.91-4.66-3.91-4.66s1.54-5 .63-7.09-2.34-6.41-8.09-7.69-9.47.13-9.47.13.18-8.28.12-10.13-.87-2.4-2.15-2.5-13.41-.18-15.41-.06-2.13 1.44-2.16 2.06 0 7.38.25 9.69a2.79 2.79 0 0 0 2.38 2.75c.47.09 5 .06 5 .06l.94 12.57s-.75 0-1.44 0a7 7 0 0 0 -1.72.43 10.9 10.9 0 0 0 -1.34-2.09c-.41-.28-2.94 2.38-2.94 2.38a7.88 7.88 0 0 0 -1.22 1.21c-.16.31 1.78 2.1 1.78 2.1l-.72.84a6.82 6.82 0 0 0 -4.28 2.66 10.78 10.78 0 0 0 -1 9.75 8.24 8.24 0 0 0 7.47 5.65c3.37.35 26.19-.46 29.91-.43s7.15.15 9.87-1.63 3.44-7.31 1.97-10.78zm-30.88-20.38c-.71 1.1-1.06 2.1-1.18 2.07a22.37 22.37 0 0 1 -.28-4.47 17.87 17.87 0 0 1 3.87 0 20.17 20.17 0 0 0 -2.41 2.4z" fill="#1d1d1b"/><path d="m14.26 34.88c.12-.1.87-1.13 1.15-1s1 1 .94 1.19-1 1.22-1.13 1.12a13 13 0 0 1 -.96-1.31z" fill="#ffe19b"/><path d="m13.47 35.63c.29.19 1.19 1.28 1.1 1.44s-.31.53-.47.43a7.57 7.57 0 0 1 -1.38-1.31c.04-.12.66-.62.75-.56z" fill="#fab900"/><path d="m16.19 19.94c-1.12 0-2.15 0-2.28-1.25a50.08 50.08 0 0 1 -.12-6.28 6.9 6.9 0 0 1 2.12 0 53.91 53.91 0 0 0 .09 5.53c.15.06.87.22.93 0s-.12-5.65.07-5.69a16.17 16.17 0 0 1 2.68 0 14.88 14.88 0 0 1 0 2.41c-.12 0-1.9.06-1.9.06s-.13.88 0 .94 1.84.06 1.84.06-.22 2.22 0 2.28.82.16.78 0a10.15 10.15 0 0 1 .07-2.22 10 10 0 0 1 2.75.07c0 .18-.22 2 0 2.06s.84.12.81 0a7.63 7.63 0 0 1 0-2.09c.16 0 1.28.18 1.28 0s.16-1.13 0-1.16l-1.31-.13s.25-4.9 0-5-.94-.1-.94.09-.06 4.98-.06 4.98h-2.44v-5.22s-.91-.13-.91.06a11.44 11.44 0 0 1 0 1.78c-.09.06-2.81.13-2.81.13a5 5 0 0 0 -.06-1.16c-.1 0-1.07-.09-1.07.06s.07 1.07 0 1.1-1.9.06-1.9.06v-2.16s-.29-.84.59-.87 6.59.22 10.12.22 4.66 0 4.85.22a96.52 96.52 0 0 1 -.1 10.5c-.18.09-6 .06-6.18.21s.87 14.29.62 14.38a5 5 0 0 1 -1.78.06c-.06-.12-.75-14-1.09-14.12a42.19 42.19 0 0 0 -4.65.09z" fill="#cbe7f5"/><path d="m26.38 12.28s.75-.18.78 0a32.31 32.31 0 0 1 0 4.29c-.15.06-.94.18-.94 0s.1-4.13.16-4.29z" fill="#1d1d1b"/><path d="m30.54 22.16c1.88-1.21 6.31-1.56 9.53-.88a11.05 11.05 0 0 1 6.25 4.38c.78 1.12 1 4.09.84 5.09a6.48 6.48 0 0 1 -.37 1.5 30.77 30.77 0 0 0 -2.6-3.5c-.18.1-.62.25-.5.41s2.72 3.69 2.69 3.84-.19.82-.31.78a4.31 4.31 0 0 0 -.63 0 40 40 0 0 0 -2.59-3.37c-.19 0-.69.16-.59.31s2.15 3.19 2.15 3.19l-.87-.09a23.82 23.82 0 0 0 -1.82-2.41c-.15 0-.81.37-.75.47a15.53 15.53 0 0 1 1.35 1.94c-.1.06-2.91.06-2.91.06s-.12-3.1-3-3.53-3.53.37-4.37 1.12-.44 2.6-.44 2.6-5.78 0-5.94-.1a15.51 15.51 0 0 1 .34-5.97 11.73 11.73 0 0 1 4.54-5.84z" fill="#e6e4da"/><path d="m31.57 23.5c.28 0 .56.69.47.85a7.88 7.88 0 0 0 -2.44 2.22c-.94 1.46-.84 1.78-1.06 1.87a1.55 1.55 0 0 1 -.85-.06 9.46 9.46 0 0 1 1.13-2.69 6.86 6.86 0 0 1 2.75-2.19z" fill="#1d1d1b"/><path d="m44.88 27.41s.41-.53.59-.41a3.75 3.75 0 0 1 .88 1.35c0 .22-.34.68-.5.59a7.57 7.57 0 0 1 -.97-1.53z" fill="#1d1d1b"/><path d="m32.85 34.1c-.25.08-.47-.63-.41-1a2.44 2.44 0 0 1 3.32-1.78c2.37.87 2.65 2.65 2.31 2.75s-5.07-.07-5.22.03z" fill="#1f4863"/><path d="m18.79 35.82c.4-.17 13.65-.13 19.72-.16a65.72 65.72 0 0 1 8.65.25c.31.09 2.66 3.12 2.38 3.16a17.35 17.35 0 0 1 -2.66-.07 21.32 21.32 0 0 0 -1.19-2.09c-.12 0-1.06-.13-1 0s1.41 2.16 1.19 2.16a6.89 6.89 0 0 1 -1.34 0 17.07 17.07 0 0 0 -1.38-2.28c-.19 0-1 0-.94.25s1.38 2.06 1.16 2.09-1.44 0-1.44 0a13.68 13.68 0 0 0 -1.09-2.13c-.16 0-1 0-1 .13s1.28 2 1.12 2.06-1.12 0-1.12 0a10 10 0 0 0 -1-2c-.22-.06-.91 0-.94.19s.84 1.87.69 1.94-6.82-.07-10.63-.07-10.97-.25-11.75-.25-.71-.09-.62-.25a35 35 0 0 1 3.19-2.93z" fill="#85bfe9"/><path d="m12.32 40.5c.4-.12 16.9 0 21.81-.06s14.72-.06 17.22.69 4 3.25 4.09 6.31-.31 5.47-3.28 6.81-18.34 1-25.9 1.16-13 1-15.44-1.53a9.92 9.92 0 0 1 -2.38-8.5c.5-2.1 1.94-4.28 3.88-4.88z" fill="#e7413e"/><path d="m14.35 42.13c2-.63 30.87-.5 33.62-.22a5.71 5.71 0 0 1 5.44 5.19c.28 3.12-.56 5.62-3.25 6.28s-22.5 1-29 .84-9.06-.37-10.22-3.94.38-7.21 3.41-8.15z" fill="#a42116"/><path d="m16.91 43.25c2.87-.21 5.63 2.53 5.25 6.22s-5.5 4.91-8.06 3.1-3.91-8.82 2.81-9.32z" fill="#e7413e"/><path d="m31.85 42.85c2.87-.22 5.62 2.53 5.25 6.22s-5.5 4.93-8.1 3.09-3.87-8.81 2.85-9.31z" fill="#e7413e"/><path d="m46.35 42.72c2.87-.21 5.62 2.53 5.25 6.22s-5.5 4.91-8.06 3.06-3.91-8.78 2.81-9.28z" fill="#e7413e"/><g fill="#1d1d1b"><path d="m16.35 46.75c1.12-.38 2.16-.22 2.44 1.13a1.78 1.78 0 0 1 -2.66 1.78c-1.47-.66-.78-2.56.22-2.91z"/><path d="m30.63 47c.7-1 1.64-1.42 2.64-.49a1.78 1.78 0 0 1 -1.14 3c-1.6.23-2.13-1.69-1.5-2.51z"/><path d="m48.51 47.15c.23 1.17-.07 2.17-1.44 2.27a1.78 1.78 0 0 1 -1.42-2.87c.88-1.36 2.65-.43 2.86.6z"/></g></svg>