<svg height="64" viewBox="0 0 64 64" width="64" xmlns="http://www.w3.org/2000/svg"><path d="m16 18.6s4.38-12 4.71-12.21a3.07 3.07 0 0 1 1-.29s-.21-2.59.21-2.67 4.62-.21 4.71.25.08 2.37.08 2.37.54-.33.62 0-.41 7-.12 7.17a2.15 2.15 0 0 0 .75.21s.12-.83.33-.83 7.42-.17 7.54 0 0 .46.17.5.54.21.63.08-.17-7 .08-7a3.92 3.92 0 0 1 .71 0s-.54-2.38-.13-2.42 3.46-.16 3.59.17a16.34 16.34 0 0 1 .22 2.07s.67-.12.84 0 5.71 10.5 5.75 10.25-.17-.87.12-1 3.59-.38 3.67.08.08 3 .08 3 1.59-.33 1.63 0 .91 22.42.5 25-1.84 9.46-7.17 12.42-8 3.12-8 3.12a2.86 2.86 0 0 1 -1.63 1.38 52.24 52.24 0 0 1 -9.5.08 2.57 2.57 0 0 1 -1-1.25s-6.16-.62-9.83-4.08-5.79-7.25-6.13-11.88-.08-24.58.38-24.75a2.92 2.92 0 0 1 1.17 0s-.25-2.58 0-2.58 3.25-.29 3.29 0-.17 2.58 0 2.62a5 5 0 0 0 .73.19z" fill="#1d1d1b"/><path d="m22.77 5.89c-.12 0-.29-1.54 0-1.59s3-.2 2.92.09.29 1.41 0 1.5-2.69-.04-2.92 0z" fill="#85bfe9"/><path d="m22.1 7.55a23.39 23.39 0 0 1 3.42-.12c-.08.17-.17 7.17.13 7.29s1.91.5 1.91.5l-1.29 7.08s-1-1.45-1.17-1.41-.54.29-.41.37 1.31 1.79 1.31 1.79v1.13l-1.09.33a25.14 25.14 0 0 0 -2.12-2.87c-.21 0-.79.25-.63.46s1.84 2.66 1.84 2.66l-1 .59a19.52 19.52 0 0 0 -2.33-2.67c-.25 0-.58.25-.46.46s2.21 2.37 2 2.5-.58.54-.58.54a22.91 22.91 0 0 0 -2.46-2.58c-.17.08-.37.83-.37.83l2.25 2.25-.55.46a5.23 5.23 0 0 1 -3.54-3.59c-.75-2.87-.62-2.62-.62-2.62s5.51-13.29 5.76-13.38z" fill="#e6e4da"/><path d="m12.9 18.43s-.42-1.58-.13-1.54 1.46-.29 1.5 0 .13 1.54-.08 1.58a11.78 11.78 0 0 1 -1.29-.04z" fill="#92a0d1"/><path d="m38.31 5.85s-.12-1 .09-1a5 5 0 0 1 1.62 0c0 .12.17 1.2 0 1.2s-1.71-.2-1.71-.2z" fill="#85bfe9"/><path d="m38.52 7.68h2.33l5.67 10.83a21.37 21.37 0 0 0 -2.21-1.62c-.12 0-.5.41-.29.54a13 13 0 0 1 2 1.75c0 .16 0 1.37-.25 1.54s-2.5-2.25-2.63-2.21-.33.54-.33.54a25 25 0 0 1 2.67 2.54 8.13 8.13 0 0 1 -.48 1.3 33.54 33.54 0 0 0 -3.08-2.67c-.17.08-.46.46-.38.63s3 2.58 2.88 2.87a3.34 3.34 0 0 1 -.67.75 35.18 35.18 0 0 0 -3-3.08c-.21 0-.75.58-.46.71a18.67 18.67 0 0 1 3 2.95l-.62.46s-2.8-3-3-3-.5.67-.33.75 1.66 1.79 1.66 1.79a9 9 0 0 0 -1.71-.62c-.46 0-.75 0-.75 0l-1.94-9.58s2-.55 2-1-.08-6.17-.08-6.17z" fill="#e6e4da"/><path d="m48.81 16.22c0-.13 1.84-.17 1.88.13s.08 1.79-.09 1.83-1.83 0-1.83 0 .08-1.75.04-1.96z" fill="#92a0d1"/><path d="m12.31 20a14 14 0 0 1 2.69-.07s.13 4.21.92 5.5a24.46 24.46 0 0 0 3 3.37 12.53 12.53 0 0 0 -2 4.63 15.59 15.59 0 0 0 -.08 3.75s-1.5.67-3 1.46a22.54 22.54 0 0 0 -2.21 1.25s.37-19.59.68-19.89z" fill="#ddc07c"/><path d="m47.65 20.14c.2 0 3.66 0 3.75.21s.6 16.65.66 18.65a12 12 0 0 1 -.12 2.92 13 13 0 0 0 -2.59-1.58 11.4 11.4 0 0 1 -1.5-.67s.46-4.75-.45-7.79-1.3-3.5-2.21-4.38a9.15 9.15 0 0 0 -1.21-1 10.6 10.6 0 0 0 2.71-3.21 15.1 15.1 0 0 0 .96-3.15z" fill="#ddc07c"/><path d="m29.44 14.14c.23-.36 4.91-.21 5.12 0s1.09 5.37 1.09 5.37-1-1-1.13-.87-.29.58-.17.66a9.54 9.54 0 0 1 1.55 1.3c0 .2.2 1.08.2 1.08a9 9 0 0 0 -1.37-1.08c-.13 0-.29.75-.13.91a19.28 19.28 0 0 1 1.63 1.63c.08.21.58 2.12.58 2.12s-2-2.46-2.25-2.37-.37.83-.25 1 2.59 2.5 2.63 2.67.33 1.66.33 1.66-2.92-3.37-3.12-3.22a.9.9 0 0 0 -.21.92c.08.37 3.46 3.71 3.62 4.08s.59 2.83.59 2.83-4.15-5.4-4.38-5.19a1.42 1.42 0 0 0 -.17 1.12c.09.13 4.59 5.42 4.67 5.67a5.83 5.83 0 0 1 .13.87l-1.13-.3s-4.37-5.25-4.54-5.16-.29.66-.21.83 3.58 4.08 3.33 4.08a4.87 4.87 0 0 1 -.87-.08c-.13 0-2.58-2.54-2.71-2.54a.86.86 0 0 0 -.27.87 18.45 18.45 0 0 0 1.5 1.58 20.54 20.54 0 0 0 -3.83.05 25.29 25.29 0 0 0 -3.63.45s3.06-20.44 3.4-20.94z" fill="#e6e4da"/><path d="m25.19 26.8c.3-.14-.75 8.3-.75 8.3a20.65 20.65 0 0 0 -3.13.75c-1.46.5-3 1-3 1s.17-4.3 1.79-6.5 4.38-3.21 5.09-3.55z" fill="#e6e4da"/><path d="m22.19 30.14c.23-.12.66.33.54.66s-.92.63-1.21 1.71-.08 1.79-.29 1.79-.63.09-.71 0a4.88 4.88 0 0 1 .13-2 4.7 4.7 0 0 1 1.54-2.16z" fill="#1d1d1b"/><path d="m39.06 26.3c.21 0 5 1.09 6.17 5a22.39 22.39 0 0 1 .83 7.59 13.84 13.84 0 0 0 -3-1.75 25.51 25.51 0 0 1 -2.46-1.05z" fill="#e6e4da"/><path d="m12 41.22c0-.13 10.71-5.54 20.71-4.92s18.89 7.63 18.89 7.63l-1 4s-8.5-6.93-12.25-8.75a15.79 15.79 0 0 0 -13.54.54c-3.87 2.28-11.29 7.79-11.29 7.79a12.11 12.11 0 0 1 -1.52-6.29z" fill="#ddc07c"/><path d="m14.77 40.64a1.92 1.92 0 0 1 2.63 2.46 1.94 1.94 0 0 1 -3.55.54 2.51 2.51 0 0 1 .92-3z" fill="#1d1d1b"/><path d="m15.16 41.52a1 1 0 0 1 1.38 1.3 1 1 0 0 1 -1.87.28 1.31 1.31 0 0 1 .49-1.58z" fill="#85bfe9"/><path d="m49.87 43.47a1.51 1.51 0 0 1 -2.32 1.63 1.53 1.53 0 0 1 .16-2.82 2 2 0 0 1 2.16 1.19z" fill="#1d1d1b"/><path d="m49.13 43.63a.83.83 0 1 1 -1.13-.63 1 1 0 0 1 1.13.63z" fill="#85bfe9"/><path d="m20.19 45.1s5.25-5.8 12.41-5.5 12.13 5.66 12.13 5.66-1.46 1.42-2.83 2.79a10.68 10.68 0 0 1 -2.71 2s.12-4.2-.38-5.58-1.87-1.54-3.29-1.54-7.29 0-8 .12-1.5 1-1.58 3a26.71 26.71 0 0 1 -.25 4 10.12 10.12 0 0 1 -5.5-4.95z" fill="#e6e4da"/><path d="m22.52 44.72c.13 0 .54 1.21 1 1.83s1.17.84 1.29 1.05a.79.79 0 0 1 -.12.75 4.68 4.68 0 0 1 -2.21-1.3c-.58-.66-1.21-1.54-1-1.83a1.54 1.54 0 0 1 1.04-.5z" fill="#1d1d1b"/><path d="m18.48 46.3a38 38 0 0 0 3.29 3.55 10.65 10.65 0 0 0 3.88 2s0 5.12-.3 5.16a15.19 15.19 0 0 1 -6.83-3 16.33 16.33 0 0 1 -4-4.79 41.09 41.09 0 0 1 3.96-2.92z" fill="#ddc07c"/><path d="m18.56 49.05c.19 0 .42.34.38.59a6.26 6.26 0 0 1 -1.54 1.58c-.21 0-.67-.17-.55-.46a7.48 7.48 0 0 1 1.71-1.71z" fill="#1d1d1b"/><path d="m20 50.93c.15-.08.75.33.67.54a9.29 9.29 0 0 1 -1.59 1.88c-.12-.09-.62-.21-.5-.42a18.6 18.6 0 0 1 1.42-2z" fill="#1d1d1b"/><path d="m22 52.51c.15-.22.88.13.71.46a10.41 10.41 0 0 1 -1.21 1.92c-.12 0-.62 0-.54-.25s.98-2 1.04-2.13z" fill="#1d1d1b"/><path d="m27.85 44.64c.43-.43 8.84-.09 9.13.25s.21 13.37-.08 13.46-8.71.33-9.09-.13-.12-13.42.04-13.58z" fill="#e6e4da"/><path d="m30.6 46.47a2.91 2.91 0 0 1 4.46 1.33c.88 2.46-1.25 4.05-3.33 3.67a2.83 2.83 0 0 1 -1.13-5z" fill="#1d1d1b"/><path d="m31.34 47.41a1.69 1.69 0 0 1 2.6.78 1.61 1.61 0 0 1 -1.94 2.13 1.64 1.64 0 0 1 -.66-2.91z" fill="#92a0d1"/><path d="m31.11 53.91a2.07 2.07 0 0 1 3.18 1 2 2 0 0 1 -2.37 2.61 2 2 0 0 1 -.81-3.61z" fill="#1d1d1b"/><path d="m31.64 54.58a1.21 1.21 0 0 1 1.86.55 1.16 1.16 0 0 1 -1.39 1.53 1.17 1.17 0 0 1 -.47-2.08z" fill="#e7413e"/><path d="m39.06 51.6a14.64 14.64 0 0 0 4-2.42c2.13-1.75 2.92-2.67 3-2.71s3.54 2.79 3.58 3.21-2 3.58-4.71 5.17a22.89 22.89 0 0 1 -5.67 2.54 35.17 35.17 0 0 1 -.2-5.79z" fill="#ddc07c"/><g fill="#1d1d1b"><path d="m40.15 52.6a.5.5 0 0 1 .62-.3c.25.13 1.63 2.05 1.38 2.38a1.29 1.29 0 0 1 -1 .42 12.69 12.69 0 0 1 -1-2.5z"/><path d="m42.56 51.51c0-.17.34-.33.5-.33s1.63 1.58 1.38 1.83a4.62 4.62 0 0 1 -.75.54s-1.09-1.83-1.13-2.04z"/><path d="m44.81 49.55c0-.2.46-.5.59-.41s1.79 1.91 1.62 2.25-.29.46-.58.54-1.63-2.13-1.63-2.38z"/><path d="m22.66 9.35c.13-.09.62.09.62.25a24.21 24.21 0 0 1 -1.34 3.15c-.16.1-1 0-1-.12a26.19 26.19 0 0 1 1.72-3.28z"/></g></svg>