<svg height="64" viewBox="0 0 64 64" width="64" xmlns="http://www.w3.org/2000/svg"><path d="m19 34.29a19.31 19.31 0 0 1 -.94-14c2.5-7.5 7.81-12.06 10.75-13.37s6.69-2.5 7.87-1.38 6.72 16.65 6.72 16.65l4.13-.59s.08-2.6 3.29-2.6 4 3.75 3.12 5-3.66 1.38-4.21 1.21l-.95-.21a31.72 31.72 0 0 0 -3.17 2.16c0 .17 6 14.92 5.87 15.67a5.88 5.88 0 0 1 -2.08 2.63c-.75.5-4.71 3.29-11.71 2.45a25.63 25.63 0 0 1 -13.41-6.16 23.15 23.15 0 0 1 -3.8-4.75l-1.75 1.1 5.63 9.63s6.5-.38 11 3.25 4.41 7.37 4.12 7.66-29.62.36-29.7.09-.42-2.92 2.45-5.73a24.74 24.74 0 0 1 7.25-4.46s-3.37-7.92-3.58-8a4.4 4.4 0 0 1 -3.33-2.66 3.2 3.2 0 0 1 1.91-4.3 4.15 4.15 0 0 1 3.34.71 2.18 2.18 0 0 1 .5.63z" fill="#1d1d1b"/><path d="m35 6.77c.56-.06 7.09 16.67 7.09 16.67s-1.46-.13-1.42 0-.12.66.08.66 1.59.13 1.63.3 1.5 3.75 1.5 3.75a18 18 0 0 0 -2.65-1.15c-.08.12-.29.54 0 .75s2.77 1.35 2.88 1.56 1.92 4 1.92 4-5-3.67-5.05-3.5-.37.75-.2.83 5.37 3.59 5.54 3.88 2.16 4.79 2 4.75-7.38-5.27-7.5-5.17-.42.88-.25 1 8 5 8.21 5.38a13.52 13.52 0 0 1 .87 2.25.77.77 0 0 1 -.46.5c-.16 0-8.83-5.75-9.08-5.67s-.58.63-.42.75 8.88 5.42 8.67 5.63-2.29 1.25-2.29 1.25-7.07-4.55-7.29-4.55-.63.34-.5.46 7.12 4.38 6.91 4.5a10.37 10.37 0 0 1 -2 .63 3.51 3.51 0 0 1 -1 .08s-4.75-3.67-4.95-3.67-.8.34-.5.55 4.58 3.16 4.37 3.25a21.71 21.71 0 0 1 -10.11-2.17c-5-2.42-10.35-8.33-11.56-13.71a21.26 21.26 0 0 1 3.71-16.42c3.25-4.08 8.21-6.95 11.85-7.37z" fill="#cbe7f5"/><path d="m29.65 11.14c.35-.09.67 1 .54 1.25s-2.46 1.13-3.25 3-.75 2.34-.91 2.59-.8.37-.92.12a6.64 6.64 0 0 1 1.29-3.67c1.13-1.79 2.33-3.04 3.25-3.29z" fill="#1d1d1b"/><path d="m43.9 23c.09-.19 4.33-.63 4.46-.88s.29-3 3.08-2.29 1.67 4 .34 4.38-2.84-.42-3.17-.21a31.31 31.31 0 0 1 -3.38 2.12 11.89 11.89 0 0 1 -1.33-3.12z" fill="#e6e4da"/><path d="m14.61 34.44a2.21 2.21 0 0 1 2.25 0c.87.5 1 .83.92.91s-.92.59-.8.75.17.75.46.55 1.79-1.63 2-1.42.83.83.54 1-2.33 1.5-2.21 1.75 5.84 9.54 5.55 9.67-3 .54-3 .54l-3.59-8.09s.71-.41.67-.62 0-.59-.17-.54a3.57 3.57 0 0 1 -1.62.5c-.63-.09-2.5-1-2.38-2.67s.71-2.08 1.38-2.33z" fill="#e6e4da"/><path d="m16.15 35.39c.24 0-.08.5-.21.63s-1 .42-.83 1 .83.54 1 1 .25.62 0 .62-1.88.29-2.13-1.29 1.17-2.16 2.17-1.96z" fill="#1d1d1b"/><path d="m12.28 56.89c-.54-.1 1-3.79 5.54-5.79s6.25-2.46 12-1.12 7.71 7 7.42 7.29a7.94 7.94 0 0 1 -3.13.08c-.08-.16-2.62-3.41-3-3.5s-.79.09-.63.29a32.45 32.45 0 0 1 2.46 3.13c-.16 0-1.21 0-1.21 0a19.81 19.81 0 0 0 -2.41-2.58c-.25 0-.75.33-.54.5s2 2 1.83 2-1.08 0-1.08 0a18.62 18.62 0 0 0 -1.84-1.79c-.21 0-.58.25-.54.42s1.29 1.25 1 1.37-15.25-.19-15.87-.3z" fill="#e7413e"/><g fill="#1d1d1b"><path d="m32.44 53.14c-.15-.22.46-.54.75-.41a19 19 0 0 1 2.88 3.62c-.13.21-.63.42-.75.29s-2.79-3.37-2.88-3.5z"/><path d="m15.78 55c-.15-.09.2-1 .75-1.63s.66-.83 1-.79.79.17.62.46-1 .75-1.12 1.29-.09.63-.25.71a1.21 1.21 0 0 1 -1-.04z"/><path d="m20.86 51.73a2.13 2.13 0 0 1 3.14 1.5c.41 1.83-2.88 3.37-4 1.75a2 2 0 0 1 .86-3.25z"/></g><path d="m21.3 52.57a1.16 1.16 0 0 1 1.71.81c.22 1-1.56 1.82-2.14.95a1.1 1.1 0 0 1 .43-1.76z" fill="#fab900"/><path d="m25.44 50.56a2 2 0 0 1 2.38.21c.41.54-.09 1.46-.92 1.92s-2 0-2.17-.59a1.2 1.2 0 0 1 .71-1.54z" fill="#1d1d1b"/><path d="m26.36 50.89c.61-.13 1 .17.75.59s-1.08.79-1.42.5-.29-.88.67-1.09z" fill="#fab900"/></svg>