<svg height="64" viewBox="0 0 64 64" width="64" xmlns="http://www.w3.org/2000/svg"><path d="m6.9 48.93s-2.08.07-2.25-1.75-.33-4.67 3.59-8 6.66-3.34 10.5-9.42 5.58-16.83 6.83-19.58 1.83-6.92 7.33-7.18 6.34 4.75 7.42 9.17 3.42 14.33 7.92 19.91 8.5 7.76 10.25 12.92.58 6.42.16 6.5-4.41.33-4.41.33a7.34 7.34 0 0 1 .14 2.17c-.19.31-4.37.87-7.06.81s-4.38-.25-4.38-.62-.18-1.75-.18-1.75l-1.82.12s.44 2.5-.06 3.25a3.78 3.78 0 0 1 -2.25 1.19 6.7 6.7 0 0 1 -.81.06s.5 2.81.19 3.31-4.07.69-7.88.63-5.62-.13-5.69-.75a31.67 31.67 0 0 1 .32-3.38s-3.07-.18-3.38-1a18.08 18.08 0 0 1 -.06-4.06h-2.19a2.64 2.64 0 0 1 -.06 1.19c-.19.37-4.69.62-8 .31s-4.38-1.25-4.38-1.56.21-2.82.21-2.82z" fill="#1d1d1b"/><path d="m7.94 47.3s-1.31-.12-1.25-.56.75-5.56 4.19-7.06 8.5-1.88 10.81-4.38 3.69-8.75 3.94-11.5 0-9.12 1.19-12.44 2-6.86 6.69-6.87c7.48 0 7.25 27.56 10.62 29.75a17 17 0 0 0 5.38 2.56 16.46 16.46 0 0 1 6.25 6.88c1.87 4.37 1.5 6.43 1.5 6.43l-2.94.25a5.54 5.54 0 0 0 -5.56-4.87c-5.07-.13-5.76 5.87-5.76 5.87s-2.25.63-2.13.19-.31-14.87-1.06-17.62-2.38-3.57-3.06-3.69-1.13 1.44-1 1.62 1.93 0 2.31 5.82 1.31 16.87.62 17.37-4.81 1.06-9.06.81-5.56-.31-6.06-1.43.94-17.63 1.5-19.88 1.5-2.56 2.25-2.75a.91.91 0 0 0 .69-1.19c-.13-.31-1.19-.37-2.19-.12s-2.69 1.69-3.19 7.31-.94 12.5-1.12 12.5-3.32-.25-3.32-.25.57-6-4.56-6.25-5.68 3.5-5.68 3.5z" fill="#cbe7f5"/><path d="m13.44 45.43a3 3 0 0 1 2.94 3.06c0 1.56.13 2.87-.25 3a17.3 17.3 0 0 1 -4.44-.06c-2.18-.25-2.56 0-2.56-.88s-.37-5.37 4.31-5.12z" fill="#e7413e"/><path d="m48.69 47.18c3.06-.2 4 5 3.44 5.31a13.26 13.26 0 0 1 -4.06.44c-2 .06-3 0-3.13-.94s-.06-4.56 3.75-4.81z" fill="#e7413e"/><path d="m24 23.68c.25 0 .31 3.62-1.07 7s-3.5 5.12-4.81 5.5a14.78 14.78 0 0 1 -2.94.43s4.25-2.87 6.13-6.87 2.69-6.06 2.69-6.06z" fill="#1f4863"/><path d="m42.65 25a32 32 0 0 0 2.73 6.16c1.63 2.63 3.69 3.75 3.25 4s-3.31-.86-4.63-3.36a14 14 0 0 1 -1.35-6.8z" fill="#1f4863"/><path d="m27.38 16.43c-.06-.31.38-10.5 5.5-10.63s5.25 11.38 4.75 11.56-2-.93-5.62-.62-4.44.69-4.63-.31z" fill="#1d1d1b"/><path d="m28.69 15.49c-.32-.19.63-8.75 4.38-8.38s3.75 8.25 3.19 8.38-2.07-.44-3.94-.38-3.19.63-3.63.38z" fill="#1f4863"/><g fill="#1d1d1b"><path d="m36.51 20.36c.3-.25 2.25.82 2.18 1.38s.13.81-.18.75a9 9 0 0 1 -2.57-1.31c-.12-.32.19-.5.57-.82z"/><path d="m35.63 23.55c.18-.18 2.94 1.44 3 1.88s.38 1-.06.93-3.44-1.62-3.5-2 .37-.62.56-.81z"/><path d="m34.88 26.11c.31.07 4.19 1.82 4.06 2.25s.25.75-.31.63-4.19-1.75-4.19-2.25a.65.65 0 0 1 .44-.63z"/><path d="m29.32 34.08c.35-.26 1 .25 2.66.32s2.75 0 2.75 0 .12.62 0 .81a9.3 9.3 0 0 1 -2.69.28 12 12 0 0 1 -2.85-.44.94.94 0 0 1 .13-.97z"/><path d="m29.35 39c.35-.27 1 .25 2.66.31s2.75 0 2.75 0 .12.63 0 .81a9 9 0 0 1 -2.69.28 12.47 12.47 0 0 1 -2.84-.43.91.91 0 0 1 .12-.97z"/><path d="m29.26 44.65c.35-.27 1 .25 2.65.31s2.75 0 2.75 0 .13.62 0 .81a8.85 8.85 0 0 1 -2.68.28 12 12 0 0 1 -2.85-.44.92.92 0 0 1 .13-.96z"/><path d="m49.82 38.65c.12.15 2.41 2.09 2.34 2.37s-.18.41-.28.34a31.15 31.15 0 0 1 -2.47-2c-.06-.15.41-.71.41-.71z"/><path d="m47.35 39.33c.28 0 4.22 3.19 4.16 3.57s-.16.62-.32.62-4.43-3.31-4.4-3.59.56-.6.56-.6z"/><path d="m46.29 41.93a12.19 12.19 0 0 1 2.9 2.12c-.12.16.29.38-.37.35a9.48 9.48 0 0 1 -3-1.72c-.06-.19.31-.68.47-.75z"/></g><path d="m26.11 57.26c.07-.1 2.46.21 5.21.12a50.91 50.91 0 0 1 5.12-.2 8.22 8.22 0 0 1 .21 2.5 33 33 0 0 1 -6 .29c-2.7-.09-4.54 0-4.75-.29a5.38 5.38 0 0 1 .21-2.42z" fill="#e7413e"/></svg>