<svg height="64" viewBox="0 0 64 64" width="64" xmlns="http://www.w3.org/2000/svg"><path d="m15.25 20.59s1.37-8.69 9.5-12.44 14.18-2.09 19.06 2.63a14.72 14.72 0 0 1 4.69 9.81s1.19-.62 1.5-.31a5.54 5.54 0 0 1 1.25 3.94c0 2.43-.81 3.81-1.25 4.12a17.76 17.76 0 0 1 -2.63.94 6.75 6.75 0 0 1 -.75 1.72 7.43 7.43 0 0 1 -1.31 1.75s2.63 7.56 2.5 8-1.94 1-1.94 1 5.25 14.37 5 14.94-3.06 1.43-3.37 1.12-5.69-15.41-5.69-15.41a1.12 1.12 0 0 1 -1.5-.75l-2-4.71a10.85 10.85 0 0 1 -1.9.46l-1.91.35s.25 4 .12 4.09a1.53 1.53 0 0 1 -.56.13s.56 13.43.44 13.59a11.58 11.58 0 0 1 -3 .06c-.38-.09-.5-13.59-.6-13.72s-.87-.43-.87-.56 0-3.47-.09-3.53a10 10 0 0 0 -1.16-.16s-1.94 4.63-2.38 5.22a2.09 2.09 0 0 1 -1.5.6s-4.78 13.37-5.12 13.53-3.41-.63-3.47-.94 4.72-14 4.72-14-1.09-.69-1-1.31.66-5.84.66-5.84a10.34 10.34 0 0 1 -3.85-3.57c-1.22-2.22-1.06-2.4-1.06-2.4s-2.56-.66-2.75-1.82-.47-5.56 0-6.09 2.22-.44 2.22-.44z" fill="#1d1d1b"/><path d="m16.5 20.56s2.31-6.12 5.91-9a15.55 15.55 0 0 1 12.28-3.5 15 15 0 0 1 9.47 6.13c1.65 2.59 2.5 7.09 2.25 7.28a1.58 1.58 0 0 1 -.6.25s-3.19-6.19-3.4-6.16-.88.38-.66.66a64.38 64.38 0 0 1 3.37 5.81 9.29 9.29 0 0 1 -1.09.31s-2.53-4.25-2.75-4.31-.56.25-.5.41 2.63 4.15 2.41 4.22-1.35.25-1.35.25-1.9-2.94-2-2.94-.75.4-.69.59 2.25 2.44 2 2.56a15.58 15.58 0 0 1 -1.78.41 18.36 18.36 0 0 0 -1.09-1.94c-.13 0-.88.38-.81.47a11.71 11.71 0 0 1 1 1.72c-.1.06-2.57.72-9 .41s-9.22-1-11-1.78-1.97-1.85-1.97-1.85z" fill="#fab900"/><path d="m14.56 22.47c.18-.13 2.22 1.56 5.47 2.18a37.28 37.28 0 0 0 11.59 1.16 52.4 52.4 0 0 0 12.88-1.81c1.91-.66 4.19-1.94 4.47-1.5a5.61 5.61 0 0 1 .22 2.81 4.46 4.46 0 0 1 -1.1 2.31c-.12.16-9.09 2.75-14.87 2.78s-12.41-.65-15.53-2.12-3.1-1.47-3.13-1.69-.28-3.94 0-4.12z" fill="#cbe7f5"/><g fill="#1d1d1b"><path d="m24.84 26.09a1.48 1.48 0 0 0 -.84 2.56 1.6 1.6 0 0 0 2.56-.5c.44-.96-.56-2.08-1.72-2.06zm.88 1.75a.71.71 0 0 1 -1.13.22.65.65 0 0 1 .41-1.13c.48-.01.94.48.72.91z"/><path d="m17.81 24.56a1.48 1.48 0 0 0 -.87 2.56 1.61 1.61 0 0 0 2.56-.5c.5-.97-.56-2.08-1.69-2.06zm.88 1.75a.71.71 0 0 1 -1.13.22.65.65 0 0 1 .44-1.13c.44-.01.91.48.69.91z"/><path d="m34.08 27.09a1.48 1.48 0 0 0 -2.69.34 1.61 1.61 0 0 0 1.61 2.08c1.06.03 1.6-1.42 1.08-2.42zm-1.19 1.56a.71.71 0 0 1 -.69-.92.66.66 0 0 1 1.19-.15c.22.42-.02 1.08-.5 1.07z"/><path d="m40.53 26.23a1.48 1.48 0 0 0 -2.56.88 1.62 1.62 0 0 0 2 1.72c1.03-.21 1.27-1.73.56-2.6zm-.84 1.77a.71.71 0 0 1 -.87-.76.66.66 0 0 1 1.18-.39c.26.38.16 1.06-.31 1.15z"/><path d="m44.44 25.71a1.48 1.48 0 0 0 2.36 1.29 1.61 1.61 0 0 0 0-2.61c-.88-.63-2.18.21-2.36 1.32zm1.88-.54a.71.71 0 0 1 0 1.15.65.65 0 0 1 -1-.59c.05-.49.62-.86 1-.56z"/></g><path d="m18.12 29.87c0-.08 2.57 1.91 8.66 2s8.41.16 12.69-.62a40.16 40.16 0 0 0 6.12-1.47l-2.09 3.12c-.19.29 1.09 2.79 1 2.79s-1.44-.75-1.56-.54-.35.66-.19.75 1.81.69 1.94.75a3.17 3.17 0 0 1 .4.72s-2.22-.72-2.31-.68-.19.81 0 .87a17.82 17.82 0 0 1 2.47.75c.09.16.34.53.22.56a18.94 18.94 0 0 0 -2.53-.56c-.1.16-.16.53 0 .66s2.46.59 2.4.78a26.54 26.54 0 0 1 -3.56.9s-3-7.15-3.25-7.28-1.53.35-1.47.5.56 1.19.56 1.32a14.06 14.06 0 0 1 -4.34.93c-2 .13-4.13.22-4.13.22s.47-1 .35-1.12-1.5-.66-1.63-.47-2.06 6.62-2.47 6.69a6.83 6.83 0 0 1 -2.34-.44 3.42 3.42 0 0 1 -1.25-.66c0-.09 1.5-7.56 1.38-7.75s-1.6-.81-1.72-.56-.47 1.22-.47 1.22a8.18 8.18 0 0 1 -2.88-3.38z" fill="#85bfe9"/><path d="m22.56 42.87c.2 0 .94.25.91.35s-4.69 12.65-4.81 12.65a8.33 8.33 0 0 1 -.82-.18s4.53-12.85 4.72-12.82z" fill="#b2b2b3"/><path d="m31.66 37.72c.07-.24 1.34-.13 1.43.09s0 3.28 0 3.28-1.37.13-1.4 0-.07-3.28-.03-3.37z" fill="#85bfe9"/><path d="m32.44 42.47h.31s.62 9.62.5 9.75-.56.06-.56.06-.25-9.72-.25-9.81z" fill="#b2b2b3"/><path d="m43.41 42c.16-.09.71-.47.84-.35s4.78 12.85 4.66 13a1.39 1.39 0 0 1 -.82.22c-.09-.12-4.75-12.87-4.68-12.87z" fill="#b2b2b3"/><path d="m18.31 20.15a12.21 12.21 0 0 1 1.69-3.78 14.23 14.23 0 0 1 2.66-3.22c.18 0 .84.88.72.91a9.14 9.14 0 0 0 -2.79 3.19c-1 1.9-1.34 3.28-1.46 3.31a2.08 2.08 0 0 1 -.82-.41z" fill="#1d1d1b"/></svg>