<svg height="64" viewBox="0 0 64 64" width="64" xmlns="http://www.w3.org/2000/svg"><path d="m27.69 16.72a4.82 4.82 0 0 1 -.13-1.91 9.73 9.73 0 0 1 2.82-3.28 8.68 8.68 0 0 1 3.62-1.53 1.51 1.51 0 0 1 .78.5s7.38-2.53 12.41 1 6.34 6.06 6.34 10.75-3.31 8.59-3.31 8.59a6.23 6.23 0 0 1 -.4 2.54 9 9 0 0 1 -3.22 2.52c-1 .38-1.47.25-1.57.19s-1-.37-1-.37-.84-.28-1 .06-5.62 11.72-5.9 11.94-5.07 6.65-5.47 6.62-.66-.34-.56-.56 4.09-7.06 4-7.16a1 1 0 0 1 -.16-1c.19-.5 5.16-9.75 5.16-9.75a16.54 16.54 0 0 1 -3.57-.56 9.17 9.17 0 0 1 -2.21-1.22s-8.63 9.44-8.88 9.47a.71.71 0 0 1 -.47-.15s-9.72 10.15-9.94 10.12-.71-.56-.65-.72 8.43-10.75 8.4-10.81-.72-.91-.62-1.1 4-5.18 5.59-6.84a31.7 31.7 0 0 0 2.41-2.84 16.76 16.76 0 0 1 -1.41-1.54 6.41 6.41 0 0 1 -.59-.9s-8.85 8.53-9 8.56-.5-.22-.5-.22-7.1 6.81-7.38 6.78-1-.47-.84-.62 6.72-7.44 6.72-7.44-.53-.69-.41-1 5.38-5.5 6.56-6.72 2.85-2.81 2.85-2.81a15.38 15.38 0 0 1 .09-4.91 10.5 10.5 0 0 1 1.44-3.68z" fill="#1d1d1b"/><path d="m29.31 15.12a6.15 6.15 0 0 1 2-2.06 8.82 8.82 0 0 1 2-1 16.08 16.08 0 0 0 3.16 8.81c3.19 4.32 6.78 8 8.63 8.69s4.18 1 4.09 1.16a9.3 9.3 0 0 1 -2 2.56 3.79 3.79 0 0 1 -2.31.88 58.29 58.29 0 0 1 -7.88-6.44 27.81 27.81 0 0 1 -7.69-12.6z" fill="#cbe7f5"/><path d="m35.41 12.06a12.34 12.34 0 0 1 10 .47c5.18 2.5 6.28 8.81 6.28 8.81s-1.22-1.5-1.44-1.44-.44.41-.34.5a20.69 20.69 0 0 1 1.75 2c.06.25 0 1 .06 1.41a4 4 0 0 1 -.06.88 32.08 32.08 0 0 0 -2.63-3c-.22 0-.59.46-.44.59a29 29 0 0 1 2.85 3.16 5.3 5.3 0 0 1 -.72 1.56c-.12 0-2.69-3.82-2.84-3.88s-.72.38-.66.5 3 3.85 3 4.13-.66.68-.75.72-2.66-4.13-2.84-4.19-.72.25-.66.44 3 3.93 2.81 4.09a1.67 1.67 0 0 1 -.78.19s-2.65-4-2.84-4-.94.56-.75.72 2.56 3 2.28 3a24.77 24.77 0 0 1 -6.66-5.94c-2.5-3.34-5.03-8.59-4.62-10.72z" fill="#fab900"/><path d="m28.63 18.44a26.36 26.36 0 0 0 6.75 9.65c5.06 4.72 6.65 6 6.56 6.1a13.82 13.82 0 0 1 -3.69 0 6.47 6.47 0 0 1 -3.06-.88s1.16-1.09 1.06-1.19-.9-.78-.9-.78-10.1 11.1-10.25 11-1.85-1.28-1.75-1.44 10.06-11.9 10-12.09-.56-.72-.65-.62-1.25 1.53-1.25 1.53a14.59 14.59 0 0 1 -3-4.53c-.98-2.44-.35-6.57.18-6.75z" fill="#85bfe9"/><path d="m32.19 15.84c-1 .28-1.78 1.85-1 2.6a1.5 1.5 0 0 0 2.59-.79c.22-1.5-.66-2.08-1.59-1.81zm.58 1.6a.46.46 0 0 1 -.8.24c-.22-.23 0-.71.32-.79s.56.11.48.55zm2.48 4.21a1.34 1.34 0 0 0 -.87 2.25c.59.69 2.09.94 2.31-.56s-.81-1.76-1.44-1.69zm-.25 1.88c-.37-.19-.18-.94.25-1a.55.55 0 0 1 .6.59.58.58 0 0 1 -.85.41zm4.07 2.75c-1.32.31-1 1.72-.25 2.34a1 1 0 0 0 1.68-1 1.39 1.39 0 0 0 -1.4-1.34zm.65 1.56a.41.41 0 0 1 -.62-.06c-.19-.19-.22-.72.18-.66.23.03.63.53.47.72zm4.72 2.69a1 1 0 0 0 -1 1.44 1.16 1.16 0 0 0 1.84.15c.57-.56.06-1.54-.81-1.59zm-4.59-17.53a8.94 8.94 0 0 0 -2.63.62c-.09.1.16.88.34.91s.6-.31 2-.66a5.82 5.82 0 0 1 2.78.1 4.21 4.21 0 0 0 0-.91c-.12-.16-.99-.19-2.49-.06zm-10.25 9c-.1-.16-.88 0-.94.12a4 4 0 0 0 0 1.72 8.06 8.06 0 0 0 1 2.1c.09.12.87-.28 1-.53s-.22-.41-.66-1.35a4.89 4.89 0 0 1 -.4-2.06z" fill="#1d1d1b"/><path d="m26.63 26.44c.16 0 1 1.37.84 1.43s-8.31 8.41-8.5 8.35-1.31-1-1.19-1.22 8.6-8.5 8.85-8.56z" fill="#85bfe9"/><path d="m23.35 42.69.46.43s-4.56 5.32-4.68 5.28 4.15-5.65 4.22-5.71z" fill="#b2b2b3"/><path d="m41.25 36c0-.15.69 0 .69 0s-4.94 10.4-5.16 10.4-.78-.21-.78-.34 5.22-9.97 5.25-10.06z" fill="#85bfe9"/><path d="m35.69 47.4c.22 0 .47.13.37.19s-1.43 1.78-1.53 1.78a22.47 22.47 0 0 1 1.16-1.97z" fill="#b2b2b3"/></svg>