<svg height="64" viewBox="0 0 64 64" width="64" xmlns="http://www.w3.org/2000/svg"><path d="m56.62 28.46a20.57 20.57 0 0 0 -4.85-2.94s-1.18-3.35-2.4-5.85a16 16 0 0 0 -11-7.46c-5.31-.69-9.75-.94-16.13 2.15a22.19 22.19 0 0 0 -9.34 9.16 21.15 21.15 0 0 0 -6.19 3.12 5.68 5.68 0 0 0 .56 9.36 43.94 43.94 0 0 0 5.73 2.91 23.74 23.74 0 0 0 4.5 7.39c2.94 2.94 5.28 5.25 11.63 5.75s8 0 11.31-1.81a34.34 34.34 0 0 0 7.19-5.47 30 30 0 0 0 3.11-3.16c4.31-1.2 6.93-2.83 8.11-5.53 1.27-2.94.71-5.37-2.23-7.62zm-44 8c-.1 0-4.94-2-5.75-4.75s3.37-5.53 5.4-6.41a14.57 14.57 0 0 0 -.43 6.22c.5 3.31.84 5 .75 4.97zm42.28 1.12c-1.91 1.66-3.47 2.06-3.41 1.91a18.36 18.36 0 0 0 1.41-6.07 38.3 38.3 0 0 0 -.44-5.4s3.44 1.22 4.47 3.84-.12 4.06-2.03 5.72z" fill="#1d1d1b"/><path d="m16.84 22.46c-.37-.09-.85-.32-.38-.85a18.1 18.1 0 0 1 9-6.75 22.15 22.15 0 0 1 14.28-.28c2.28.69 5.41 2.34 5.25 2.59a1.29 1.29 0 0 1 -1.06.57c-.63.06-2.84-.38-4.78.43s-2.5 1.47-3.88 1.5a23.54 23.54 0 0 0 -6.47.54c-2.9.75-3.46 1.65-5.68 1.93a45 45 0 0 1 -6.28.32z" fill="#85bfe9"/><path d="m19.52 20.61a6.35 6.35 0 0 1 2.07-2.09 8.92 8.92 0 0 1 2.41-1.41c.16 0 .38.38.22.47a8.26 8.26 0 0 0 -2.37 1.75c-1 1.09-.78 1.56-1.22 1.63s-1.26-.19-1.11-.35z" fill="#1d1d1b"/><path d="m15 24.33a7.44 7.44 0 0 1 2.88-.41c1.75 0 2.9.66 6.22-.37s4.06-1.81 5.75-1.84 3.34.5 5.9-.25 3.69-1.57 5.07-1.85 3.84-.22 4.34-.31 1.69-.41 1.87-.22a27.24 27.24 0 0 1 2.6 5.53c.94 2.75 1.06 3.66.87 4a10.63 10.63 0 0 1 -5.5 1.53c-2.78.1-4.46-1.75-9-1.59s-8.93.91-11.06.66-3.5-1.35-6.06-1.22a13.63 13.63 0 0 0 -3.91.43c-.87.29-1 .72-1.12.22s.33-3.53 1.15-4.31z" fill="#cbe7f5"/><g fill="#1d1d1b"><path d="m44.77 20.71a7.38 7.38 0 0 1 2.72 1.4c-.09.19.07.44-.34.44a10.38 10.38 0 0 1 -2.72-1.16 1.13 1.13 0 0 1 .34-.68z"/><path d="m43.81 22.64s4.25 1.94 4.25 2.22.18.47-.16.44a28.09 28.09 0 0 1 -4.5-1.94c-.06-.22.41-.72.41-.72z"/><path d="m41.77 24.08c.16 0 5.54 2.63 5.5 2.88s.13.5-.18.46a46.82 46.82 0 0 1 -5.72-2.42c.03-.23.28-.92.4-.92z"/><path d="m40.24 25.92c.1 0 4.32 1.94 4.22 2.13s-.06.34-.28.34a34.62 34.62 0 0 1 -4.34-1.65 2.24 2.24 0 0 1 .4-.82z"/></g><path d="m14.21 30.33c.14-.14.94-1.16 3.69-.72s4.25 1.78 7.31 1.22 9.63-.91 12.35-.34 2.06 1.56 6.53 1.37 6.5-1.5 6.72-1.19a12.74 12.74 0 0 1 -.16 5.47c-.56 2.88-.91 3.78-1.06 3.94a30.43 30.43 0 0 1 -5.85.94c-.4-.19-4.25-3.13-4.47-3.13s-.71.22-.59.44 4.32 2.67 4.06 2.84a37.54 37.54 0 0 1 -12 .19 84.18 84.18 0 0 1 -13.65-3.06 4.92 4.92 0 0 1 -2.09-.84 19.69 19.69 0 0 1 -1.25-4.79c-.23-1.75.25-2.09.46-2.34z" fill="#cbe7f5"/><path d="m41.65 36.46a20.45 20.45 0 0 1 4.25 3.15c0 .25 0 .44-.22.41s-4.68-2.75-4.62-3.02.46-.48.59-.54z" fill="#1d1d1b"/><path d="m43.06 35.49c0-.09.46-.44.75-.38a21.34 21.34 0 0 1 3.75 2.81c0 .29.06.57-.25.5a28.43 28.43 0 0 1 -4.25-2.93z" fill="#1d1d1b"/><path d="m45.24 33.89c-.14-.1.16-.5.53-.43s2.57 1.28 2.5 1.56-.15.62-.34.62a31.51 31.51 0 0 1 -2.69-1.75z" fill="#1d1d1b"/><path d="m15.93 40.08c0-.28 7.59 2.56 12.59 2.94a82.14 82.14 0 0 0 13.48.22c4.66-.38 5.88-.66 5.88-.53a19.19 19.19 0 0 1 -8.1 6.37 27.15 27.15 0 0 1 -15.22.22c-3.75-1.25-6.62-5.56-7-6.13a19.42 19.42 0 0 1 -1.63-3.09z" fill="#85bfe9"/><path d="m20.71 43.49c.29-.29 1.06.65 1.75.59s1.66-.25 2 .06.66.66 1.25.6 2.22-.72 2.5-.57.5.13.32.32a5.31 5.31 0 0 1 -2.72 1.09c-1.1 0-1.94-.87-2.38-.81a5.12 5.12 0 0 1 -1.81.12c-.75-.12-1.16-1.15-.91-1.4z" fill="#1d1d1b"/><path d="m28.52 47.33a20 20 0 0 0 3.66.84 4.25 4.25 0 0 0 1.82-.17c.25-.1 1.07-.32 1.19-.16s.28.22.13.41a2.69 2.69 0 0 1 -1.5.56c-.72.06-2.75 0-3.63 0s-1 .12-1.47-.16-.6-1.23-.2-1.32z" fill="#1d1d1b"/><path d="m37.27 45.92c.2-.11 1.32-.53 1.54-.34s.59.31.21.53a4.14 4.14 0 0 1 -1.46.53c-.25-.03-.5-.59-.29-.72z" fill="#1d1d1b"/></svg>