<svg height="64" viewBox="0 0 64 64" width="64" xmlns="http://www.w3.org/2000/svg"><path d="m31.23 5.25a31.23 31.23 0 0 1 17.16 4c7.84 4.19 10.37 10.72 11.81 14.16s.38 14.75-4.31 20.9-5.69 10.04-14.19 12.79-18.09 2.09-23.31-1.1-8.78-6.56-12.6-13.5-2.62-13.25-1.31-19 7.88-11.4 11.06-13.25a42 42 0 0 1 15.69-5z" fill="#1d1d1b"/><path d="m31.73 7.22c6.14-.37 10.06.94 14.35 2.63s6.56 4.81 8.68 7.25 2.16 3.62 2.16 3.62-2.06-.78-3.19.13-2.22 2-2.22 1.87a25.17 25.17 0 0 1 -.51-3.62 9 9 0 0 0 -.49-3.1 10.1 10.1 0 0 0 -.9-1.47c-.35-.53-.35-.84-.75-1s-1.13.16-1 .44 1.19 1.88 1.06 2.41-1.37 1.9-1.47 2.43a2.06 2.06 0 0 0 0 1.22 9.18 9.18 0 0 1 .6 3.07c-.1.93.12 1-.13 1s-.56.22-.78 0-.31-2.41-1.12-3.53-3.32-2.1-4-2.22a1.52 1.52 0 0 0 -1.37.22 1.64 1.64 0 0 0 -.28.78s.56.59.9.4a1.12 1.12 0 0 1 1.07-.15c.56.15 1.65.69 1.59 1s-.06.44-.22.44-1.94-.69-2.25-.5-.53 1.15-.09 1.25 3.44.71 3.62 1.21a1.86 1.86 0 0 1 -.53 2.19c-.84.53-1 .91-3.56-.4s-2.9-1.66-4.61-1.6a15.16 15.16 0 0 1 -2.46.09c-.47-.09-3.35-3-3.75-2.78s-.79.66-.63.91 2.55 2.5 2.55 2.84-.84 3.16.19 3.85 3.4 1.4 3.65 2.15a1.22 1.22 0 0 1 -.15 1.19 16.48 16.48 0 0 1 -3.66.87c-.9-.06-2.94-1.43-5.81-.53a24.66 24.66 0 0 1 -7.41 1.5c-2.28 0-4.62-1.22-6.84-1.22a9.21 9.21 0 0 0 -4.16.69c-.84.41-2.18 1.6-2.47 1.35s-.71-5.66 1.1-10.32 6.9-10.34 10.47-12.34a33.1 33.1 0 0 1 14.82-4.22z" fill="#e7413e"/><path d="m38.51 9.91a9.57 9.57 0 0 1 3.72.5c.19.22.66.47.19.56a22.81 22.81 0 0 1 -3.84-.12c-.29-.13-.38-.79-.07-.94z" fill="#1d1d1b"/><path d="m38.61 15.22c.11 0 1.5-.37 2.34-.56s1.44-.1 1.47.09.37.35-.25.53a21.75 21.75 0 0 1 -3.41.85c-.15-.13-.28-.88-.15-.91z" fill="#1d1d1b"/><path d="m32.17 11.85c1-.1 3.66 1.28 3.47 2.43a4.89 4.89 0 0 1 -4 3.07c-1.63-.07-3.34-.38-3.81-1.82s.62-3.34 4.34-3.68z" fill="#1d1d1b"/><path d="m32.11 12.63c1.12 0 2.75 1 2.47 1.75a4.59 4.59 0 0 1 -2.91 2.09c-.91 0-3-.09-2.88-1.44s1.21-2.4 3.32-2.4z" fill="#a42116"/><path d="m35.54 18.94c.45-.15 2.5 0 2.54.41s.34.62-.16.71a7.51 7.51 0 0 1 -2.75-.06 2 2 0 0 1 .37-1.06z" fill="#1d1d1b"/><path d="m24.51 11a3.21 3.21 0 0 1 1.69-.72c1-.21 1.41-.25 1.47-.09s.22.38 0 .5a5.73 5.73 0 0 0 -1.59.5c-.6.41-.57.53-.88.59s-.62-.65-.69-.78z" fill="#1d1d1b"/><path d="m19.48 14.31a6.13 6.13 0 0 1 4.72-.65 3 3 0 0 1 1.31 3.19 1.66 1.66 0 0 1 -1.37 1.34c-.5.09-2.94.78-4.53.06s-2.35-2.25-.13-3.94z" fill="#1d1d1b"/><path d="m20.23 14.75c.45-.29 2.78-.94 3.44-.53s1.34 1.63 1.06 2.25-1.28 1.06-2.65 1.09-2.66 0-2.79-.78a2 2 0 0 1 .94-2.03z" fill="#a42116"/><path d="m20.45 22c.95-.3 3.47-.12 4.28 1.63a2.34 2.34 0 0 1 -1.31 3.37c-1 .5-3.69 1.19-5.13-.72s-.96-3.28 2.16-4.28z" fill="#1d1d1b"/><path d="m20.36 22.81a3.69 3.69 0 0 1 3.31.88c1 1 .34 2.09-.75 2.59s-2.94.82-3.78-.62-.44-2.41 1.22-2.85z" fill="#a42116"/><path d="m26.92 20.31c.29 0 1 .13.84.63a.8.8 0 0 1 -1.31.28c-.34-.44.16-.84.47-.91z" fill="#1d1d1b"/><path d="m27.83 23.81c.47-.15 2 0 2 .19s.13.41-.15.53a3.59 3.59 0 0 1 -1.6.13c-.22-.13-.35-.81-.25-.85z" fill="#1d1d1b"/><path d="m25.7 29.88c.31-.11 1.28-.38 1.38-.13s.21.44 0 .63-1.19.47-1.32.34-.25-.78-.06-.84z" fill="#1d1d1b"/><path d="m17.17 29.19a5.61 5.61 0 0 1 2.09.22c.72.25 1.1.5.94.69s-.06.37-.37.28a2.29 2.29 0 0 0 -1.38-.25c-.66.12-.78.34-1.19.25s-.4-1.1-.09-1.19z" fill="#1d1d1b"/><path d="m9.58 29c.08-.19 1.78-1.28 2.31-1.06a8.43 8.43 0 0 0 1.59.53c.41.06.94 0 .78.25s0 .72-.53.75-1.78-.62-2.09-.56-1.13 1-1.53 1-.63-.66-.53-.91z" fill="#1d1d1b"/><path d="m11.79 23.25c.19-.28 2.07-1 2.32-.78s.37.47.18.69a5.86 5.86 0 0 1 -2.12.72c-.17-.1-.44-.53-.38-.63z" fill="#1d1d1b"/><path d="m5.7 35.66c0-.18 2.72-2.75 5.41-2.31s5.12 2 8.31 1.37 6.78-2.12 9-1.72 2.94 1.1 4 .81.84-.53 1.66-.59a6.67 6.67 0 0 0 2.18-.28 2.33 2.33 0 0 0 1.19-1.78 6.62 6.62 0 0 0 -1.09-2.28c-.32-.16-1.5-1-1.85-1.16s-1.34-.31-1.37-.75-.31-1.69.25-1.91 3.69-.53 4.69.19 2.31 2 4.06 2a6.69 6.69 0 0 0 3.65-.81c.6-.41.82-1.31 1.1-1.31s1.9-.06 2.09-.31a7.82 7.82 0 0 0 -.06-3.29c-.28-.59-.69-1.56-.38-2.09s.79-1.87 1.13-1.81.59.59.56 1.22a41.57 41.57 0 0 0 .25 4.59c.16.81 0 .88.35 1s1-.44 1-.44 1-1.15 1.62-1.28a4.34 4.34 0 0 1 1.5.1s-1 1.15-.87 1.68.72 1.28.18 1.75-2.26 2.03-2.09 2.75a20.59 20.59 0 0 0 1.09 3.35c.25.46.22.62 1.07.53s1.09-.63 1.5-.5a1.9 1.9 0 0 0 1.25.06c.46-.16 1.53 0 1.53.19s-.82 2.65-.82 2.65a9.21 9.21 0 0 0 -3.25-.37c-1.59.15-.93.53-2.21.06s-2.79-1.75-3.41-1.78a1.85 1.85 0 0 0 -1.47.62 9.81 9.81 0 0 0 1.22 2.6c.37.59.56.84 1.25.94s1 0 1.31.46a24 24 0 0 1 1.91 4.19c-.1.25.09.41-.31.28s-2.72-2.09-4.83-2.53a17.31 17.31 0 0 1 -3.47-.84c-.25-.19-.56-.38-.53-.53s.22-1.69 0-1.88a2.6 2.6 0 0 0 -.87-.31s-.29 1.62-.47 1.5-.41 0-.41-.28-.34-1.31-.19-1.6.41-.21.28-.53-.87-.84-.87-.84a11.51 11.51 0 0 1 -3.06.75c-1.35.06-2.53.12-2.57.47a8.27 8.27 0 0 1 -1.14 3.44c-.87 1.37-.31 1.46-1.16 1.56s-4.12-.41-4.37 0a10.57 10.57 0 0 0 -.17 2.81c0 .5.22 3.56-.31 4.13s-.4.71-1 .78-4-.41-5.31 0-2.88 1.09-3.13 1.72.1 1.71.57 2.93a10.73 10.73 0 0 0 1.18 2.1s-2.81-1.57-3.47-2-1-.72-1-1-.5-4.38.91-6 4.09-.25 5.53-2.13 2.72-5.34 3.25-5.22.34.38.69.22.9-.47.81-.59-.44-.91-.6-1.22a8.84 8.84 0 0 0 -.4-1 1.75 1.75 0 0 0 -1.22-.09 16.88 16.88 0 0 1 -4.5 1.5c-2.59.5-3.63.34-4.38.06s-2.09-1.44-3.68-1.37-1.75 1-3.19 1.84-2.75 1.72-2.99 1.5a7.25 7.25 0 0 1 -1.06-3.97z" fill="#f2910d"/><path d="m58.54 31.31-2.43.07c-.82 0-1.32.31-1.66 0a8 8 0 0 1 -.94-2.57c0-.25 2-1.68 1.94-2.37s-.41-1.81-.09-1.94 1.31-.34 1.34-.78.22-.72-.09-.88-1-.28-1-.43-.06-.38.19-.38 1.31-.37 1.71-.09 1.19 1.69 1.25 4.31a37.08 37.08 0 0 1 -.22 5.06z" fill="#e7413e"/><path d="m52.79 37a24.37 24.37 0 0 1 3.85-.22c.44 0 .72.13.69.22a17.68 17.68 0 0 1 -2.75 6.38c-1.94 2.4-4.58 6.72-6.58 8.4a22.84 22.84 0 0 1 -4.37 2.78 36.83 36.83 0 0 0 -2.63-3.25c-.25-.06-1.12.19-1 .35s2.82 3.15 2.63 3.31a3.15 3.15 0 0 1 -1.25.47 33.11 33.11 0 0 0 -2-2.88c-.22-.09-1 0-.85.25s2 2.79 1.85 2.94a12.12 12.12 0 0 1 -1.91.56 11.43 11.43 0 0 1 -1-2.62c-.22-1.16-.37-2.13.56-2.88s2.6-1.75 2.07-3.65-1.19-3-.91-3.81 1.81-2.54 2.14-2.35.18 1.53.75 2.19a8.46 8.46 0 0 0 1.68 1.34s.5 2.82 1.1 3.54 1 .68 1.34 1.28.41 1.09.81 1 .5-.25.44-.44-.53-1.16-.34-1.22.81.62 1.06.47.75-.63.66-.72-.82-.84-1.13-.91l-.94-.18s-.9-2-1.34-2.88a10.47 10.47 0 0 0 -1.42-1.81c-.4-.56-1.06-2.5-.72-2.56s1.35.93 2.5 1a4.93 4.93 0 0 1 3.32 1.22 6.23 6.23 0 0 0 3.5 1.47 6.27 6.27 0 0 0 1.68-1.4 1.19 1.19 0 0 0 .41-1.22c-.15-.39-1.93-3.98-1.9-4.17z" fill="#e7413e"/><path d="m23 55.78s-2.25-4-2.06-4.5a3 3 0 0 1 3.31-1.47c2 .41 4.22.91 5.41-.65s.93-3.44 1-4.06-.06-2.79.44-2.82 3.4-.12 4-.68a14.43 14.43 0 0 0 1.9-3c.13-.38.41-1.75.66-1.79a10.37 10.37 0 0 1 2.37 0c0 .16 1.07.82-.12 2.29s-2.06 2.18-2.41 3 .38 3.68.5 4.75.56 1.53-.12 2.12-2.5 1.66-2.35 3.69 1.25 3.72 1.13 4-4.44 1.09-7.91.44-5.75-1.32-5.75-1.32z" fill="#e7413e"/><g fill="#1d1d1b"><path d="m24.45 52.88 1.75.22a13.65 13.65 0 0 1 1.53.12c.1.09.38.59.19.75a12 12 0 0 1 -3.34-.19c-.35-.15-.22-.78-.13-.9z"/><path d="m28 51.5a2.28 2.28 0 0 1 2.13-.4c1.09.43 1.18.93 1.87.93s.72 0 .85.22.5.75.18.81a3.21 3.21 0 0 1 -1.25-.18c-.25-.1-1.34-.85-2-.78a12.41 12.41 0 0 1 -1.34.21c-.21-.06-.44-.81-.44-.81z"/><path d="m31.58 48.13a7.36 7.36 0 0 1 2.53-.69c.12.19.28.12.12.41a5.91 5.91 0 0 1 -2.62 1.09c-.22-.19-.03-.72-.03-.81z"/><path d="m32.48 43.31s2.25-.12 2.53-.18.28.53.22.62a4.71 4.71 0 0 1 -1.59.31c-.31 0-1.22-.25-1.22-.25z"/><path d="m42.54 48.81c.1.1 3.41 3.25 3.16 3.54a1.11 1.11 0 0 1 -.56.34s-3.06-2.78-3.06-3.16.46-.72.46-.72z"/><path d="m39.23 28.75a1.5 1.5 0 0 1 1.16 0c.5.28.9 1.56 1.56 1.38s.69-.75 1.47-.53 2 .71 1.94.84 0 .31-.28.34-1.94-.59-2.16-.43-.06.34-.91.34a1.75 1.75 0 0 1 -1.59-.75c-.19-.38-.28-.88-.59-.81a.55.55 0 0 1 -.6-.38z"/><path d="m46.83 30.1c0-.38 1.25-.22 1.34.12s0 .56-.28.66-.66.28-.94 0-.12-.72-.12-.78z"/><path d="m48.2 27.5c0-.16 1-2 1.25-2s.81.22.69.6-1 1.78-1.28 1.78-.6-.07-.66-.38z"/></g><path d="m7.58 41c.16-.4 2.84-1.62 3.25-1.91s1.46-1.53 2.15-1.12a8.83 8.83 0 0 0 5.22 1.53c2.44-.22 5.91-1.37 6-1.12a16.69 16.69 0 0 1 -2.59 4.81c-.66.44-3.69.47-4.72 1.62a7.57 7.57 0 0 0 -1.53 4.28v2.29a54.52 54.52 0 0 1 -5-5.29c-2.57-3.09-2.85-4.96-2.78-5.09z" fill="#e7413e"/><path d="m10.48 41.56c-.11-.34 1.22-1.37 1.47-1.28a3.82 3.82 0 0 0 1.53.66c.69 0 1.81-.25 1.94 0s.16.5 0 .59a3.58 3.58 0 0 1 -1.31.1c-.75 0-1.78-.32-2.07-.28s-.62.71-1 .75-.53-.44-.56-.54z" fill="#1d1d1b"/><path d="m17.79 40.78a3.65 3.65 0 0 0 1.41-.15c.44-.16.66-.44.88-.25s.34.53.18.65-.06.28-.65.38a8.35 8.35 0 0 1 -2.22.12c-.1-.12.31-.78.4-.75z" fill="#1d1d1b"/><path d="m12.7 43.41c.07-.28 2.22-.38 2.34-.19s.47.44.1.59a9.91 9.91 0 0 1 -2.19.5 1.84 1.84 0 0 1 -.25-.9z" fill="#1d1d1b"/><path d="m13.08 45.56a5.38 5.38 0 0 1 1.53-.43c.09.09.53.25.25.5a4.06 4.06 0 0 1 -1.38.75c-.12-.07-.48-.78-.4-.82z" fill="#1d1d1b"/></svg>